<svg xmlns="http://www.w3.org/2000/svg" width="50" height="50" viewBox="0 0 50 50"><defs><style>.a{fill:#ff4b55;}.b{fill:#73af00;}.c{fill:#ffe15a;}.d{fill:#f5f5f5;}.e{fill:#41479b;}</style></defs><g transform="translate(3430 -1133)"><path class="a" d="M49.5,59.218H1.223c-.476,0-.862-.589-.862-1.316V10.534c0-.727.386-1.316.862-1.316H49.5c.476,0,.862.589.862,1.316V57.9C50.361,58.629,49.975,59.218,49.5,59.218Z" transform="translate(-3430.361 1123.782)"/><path class="b" d="M22.686,9.218H1.424A1.21,1.21,0,0,0,.361,10.534V57.9a1.21,1.21,0,0,0,1.063,1.316H22.687v-50Z" transform="translate(-3430.361 1123.782)"/><path class="c" d="M22.589,41.586a11.87,11.87,0,1,0-11.87-11.87A11.87,11.87,0,0,0,22.589,41.586Z" transform="translate(-3430.785 1127.784)"/><path class="a" d="M24.721,23.927v5.28a3.96,3.96,0,1,1-7.92,0v-5.28Zm1.32-2.64H15.481a1.32,1.32,0,0,0-1.32,1.32v6.6a6.6,6.6,0,1,0,13.2,0v-6.6A1.32,1.32,0,0,0,26.041,21.287Z" transform="translate(-3429.016 1129.591)"/><path class="d" d="M23.805,23.011v5.28a3.96,3.96,0,1,1-7.92,0v-5.28Z" transform="translate(-3428.122 1130.51)"/><path class="c" d="M15.243,23.038a.66.66,0,1,0-.66-.66A.66.66,0,0,0,15.243,23.038Z" transform="translate(-3428.713 1129.967)"/><path class="c" d="M22.139,23.038a.66.66,0,1,0-.66-.66A.66.66,0,0,0,22.139,23.038Z" transform="translate(-3425.299 1129.967)"/><path class="c" d="M15.243,26.487a.66.66,0,1,0-.66-.66A.66.66,0,0,0,15.243,26.487Z" transform="translate(-3428.713 1131.674)"/><path class="c" d="M22.139,26.487a.66.66,0,1,0-.66-.66A.66.66,0,0,0,22.139,26.487Z" transform="translate(-3425.299 1131.674)"/><path class="c" d="M18.691,23.038a.66.66,0,1,0-.66-.66A.66.66,0,0,0,18.691,23.038Z" transform="translate(-3427.006 1129.967)"/><path class="c" d="M21.279,29.665a.66.66,0,1,0-.66-.66A.66.66,0,0,0,21.279,29.665Z" transform="translate(-3425.724 1133.246)"/><path class="c" d="M16.154,29.665a.66.66,0,1,0-.66-.66A.66.66,0,0,0,16.154,29.665Z" transform="translate(-3428.262 1133.246)"/><path class="e" d="M19.618,25.379v1.137a.853.853,0,1,1-1.705,0V25.379Z" transform="translate(-3427.068 1131.771)"/><path class="e" d="M19.618,23.619v1.137a.853.853,0,0,1-1.705,0V23.619Z" transform="translate(-3427.068 1130.9)"/><path class="e" d="M19.618,27.157v1.137a.853.853,0,1,1-1.705,0V27.157Z" transform="translate(-3427.068 1132.649)"/><path class="e" d="M21.118,25.379v1.137a.853.853,0,1,1-1.705,0V25.379Z" transform="translate(-3426.325 1131.771)"/><path class="e" d="M18.119,25.379v1.137a.853.853,0,1,1-1.705,0V25.379Z" transform="translate(-3427.81 1131.771)"/></g></svg>