<svg xmlns="http://www.w3.org/2000/svg" width="50" height="50" viewBox="0 0 50 50"><defs><style>.a{fill:#41479b;}.b{fill:#f5f5f5;}.c{fill:#ff4b55;}</style></defs><g transform="translate(3430 -1133)"><path class="a" d="M13.257,50c-.476,0-.862-.589-.862-1.315V1.316c0-.726.386-1.316.862-1.316H61.533c.476,0,.862.59.862,1.316V48.685c0,.726-.386,1.315-.862,1.315Z" transform="translate(-3442.395 1133)"/><path class="b" d="M30.947,50V34.029l-18.553,12.4V36.995l8.1-5.415h-8.1V18.421h8.1l-8.1-5.415V3.567l18.553,12.4V0H43.842V15.971L62.4,3.567V13l-8.1,5.416h8.1V31.579h-8.1L62.4,37v9.438l-18.554-12.4V50Z" transform="translate(-3442.395 1133)"/><path class="c" d="M33.526,50V28.947H12.395V21.053H33.526V0h7.737V21.053H62.4v7.894H41.263V50ZM12.395,40.657,26.76,31.142h4.849L12.395,43.869Zm32.782-9.515h4.849L62.4,39.336v3.212ZM43.109,18.858,62.4,6.083V9.3L47.958,18.858Zm-18.916,0-11.8-7.815V7.831L29.042,18.858Z" transform="translate(-3442.395 1133)"/></g></svg>