<svg xmlns="http://www.w3.org/2000/svg" xmlns:xlink="http://www.w3.org/1999/xlink" width="50" height="50" viewBox="0 0 50 50"><defs><style>.a{fill:#f5f5f5;}.b{fill:#ff4b55;}.c{clip-path:url(#a);}.d{fill:#41479b;}</style><clipPath id="a"><path class="a" d="M49.138,58.944H.862c-.476,0-.862-.589-.862-1.316V10.26c0-.727.386-1.316.862-1.316H49.138c.476,0,.862.589.862,1.316V57.628C50,58.355,49.614,58.944,49.138,58.944Z" transform="translate(0 -8.944)"/></clipPath></defs><g transform="translate(3319.936 -1133)"><path class="a" d="M49.138,58.944H.862c-.476,0-.862-.589-.862-1.316V10.26c0-.727.386-1.316.862-1.316H49.138c.476,0,.862.589.862,1.316V57.628C50,58.355,49.614,58.944,49.138,58.944Z" transform="translate(-3319.936 1124.056)"/><path class="b" d="M50,12.882H0v-2.59c0-.744.386-1.347.862-1.347H49.138c.476,0,.862.6.862,1.347Z" transform="translate(-3319.936 1124.056)"/><path class="b" d="M50,19.024H0v3.937H50Z" transform="translate(-3319.936 1129.33)"/><path class="b" d="M50,13.984H0v3.937H50Z" transform="translate(-3319.936 1126.693)"/><path class="b" d="M50,28H.862C.386,28,0,27.4,0,26.654v-2.59H50Z" transform="translate(-3319.936 1131.968)"/><path class="b" d="M50,34.144H0v3.937H50Z" transform="translate(-3319.936 1137.242)"/><path class="b" d="M49.138,43.12H.862c-.476,0-.862-.6-.862-1.347v-2.59H50v2.591C50,42.517,49.614,43.12,49.138,43.12Z" transform="translate(-3319.936 1139.88)"/><path class="b" d="M50,29.1H0v3.937H50Z" transform="translate(-3319.936 1134.605)"/><g class="c" transform="translate(-3319.936 1133)"><g transform="translate(-10.718 0)"><path class="d" d="M34.365,8.945H1.322A1.335,1.335,0,0,0,0,10.291V35.159a1.335,1.335,0,0,0,1.322,1.347H34.365a1.335,1.335,0,0,0,1.322-1.347V10.291A1.335,1.335,0,0,0,34.365,8.945Z" transform="translate(0 -8.945)"/><path class="a" d="M2.97,10.954l.293.894.925.007a.127.127,0,0,1,.073.229l-.744.56.279.9a.125.125,0,0,1-.191.142l-.752-.548-.752.548a.125.125,0,0,1-.191-.142l.279-.9-.744-.56a.127.127,0,0,1,.073-.229l.925-.007.293-.894A.124.124,0,0,1,2.97,10.954Z" transform="translate(0.742 -7.863)"/><path class="a" d="M2.97,13.948l.293.894.925.007a.127.127,0,0,1,.073.229l-.744.56.279.9a.125.125,0,0,1-.191.142l-.752-.548-.752.548a.125.125,0,0,1-.191-.142l.279-.9-.744-.56a.127.127,0,0,1,.073-.229l.925-.007.293-.894A.124.124,0,0,1,2.97,13.948Z" transform="translate(0.742 -6.368)"/><path class="a" d="M2.97,16.941l.293.894.925.007a.127.127,0,0,1,.073.229l-.744.56.279.9a.125.125,0,0,1-.191.142l-.752-.548-.752.548a.125.125,0,0,1-.191-.142l.279-.9-.744-.56a.127.127,0,0,1,.073-.229l.925-.007.293-.894A.124.124,0,0,1,2.97,16.941Z" transform="translate(0.742 -4.798)"/><path class="a" d="M2.97,19.935l.293.894.925.007a.127.127,0,0,1,.073.229l-.744.56.279.9a.125.125,0,0,1-.191.142l-.752-.548-.752.548a.125.125,0,0,1-.191-.142l.279-.9-.744-.56a.127.127,0,0,1,.073-.229l.925-.007.293-.894A.124.124,0,0,1,2.97,19.935Z" transform="translate(0.742 -3.229)"/><path class="a" d="M2.97,22.929l.293.894.925.007a.127.127,0,0,1,.073.229l-.744.56.279.9a.125.125,0,0,1-.191.142l-.752-.548L2.1,25.66a.125.125,0,0,1-.191-.142l.279-.9-.744-.56a.127.127,0,0,1,.073-.229l.925-.007.293-.894A.124.124,0,0,1,2.97,22.929Z" transform="translate(0.742 -1.66)"/><path class="a" d="M5.293,12.422l.293.894.925.007a.127.127,0,0,1,.073.229l-.744.56.279.9a.125.125,0,0,1-.191.142L5.175,14.6l-.752.548a.125.125,0,0,1-.191-.142l.279-.9-.744-.56a.127.127,0,0,1,.073-.229l.925-.007.293-.894A.124.124,0,0,1,5.293,12.422Z" transform="translate(1.981 -7.037)"/><path class="a" d="M5.293,15.416l.293.894.925.007a.127.127,0,0,1,.073.229l-.744.56.279.9a.125.125,0,0,1-.191.142L5.175,17.6l-.752.548A.125.125,0,0,1,4.231,18l.279-.9-.744-.56a.127.127,0,0,1,.073-.229l.925-.007.293-.894A.124.124,0,0,1,5.293,15.416Z" transform="translate(1.981 -5.598)"/><path class="a" d="M5.293,18.409l.293.894.925.007a.127.127,0,0,1,.073.229l-.744.56.279.9a.125.125,0,0,1-.191.142l-.752-.548-.752.548A.125.125,0,0,1,4.231,21l.279-.9-.744-.56a.127.127,0,0,1,.073-.229l.925-.007.293-.894A.124.124,0,0,1,5.293,18.409Z" transform="translate(1.981 -4.029)"/><path class="a" d="M5.293,21.4l.293.894.925.007a.127.127,0,0,1,.073.229l-.744.56.279.9a.125.125,0,0,1-.191.142l-.752-.548-.752.548a.125.125,0,0,1-.191-.142l.279-.9-.744-.56A.127.127,0,0,1,3.84,22.3l.925-.007.293-.894A.124.124,0,0,1,5.293,21.4Z" transform="translate(1.981 -2.459)"/><path class="a" d="M7.617,10.954l.293.894.925.007a.127.127,0,0,1,.073.229l-.744.56.279.9a.125.125,0,0,1-.191.142L7.5,13.137l-.752.548a.125.125,0,0,1-.191-.142l.279-.9-.744-.56a.127.127,0,0,1,.073-.229l.925-.007.293-.894A.124.124,0,0,1,7.617,10.954Z" transform="translate(3.22 -7.863)"/><path class="a" d="M7.617,13.948l.293.894.925.007a.127.127,0,0,1,.073.229l-.744.56.279.9a.125.125,0,0,1-.191.142L7.5,16.13l-.752.548a.125.125,0,0,1-.191-.142l.279-.9-.744-.56a.127.127,0,0,1,.073-.229l.925-.007.293-.894A.124.124,0,0,1,7.617,13.948Z" transform="translate(3.22 -6.368)"/><path class="a" d="M7.617,16.942l.293.894.925.007a.127.127,0,0,1,.073.229l-.744.56.279.9a.125.125,0,0,1-.191.142L7.5,19.124l-.752.548a.125.125,0,0,1-.191-.142l.279-.9-.744-.56a.127.127,0,0,1,.073-.229l.925-.007.293-.894A.124.124,0,0,1,7.617,16.942Z" transform="translate(3.22 -4.798)"/><path class="a" d="M7.617,19.935l.293.894.925.007a.127.127,0,0,1,.073.229l-.744.56.279.9a.125.125,0,0,1-.191.142L7.5,22.118l-.752.548a.125.125,0,0,1-.191-.142l.279-.9-.744-.56a.127.127,0,0,1,.073-.229l.925-.007.293-.894A.124.124,0,0,1,7.617,19.935Z" transform="translate(3.22 -3.229)"/><path class="a" d="M7.617,22.929l.293.894.925.007a.127.127,0,0,1,.073.229l-.744.56.279.9a.125.125,0,0,1-.191.142L7.5,25.111l-.752.548a.125.125,0,0,1-.191-.142l.279-.9-.744-.56a.127.127,0,0,1,.073-.229l.925-.007.293-.894A.124.124,0,0,1,7.617,22.929Z" transform="translate(3.22 -1.66)"/><path class="a" d="M9.941,12.422l.293.894.925.007a.127.127,0,0,1,.073.229l-.744.56.279.9a.125.125,0,0,1-.191.142L9.822,14.6l-.752.548a.125.125,0,0,1-.191-.142l.279-.9-.744-.56a.127.127,0,0,1,.073-.229l.925-.007.293-.894A.124.124,0,0,1,9.941,12.422Z" transform="translate(4.151 -7.037)"/><path class="a" d="M9.941,15.416l.293.894.925.007a.127.127,0,0,1,.073.229l-.744.56.279.9a.125.125,0,0,1-.191.142L9.822,17.6l-.752.548A.125.125,0,0,1,8.879,18l.279-.9-.744-.56a.127.127,0,0,1,.073-.229l.925-.007.293-.894A.124.124,0,0,1,9.941,15.416Z" transform="translate(4.151 -5.598)"/><path class="a" d="M9.941,18.409l.293.894.925.007a.127.127,0,0,1,.073.229l-.744.56.279.9a.125.125,0,0,1-.191.142l-.752-.548-.752.548A.125.125,0,0,1,8.879,21l.279-.9-.744-.56a.127.127,0,0,1,.073-.229l.925-.007.293-.894A.124.124,0,0,1,9.941,18.409Z" transform="translate(4.151 -4.029)"/><path class="a" d="M9.941,21.4l.293.894.925.007a.127.127,0,0,1,.073.229l-.744.56.279.9a.125.125,0,0,1-.191.142l-.752-.548-.752.548a.125.125,0,0,1-.191-.142l.279-.9-.744-.56a.127.127,0,0,1,.073-.229l.925-.007L9.7,21.4A.124.124,0,0,1,9.941,21.4Z" transform="translate(4.151 -2.459)"/><path class="a" d="M12.264,10.954l.293.894.925.007a.127.127,0,0,1,.073.229l-.744.56.279.9a.125.125,0,0,1-.191.142l-.752-.548-.752.548a.125.125,0,0,1-.191-.142l.279-.9-.744-.56a.127.127,0,0,1,.073-.229l.925-.007.293-.894A.124.124,0,0,1,12.264,10.954Z" transform="translate(5.303 -7.863)"/><path class="a" d="M12.264,13.948l.293.894.925.007a.127.127,0,0,1,.073.229l-.744.56.279.9a.125.125,0,0,1-.191.142l-.752-.548-.752.548a.125.125,0,0,1-.191-.142l.279-.9-.744-.56a.127.127,0,0,1,.073-.229l.925-.007.293-.894A.124.124,0,0,1,12.264,13.948Z" transform="translate(5.303 -6.368)"/><path class="a" d="M12.264,16.942l.293.894.925.007a.127.127,0,0,1,.073.229l-.744.56.279.9a.125.125,0,0,1-.191.142l-.752-.548-.752.548a.125.125,0,0,1-.191-.142l.279-.9-.744-.56a.127.127,0,0,1,.073-.229l.925-.007.293-.894A.124.124,0,0,1,12.264,16.942Z" transform="translate(5.303 -4.798)"/><path class="a" d="M12.264,19.935l.293.894.925.007a.127.127,0,0,1,.073.229l-.744.56.279.9a.125.125,0,0,1-.191.142l-.752-.548-.752.548a.125.125,0,0,1-.191-.142l.279-.9-.744-.56a.127.127,0,0,1,.073-.229l.925-.007.293-.894A.124.124,0,0,1,12.264,19.935Z" transform="translate(5.303 -3.229)"/><path class="a" d="M12.264,22.929l.293.894.925.007a.127.127,0,0,1,.073.229l-.744.56.279.9a.125.125,0,0,1-.191.142l-.752-.548-.752.548a.125.125,0,0,1-.191-.142l.279-.9-.744-.56a.127.127,0,0,1,.073-.229l.925-.007.293-.894A.124.124,0,0,1,12.264,22.929Z" transform="translate(5.303 -1.66)"/><path class="a" d="M14.588,12.422l.293.894.925.007a.127.127,0,0,1,.073.229l-.744.56.279.9a.125.125,0,0,1-.191.142l-.752-.548-.752.548a.125.125,0,0,1-.191-.142l.279-.9-.744-.56a.127.127,0,0,1,.073-.229l.925-.007.293-.894A.124.124,0,0,1,14.588,12.422Z" transform="translate(6.457 -7.037)"/><path class="a" d="M14.588,15.416l.293.894.925.007a.127.127,0,0,1,.073.229l-.744.56.279.9a.125.125,0,0,1-.191.142l-.752-.548-.752.548A.125.125,0,0,1,13.526,18l.279-.9-.744-.56a.127.127,0,0,1,.073-.229l.925-.007.293-.894A.124.124,0,0,1,14.588,15.416Z" transform="translate(6.457 -5.598)"/><path class="a" d="M14.588,18.409l.293.894.925.007a.127.127,0,0,1,.073.229l-.744.56.279.9a.125.125,0,0,1-.191.142l-.752-.548-.752.548A.125.125,0,0,1,13.526,21l.279-.9-.744-.56a.127.127,0,0,1,.073-.229l.925-.007.293-.894A.124.124,0,0,1,14.588,18.409Z" transform="translate(6.457 -4.029)"/><path class="a" d="M14.588,21.4l.293.894.925.007a.127.127,0,0,1,.073.229l-.744.56.279.9a.125.125,0,0,1-.191.142l-.752-.548-.752.548a.125.125,0,0,1-.191-.142l.279-.9-.744-.56a.127.127,0,0,1,.073-.229l.925-.007.293-.894A.124.124,0,0,1,14.588,21.4Z" transform="translate(6.457 -2.459)"/><path class="a" d="M16.911,10.954l.293.894.925.007a.127.127,0,0,1,.073.229l-.744.56.279.9a.125.125,0,0,1-.191.142l-.752-.548-.752.548a.125.125,0,0,1-.191-.142l.279-.9-.744-.56a.127.127,0,0,1,.073-.229l.925-.007.293-.894A.124.124,0,0,1,16.911,10.954Z" transform="translate(7.61 -7.863)"/><path class="a" d="M16.911,13.948l.293.894.925.007a.127.127,0,0,1,.073.229l-.744.56.279.9a.125.125,0,0,1-.191.142l-.752-.548-.752.548a.125.125,0,0,1-.191-.142l.279-.9-.744-.56a.127.127,0,0,1,.073-.229l.925-.007.293-.894A.124.124,0,0,1,16.911,13.948Z" transform="translate(7.61 -6.368)"/><path class="a" d="M16.911,16.942l.293.894.925.007a.127.127,0,0,1,.073.229l-.744.56.279.9a.125.125,0,0,1-.191.142l-.752-.548-.752.548a.125.125,0,0,1-.191-.142l.279-.9-.744-.56a.127.127,0,0,1,.073-.229l.925-.007.293-.894A.124.124,0,0,1,16.911,16.942Z" transform="translate(7.61 -4.798)"/><path class="a" d="M16.911,19.935l.293.894.925.007a.127.127,0,0,1,.073.229l-.744.56.279.9a.125.125,0,0,1-.191.142l-.752-.548-.752.548a.125.125,0,0,1-.191-.142l.279-.9-.744-.56a.127.127,0,0,1,.073-.229l.925-.007.293-.894A.124.124,0,0,1,16.911,19.935Z" transform="translate(7.61 -3.229)"/><path class="a" d="M16.911,22.929l.293.894.925.007a.127.127,0,0,1,.073.229l-.744.56.279.9a.125.125,0,0,1-.191.142l-.752-.548-.752.548a.125.125,0,0,1-.191-.142l.279-.9-.744-.56a.127.127,0,0,1,.073-.229l.925-.007.293-.894A.124.124,0,0,1,16.911,22.929Z" transform="translate(7.61 -1.66)"/><path class="a" d="M19.235,12.422l.293.894.925.007a.127.127,0,0,1,.073.229l-.744.56.279.9a.125.125,0,0,1-.191.142l-.752-.548-.752.548a.125.125,0,0,1-.191-.142l.279-.9-.744-.56a.127.127,0,0,1,.073-.229l.925-.007L19,12.422A.124.124,0,0,1,19.235,12.422Z" transform="translate(8.763 -7.037)"/><path class="a" d="M19.235,15.416l.293.894.925.007a.127.127,0,0,1,.073.229l-.744.56.279.9a.125.125,0,0,1-.191.142l-.752-.548-.752.548A.125.125,0,0,1,18.173,18l.279-.9-.744-.56a.127.127,0,0,1,.073-.229l.925-.007L19,15.416A.124.124,0,0,1,19.235,15.416Z" transform="translate(8.763 -5.598)"/><path class="a" d="M19.235,18.409l.293.894.925.007a.127.127,0,0,1,.073.229l-.744.56.279.9a.125.125,0,0,1-.191.142l-.752-.548-.752.548A.125.125,0,0,1,18.173,21l.279-.9-.744-.56a.127.127,0,0,1,.073-.229l.925-.007L19,18.409A.124.124,0,0,1,19.235,18.409Z" transform="translate(8.763 -4.029)"/><path class="a" d="M19.235,21.4l.293.894.925.007a.127.127,0,0,1,.073.229l-.744.56.279.9a.125.125,0,0,1-.191.142l-.752-.548-.752.548a.125.125,0,0,1-.191-.142l.279-.9-.744-.56a.127.127,0,0,1,.073-.229l.925-.007L19,21.4A.124.124,0,0,1,19.235,21.4Z" transform="translate(8.763 -2.459)"/><path class="a" d="M21.558,10.954l.293.894.925.007a.127.127,0,0,1,.073.229l-.744.56.279.9a.125.125,0,0,1-.191.142l-.752-.548-.752.548a.125.125,0,0,1-.191-.142l.279-.9-.744-.56a.127.127,0,0,1,.073-.229l.925-.007.293-.894A.124.124,0,0,1,21.558,10.954Z" transform="translate(9.917 -7.863)"/><path class="a" d="M21.558,13.948l.293.894.925.007a.127.127,0,0,1,.073.229l-.744.56.279.9a.125.125,0,0,1-.191.142l-.752-.548-.752.548a.125.125,0,0,1-.191-.142l.279-.9-.744-.56a.127.127,0,0,1,.073-.229l.925-.007.293-.894A.124.124,0,0,1,21.558,13.948Z" transform="translate(9.917 -6.368)"/><path class="a" d="M21.558,16.942l.293.894.925.007a.127.127,0,0,1,.073.229l-.744.56.279.9a.125.125,0,0,1-.191.142l-.752-.548-.752.548a.125.125,0,0,1-.191-.142l.279-.9-.744-.56a.127.127,0,0,1,.073-.229l.925-.007.293-.894A.124.124,0,0,1,21.558,16.942Z" transform="translate(9.917 -4.798)"/><path class="a" d="M21.558,19.935l.293.894.925.007a.127.127,0,0,1,.073.229l-.744.56.279.9a.125.125,0,0,1-.191.142l-.752-.548-.752.548a.125.125,0,0,1-.191-.142l.279-.9-.744-.56a.127.127,0,0,1,.073-.229l.925-.007.293-.894A.124.124,0,0,1,21.558,19.935Z" transform="translate(9.917 -3.229)"/><path class="a" d="M21.558,22.929l.293.894.925.007a.127.127,0,0,1,.073.229l-.744.56.279.9a.125.125,0,0,1-.191.142l-.752-.548-.752.548a.125.125,0,0,1-.191-.142l.279-.9-.744-.56a.127.127,0,0,1,.073-.229l.925-.007.293-.894A.124.124,0,0,1,21.558,22.929Z" transform="translate(9.917 -1.66)"/></g></g></g></svg>