<svg xmlns="http://www.w3.org/2000/svg" xmlns:xlink="http://www.w3.org/1999/xlink" width="32" height="32" viewBox="0 0 32 32"><defs><style>.a{clip-path:url(#b);}</style><clipPath id="b"><rect width="32" height="32"/></clipPath></defs><g id="a" class="a"><path d="M3279.309-934.44l-8.426-5.044a1.875,1.875,0,0,1-.623-.683,1.921,1.921,0,0,1-.26-.9v-10.086a2.039,2.039,0,0,1,.883-1.585l8.425-5.043a1.754,1.754,0,0,1,.883-.218,1.74,1.74,0,0,1,.882.218l8.426,5.043a1.82,1.82,0,0,1,.623.683,1.894,1.894,0,0,1,.26.9v10.086a1.919,1.919,0,0,1-.259.9,1.84,1.84,0,0,1-.624.683l-8.425,5.044a1.745,1.745,0,0,1-.882.218A1.752,1.752,0,0,1,3279.309-934.44Zm-5.911-11.671a6.818,6.818,0,0,0,6.827,6.793,6.872,6.872,0,0,0,5.844-3.281l-2.929-1.742a3.441,3.441,0,0,1-2.914,1.627,3.409,3.409,0,0,1-3.414-3.4,3.409,3.409,0,0,1,3.414-3.4,3.437,3.437,0,0,1,2.919,1.636l2.923-1.754a6.875,6.875,0,0,0-5.843-3.279A6.818,6.818,0,0,0,3273.4-946.112Zm12.739,1.7h1.7v.849h.849v-.849h.849v-.85h-.849v-1.7h.849v-.851h-.849v-.847h-.849v.847h-1.7v-.847h-.849v.847h-.85v.851h.85v1.694h-.85v.854h.85v.849h.849v-.848h0Zm0-.854v-1.694h1.7v1.7Z" transform="translate(-3264.191 962.112)"/></g></svg>