<svg xmlns="http://www.w3.org/2000/svg" xmlns:xlink="http://www.w3.org/1999/xlink" width="20" height="20" viewBox="0 0 20 20"><defs><style>.a{clip-path:url(#b);}</style><clipPath id="b"><rect width="20" height="20"/></clipPath></defs><g id="a" class="a"><path d="M35.889,26.052A6.882,6.882,0,0,0,30.991,24h-.072a7.045,7.045,0,0,0-6.833,5.971,7.159,7.159,0,0,0,4.574,7.9A2.118,2.118,0,0,0,30.62,37.6a2.211,2.211,0,0,0,.909-1.794v-.268a1.089,1.089,0,0,1,1.077-1.1h3.11a2.151,2.151,0,0,0,2.1-1.708,7.312,7.312,0,0,0,.174-1.649A7.156,7.156,0,0,0,35.889,26.052Zm-7.525,7.587a.8.8,0,0,1-1.1-.3.833.833,0,0,1,.3-1.125.8.8,0,0,1,1.1.3A.833.833,0,0,1,28.364,33.639Zm.3-3.872a.8.8,0,0,1-1.1.3.833.833,0,0,1-.3-1.125.8.8,0,0,1,1.1-.3A.833.833,0,0,1,28.66,29.767Zm2.332-1.373a.824.824,0,1,1,.808-.824A.816.816,0,0,1,30.991,28.394Zm3.435,1.675a.8.8,0,0,1-1.1-.3.833.833,0,0,1,.3-1.125.8.8,0,0,1,1.1.3.833.833,0,0,1-.3,1.125Z" transform="translate(-20.99 -21)"/></g></svg>