<svg xmlns="http://www.w3.org/2000/svg" xmlns:xlink="http://www.w3.org/1999/xlink" width="32" height="32" viewBox="0 0 32 32"><defs><style>.a{clip-path:url(#b);}</style><clipPath id="b"><rect width="32" height="32"/></clipPath></defs><g id="a" class="a"><path d="M13.037,88.384c6.983,0,12.353,2.942,12.353,6.172s-5.374,6.172-12.353,6.172S.684,97.788.684,94.557s5.374-6.172,12.353-6.172m0-.684C5.838,87.7,0,90.768,0,94.557s5.838,6.857,13.037,6.857,13.037-3.068,13.037-6.857S20.236,87.7,13.037,87.7ZM8.89,94.007c-.322,1.65-1.459,1.479-2.856,1.479l.558-2.876C8.14,92.609,9.191,92.442,8.89,94.007ZM3.968,98.4h1.5l.354-1.825c1.674,0,2.713.122,3.675-.778,1.063-.978,1.34-2.717.583-3.589a2.384,2.384,0,0,0-1.894-.68H5.3Zm7.566-8.7h1.487l-.354,1.825c1.283,0,2.473-.094,3.047.436.6.554.314,1.263-.338,4.608H13.868c.627-3.235.746-3.5.517-3.748s-.721-.187-1.931-.187l-.766,3.936H10.2L11.534,89.7Zm9.041,4.31c-.326,1.674-1.5,1.479-2.856,1.479l.558-2.876C19.833,92.609,20.876,92.442,20.574,94.007ZM15.653,98.4h1.5l.354-1.825c1.76,0,2.734.1,3.675-.778,1.063-.978,1.34-2.717.583-3.589a2.384,2.384,0,0,0-1.894-.68h-2.88Z" transform="translate(2.963 -78.297)"/></g></svg>