<svg xmlns="http://www.w3.org/2000/svg" xmlns:xlink="http://www.w3.org/1999/xlink" width="32" height="32" viewBox="0 0 32 32"><defs><style>.a{clip-path:url(#b);}</style><clipPath id="b"><rect width="32" height="32"/></clipPath></defs><g id="a" class="a"><path d="M12.364.09a10.968,10.968,0,1,0,9.48,12.275A10.969,10.969,0,0,0,12.364.09Zm2.257,6.844a.753.753,0,0,0-.54.228l-4.07,4.067L9.73,10.95l-.586-.589c4.01-4,4.735-4.039,5.477-3.428ZM10.18,11.375l4.056-4.059a.567.567,0,1,1,.775.824l-4.295,3.77Zm.3.636-1.007.217a.058.058,0,0,1-.06-.032.055.055,0,0,1,.011-.065l.589-.589ZM7.916,11.59l1.075-1.071.8.8-1.811.389a.069.069,0,0,1-.079-.036A.07.07,0,0,1,7.916,11.59ZM4.585,17.128a.071.071,0,0,1-.065-.075.084.084,0,0,1,.022-.043h0l.864-.864,1.118,1.118ZM6.8,15.978a.215.215,0,0,0-.107.236L6.88,17a.114.114,0,0,1-.193.107h0L5.563,15.989,9,12.554l1.664-.36.8.8A22.184,22.184,0,0,1,6.8,15.978Zm4.825-3.131-.768-.768,4.295-3.77a1.048,1.048,0,0,0,.107-.114C15.129,9.423,13.407,11.158,11.626,12.847Zm3.345-5.906h0a1.666,1.666,0,0,1,2.246-2.457l-1.47,1.475a.11.11,0,0,0,0,.156l1.139,1.14a1.658,1.658,0,0,1-1.911-.315Zm2.353,0a1.465,1.465,0,0,1-.246.2l-1.1-1.1,1.4-1.4A1.665,1.665,0,0,1,17.324,6.941Zm-.09-1.41a.13.13,0,0,0-.049.143.376.376,0,0,1-.047.411.127.127,0,0,0,.021.182.136.136,0,0,0,.075.025.117.117,0,0,0,.1-.043.638.638,0,0,0,.082-.689A.127.127,0,0,0,17.235,5.531Z" transform="translate(5.031 5.031)"/></g></svg>