<svg xmlns="http://www.w3.org/2000/svg" xmlns:xlink="http://www.w3.org/1999/xlink" width="32" height="32" viewBox="0 0 32 32"><defs><style>.a{clip-path:url(#b);}</style><clipPath id="b"><rect width="32" height="32"/></clipPath></defs><g id="a" class="a"><g transform="translate(4.5 4.5)"><path d="M10.293,9.466c0,1.231-.873,1.933-2.307,1.933a3.869,3.869,0,0,1-.935-.078V7.768a5.293,5.293,0,0,1,1.106-.094C9.482,7.674,10.293,8.3,10.293,9.466ZM22.5,4.167V18.833A3.677,3.677,0,0,1,18.833,22.5H4.167A3.678,3.678,0,0,1,.5,18.833V4.167A3.677,3.677,0,0,1,4.167.5H18.833A3.677,3.677,0,0,1,22.5,4.167ZM12.209,9.388a2.967,2.967,0,0,0-1.028-2.322,4.753,4.753,0,0,0-3.1-.857,16.616,16.616,0,0,0-2.93.218V16.791h1.9V12.832a5.389,5.389,0,0,0,.935.062,4.636,4.636,0,0,0,3.32-1.122A3.184,3.184,0,0,0,12.209,9.388Zm5.641-.312A2.009,2.009,0,0,0,17.4,9.03a2.263,2.263,0,0,0-2.073,1.621h-.062L15.2,9.2H13.534c.047.686.062,1.418.062,2.447v5.143h1.917V12.863a3.293,3.293,0,0,1,.062-.592,1.69,1.69,0,0,1,1.714-1.449,2.669,2.669,0,0,1,.561.062V9.077Z"/></g></g></svg>