<svg xmlns="http://www.w3.org/2000/svg" xmlns:xlink="http://www.w3.org/1999/xlink" width="32" height="32" viewBox="0 0 32 32"><defs><style>.a{clip-path:url(#b);}</style><clipPath id="b"><rect width="32" height="32"/></clipPath></defs><g id="a" class="a"><path d="M12.559,31.1C12.547,31.126,12.534,31.146,12.559,31.1Zm10.363-3.619a5.456,5.456,0,0,0-2.413.562,5.123,5.123,0,0,1-.541-1.252,3.342,3.342,0,0,1-.046-1.052,8.863,8.863,0,0,1,.316-1.131c0-.046-.058-.275-.595-.279s-1,.1-1.052.245a5.109,5.109,0,0,0-.22.795A19.275,19.275,0,0,1,16.746,28.5a3.23,3.23,0,0,1-.37-.915,3.342,3.342,0,0,1-.046-1.052,8.863,8.863,0,0,1,.316-1.131c0-.046-.058-.275-.594-.279s-1,.1-1.052.245-.112.474-.22.795-1.41,3.215-1.75,3.968c-.175.383-.324.691-.433.9-.017.033-.029.054-.037.071.012-.021.021-.042.021-.033-.092.179-.146.279-.146.279v0c-.071.133-.15.254-.187.254a1.726,1.726,0,0,1,.012-.828c.2-1.007.657-2.571.653-2.625,0-.029.087-.3-.3-.445a.49.49,0,0,0-.549.092c-.033,0-.058.083-.058.083s.42-1.764-.807-1.764a3.661,3.661,0,0,0-2.354,1.6c-.329.179-1.04.566-1.789.978l-.861.474c-.021-.021-.037-.042-.058-.062C4.644,27.519,1.9,26.4,2.012,24.262c.042-.778.312-2.82,5.286-5.3,4.077-2.03,7.336-1.473,7.9-.233C16,20.5,13.452,23.788,9.219,24.262a3.187,3.187,0,0,1-2.674-.678c-.22-.245-.254-.258-.337-.212-.137.075-.05.291,0,.42a2.506,2.506,0,0,0,1.53,1.2A8.1,8.1,0,0,0,12.7,24.5c2.57-.99,4.57-3.748,3.984-6.057-.6-2.346-4.488-3.116-8.166-1.809a18.5,18.5,0,0,0-6.267,3.594C.221,22.128-.1,23.779.03,24.47.5,26.92,3.88,28.517,5.232,29.7l-.187.1c-.678.337-3.252,1.685-3.9,3.107-.728,1.614.121,2.77.678,2.928A4.153,4.153,0,0,0,6.3,34.025a4.5,4.5,0,0,0,.4-4.139c0-.012-.012-.021-.017-.033.175-.1.354-.208.532-.312.345-.2.682-.391.977-.553a6.461,6.461,0,0,0-.349,1.772,3.682,3.682,0,0,0,.795,2.567.873.873,0,0,0,.64.208c.574,0,.832-.474,1.119-1.04.354-.691.666-1.493.666-1.493s-.391,2.171.678,2.171c.391,0,.782-.5.957-.761v0s.008-.017.029-.05c.042-.062.062-.1.062-.1v-.012c.158-.27.5-.89,1.023-1.913.674-1.323,1.318-2.974,1.318-2.974a8.371,8.371,0,0,0,.258,1.073,10.048,10.048,0,0,0,.557,1.248c-.158.216-.254.341-.254.341a.013.013,0,0,0,0,.008c-.125.166-.266.345-.412.52a14.682,14.682,0,0,0-1.248,1.564.425.425,0,0,0,.116.57,1.011,1.011,0,0,0,.653.1,2.885,2.885,0,0,0,.978-.225,3.419,3.419,0,0,0,.84-.441,1.878,1.878,0,0,0,.807-1.656,3.445,3.445,0,0,0-.3-1.173c.046-.067.1-.137.141-.208a22.114,22.114,0,0,0,1.46-2.522,8.371,8.371,0,0,0,.258,1.073,7.337,7.337,0,0,0,.474,1.069,4.573,4.573,0,0,0-1.418,1.834c-.308.886-.067,1.285.387,1.377a1.4,1.4,0,0,0,.711-.146,3.305,3.305,0,0,0,.9-.462,2.01,2.01,0,0,0,.99-1.647A3.1,3.1,0,0,0,20.8,28.7a5.077,5.077,0,0,1,2.583-.3c2.316.27,2.77,1.718,2.682,2.321a1.538,1.538,0,0,1-.736,1.04c-.162.1-.212.137-.2.212.021.108.1.1.233.079a1.807,1.807,0,0,0,1.26-1.61c.067-1.414-1.293-2.97-3.7-2.958ZM5.07,33.5c-.765.836-1.838,1.152-2.3.886-.5-.288-.3-1.518.644-2.409a12.325,12.325,0,0,1,1.8-1.348c.112-.067.275-.166.474-.287.033-.021.05-.029.05-.029.037-.025.079-.046.121-.071A3.32,3.32,0,0,1,5.07,33.5Zm5.589-3.8c-.266.653-.827,2.317-1.168,2.23-.291-.075-.47-1.344-.058-2.592a5.737,5.737,0,0,1,.911-1.668c.42-.47.881-.62.99-.433a8.426,8.426,0,0,1-.674,2.463Zm4.617,2.2c-.112.058-.216.1-.266.067s.046-.1.046-.1.578-.62.807-.9c.133-.166.287-.362.453-.578,0,.021,0,.042,0,.067A1.929,1.929,0,0,1,15.275,31.9Zm3.56-.811c-.083-.058-.071-.254.208-.861a3.233,3.233,0,0,1,.79-1.019,1.505,1.505,0,0,1,.079.449,1.467,1.467,0,0,1-1.077,1.431Z" transform="translate(2.996 -10.004)"/></g></svg>