<svg xmlns="http://www.w3.org/2000/svg" xmlns:xlink="http://www.w3.org/1999/xlink" width="32" height="32" viewBox="0 0 32 32"><defs><style>.a{clip-path:url(#b);}</style><clipPath id="b"><rect width="32" height="32"/></clipPath></defs><g id="a" class="a"><path d="M0,11V22H22V0H0Zm17.728-.877a2.766,2.766,0,0,1,1.378.795,3.59,3.59,0,0,1,.527.705c.007.029-.949.67-1.529,1.028-.021.014-.107-.075-.2-.215a1.252,1.252,0,0,0-1.035-.623c-.666-.043-1.1.3-1.092.888a.866.866,0,0,0,.093.412c.147.3.423.487,1.275.856a5.479,5.479,0,0,1,2.667,1.758,3.206,3.206,0,0,1,.258,2.685,2.953,2.953,0,0,1-2.435,1.74,6.59,6.59,0,0,1-1.676-.018,4.038,4.038,0,0,1-2.238-1.167,3.82,3.82,0,0,1-.573-.845,1.439,1.439,0,0,1,.2-.129l.817-.473.634-.368.133.2a2.963,2.963,0,0,0,.835.8,2.039,2.039,0,0,0,2.142-.107.952.952,0,0,0,.122-1.218c-.172-.243-.519-.451-1.511-.881a5.413,5.413,0,0,1-2.069-1.275,2.912,2.912,0,0,1-.6-1.1,4.5,4.5,0,0,1-.039-1.4,2.676,2.676,0,0,1,2.256-2.087,5.541,5.541,0,0,1,1.669.047Zm-5.163.921.007.9H9.707v8.139H7.68V11.942H4.819v-.881a8.7,8.7,0,0,1,.025-.91c.011-.014,1.751-.021,3.864-.018l3.846.011Z" transform="translate(5 5)"/></g></svg>