<svg xmlns="http://www.w3.org/2000/svg" xmlns:xlink="http://www.w3.org/1999/xlink" width="20" height="20" viewBox="0 0 20 20"><defs><style>.a{clip-path:url(#b);}</style><clipPath id="b"><rect width="20" height="20"/></clipPath></defs><g id="a" class="a"><path d="M.644,2.055h-6.5V1.3a7.117,7.117,0,0,0,1.068-.19q.614-.151.614-.375A1.375,1.375,0,0,0-4.187.557,1.361,1.361,0,0,0-4.258.294l-1.017-2.86H-9.4q-.143.4-.315.934t-.3.953A5.606,5.606,0,0,0-10.2.109a3.326,3.326,0,0,0-.029.341q0,.311.408.53A3.928,3.928,0,0,0-8.462,1.3v.759h-4.894V1.3a3.947,3.947,0,0,0,.626-.1,1.549,1.549,0,0,0,.551-.229,2.255,2.255,0,0,0,.584-.574,3.188,3.188,0,0,0,.4-.808L-9.24-5.893q.98-2.744,2.165-6.051h1.682q1.648,4.689,2.581,7.413T-1.223-.017a2.336,2.336,0,0,0,.277.53A1.882,1.882,0,0,0-.466.966,1.754,1.754,0,0,0,.081,1.2a3.434,3.434,0,0,0,.563.1ZM-5.62-3.529l-1.732-5-1.707,5Z" transform="translate(16.356 14.945)"/></g></svg>