<svg xmlns="http://www.w3.org/2000/svg" xmlns:xlink="http://www.w3.org/1999/xlink" width="32" height="32" viewBox="0 0 32 32"><defs><style>.a{clip-path:url(#b);}</style><clipPath id="b"><rect width="32" height="32"/></clipPath></defs><g id="a" class="a"><path d="M19.495,8A11.495,11.495,0,1,0,30.989,19.495,11.508,11.508,0,0,0,19.495,8ZM9.159,19.495a10.264,10.264,0,0,1,.895-4.2L14.985,28.8A10.344,10.344,0,0,1,9.159,19.495ZM19.495,29.831a10.3,10.3,0,0,1-2.92-.422l3.1-9.01,3.175,8.7a1.4,1.4,0,0,0,.074.144A10.347,10.347,0,0,1,19.495,29.831Zm1.423-15.179c.621-.032,1.182-.1,1.182-.1a.428.428,0,0,0-.065-.853s-1.673.13-2.753.13c-1.015,0-2.721-.13-2.721-.13a.428.428,0,0,0-.065.853s.528.065,1.085.1l1.608,4.412-2.262,6.781L13.163,14.651c.621-.032,1.182-.1,1.182-.1a.428.428,0,0,0-.065-.853s-1.673.13-2.753.13c-.195,0-.422,0-.667-.014A10.336,10.336,0,0,1,26.475,11.87a1.309,1.309,0,0,0-.134-.009A1.789,1.789,0,0,0,24.607,13.7a4.841,4.841,0,0,0,1.015,2.424,5.424,5.424,0,0,1,.853,2.85,12.41,12.41,0,0,1-.788,3.342l-1.029,3.444-3.74-11.105ZM24.69,28.426,27.847,19.3a9.776,9.776,0,0,0,.788-3.7,7.606,7.606,0,0,0-.07-1.061A10.336,10.336,0,0,1,24.69,28.426Z" transform="translate(-3.495 -3.495)"/></g></svg>