<svg xmlns="http://www.w3.org/2000/svg" xmlns:xlink="http://www.w3.org/1999/xlink" width="100" height="100" viewBox="0 0 100 100"><defs><style>.a{clip-path:url(#b);}</style><clipPath id="b"><rect width="100" height="100"/></clipPath></defs><g id="a" class="a"><path d="M0,28.7V26.852H7.408V0H42.593V26.852H50V28.7Zm40.741-1.852v-25H9.259v25h1.852V7.408H38.889V26.852Zm-3.7,0V9.259H12.963V26.852H20.37V20.37H35.185v6.482Zm-3.7,0V22.222H22.222v4.629ZM16.667,5.556V3.7H33.333V5.556Z" transform="translate(0 21.297)"/><path d="M0,37.963V36.111H7.408V19.444H0L25,0l9.72,7.56L34.7,4.208h8.31L43,14l7,5.445H42.593V36.111H50v1.852Zm40.741-1.852V19.444H9.259V36.111h3.7V22.222H21.3V36.111Zm-21.3,0V24.074H14.815V36.111ZM44.6,17.593,25,2.346,5.4,17.593ZM36.582,8.983l4.567,3.543,0-6.466H36.561ZM25,30.556V22.222H37.037v8.333ZM26.852,28.7h8.333V24.074H26.852Z" transform="translate(50 12.037)"/><path d="M0,43.519V41.667H7.408V17.593H21.3V0h21.3V41.667H50v1.853Zm40.741-1.853V1.852H23.148V17.593H28.7V41.667h3.7V34.259h6.482v7.407Zm-3.7,0V36.112H34.259v5.555Zm-10.185,0V19.445H9.259V41.667h1.852V34.259h6.482v7.407Zm-11.111,0V36.112H12.963v5.555Zm-4.63-10.185V22.222h6.482v9.259Zm1.852-1.852h2.778V24.074H12.963Zm19.444,0V20.371h6.482V29.63Zm1.852-1.852h2.777V22.222H34.259ZM32.407,15.741V6.482h6.482v9.259Zm1.852-1.852h2.777V8.333H34.259Z" transform="translate(50 56.481)"/><path d="M0,35.62V33.768H11.111V29.861L7.57,28.977,6.342,24.068l5.694-3.417,5.695,3.417L16.5,28.977l-3.541.885v3.907H27.778v-6.74l-8.21-2.736-2.05-10.251L30.555,0,43.593,14.041l-2.05,10.251-8.21,2.737v6.74H50V35.62Zm31.482-1.852V27.287H29.63v6.482ZM8.472,24.95l.625,2.5,2.941.735,2.94-.735.625-2.5-3.566-2.139Zm23.786.485,7.681-2.56,1.653-8.268L30.555,2.722,19.519,14.607l1.653,8.268,7.682,2.56Z" transform="translate(0 64.38)"/></g></svg>