<svg xmlns="http://www.w3.org/2000/svg" xmlns:xlink="http://www.w3.org/1999/xlink" width="190" height="50" viewBox="0 0 190 50"><defs><style>.a{clip-path:url(#b);}</style><clipPath id="b"><rect width="190" height="50"/></clipPath></defs><g id="a" class="a"><path d="M0,36.274V12.094L20.943,0,41.886,12.094v24.18L20.943,48.369ZM33.918,17.763V31.676l-12.05,6.957V45.7L40.036,35.207V14.231ZM1.849,35.207,20.018,45.7V38.633L7.968,31.676V17.763L1.849,14.23ZM21.867,24.719V36.5l10.2-5.89V18.83ZM9.818,30.608l10.2,5.89V24.719L9.818,18.83Zm.925-13.38,10.2,5.89,10.2-5.89-10.2-5.889ZM32.993,16.16l6.118-3.531L20.943,2.135,2.775,12.629,8.892,16.16,20.943,9.2Zm87.128,11.422v6.934H117.66V13.547h2.461V25.988l5.927-5.452h3.132L122.5,26.687l6.906,6.207v3.019Zm43.974-.056c0-4.055,2.74-7.269,6.822-7.269s6.822,3.215,6.822,7.269-2.768,7.269-6.822,7.269S164.1,31.552,164.1,27.526Zm2.433,0c0,2.824,1.649,5.06,4.389,5.06s4.39-2.236,4.39-5.06-1.706-5.089-4.39-5.089S166.528,24.7,166.528,27.526ZM150.759,32.5l-.112,2.013h-2.209V13.547h2.433V22.41a5.8,5.8,0,0,1,4.557-2.153c3.942,0,6.43,3.215,6.43,7.269s-2.488,7.269-6.43,7.269A5.735,5.735,0,0,1,150.759,32.5Zm.112-6.486v3.019a4.411,4.411,0,0,0,4.166,3.55c2.74,0,4.417-2.236,4.417-5.06s-1.678-5.089-4.417-5.089A4.438,4.438,0,0,0,150.87,26.017Zm-18.984,3.215V20.536h2.46V28.98a3.61,3.61,0,0,0,3.663,3.606,3.682,3.682,0,0,0,3.747-3.606V20.536h2.488V34.516H141.98l-.14-1.873a5.62,5.62,0,0,1-4.446,2.152A5.5,5.5,0,0,1,131.887,29.231Zm-30.778,0V20.536h2.46V28.98a3.61,3.61,0,0,0,3.663,3.606,3.682,3.682,0,0,0,3.747-3.606V20.536h2.488V34.516H111.2l-.14-1.873a5.62,5.62,0,0,1-4.446,2.152A5.5,5.5,0,0,1,101.109,29.231ZM84.222,27.526c0-4.055,2.74-7.269,6.822-7.269s6.822,3.215,6.822,7.269-2.768,7.269-6.822,7.269S84.222,31.552,84.222,27.526Zm2.433,0c0,2.824,1.649,5.06,4.39,5.06s4.389-2.236,4.389-5.06-1.705-5.089-4.389-5.089S86.655,24.7,86.655,27.526Zm-8.024,6.99V25.793A3.272,3.272,0,0,0,75.3,22.437a3.515,3.515,0,0,0-3.494,3.5v8.583H69.321V25.793a3.272,3.272,0,0,0-3.327-3.355,3.539,3.539,0,0,0-3.523,3.5v8.583h-2.46V20.536h2.264l.112,1.705a5.385,5.385,0,0,1,4.25-1.985A4.968,4.968,0,0,1,71.11,22.8a5.732,5.732,0,0,1,4.809-2.544,5.052,5.052,0,0,1,5.2,5.256v9Zm-25.778,0V20.536h2.461V34.516ZM178.828,19.594a2.367,2.367,0,1,1,2.367,2.368A2.371,2.371,0,0,1,178.828,19.594Zm.484,0a1.882,1.882,0,1,0,1.882-1.882A1.883,1.883,0,0,0,179.313,19.594Zm2.172.993-.434-.843h-.2v.843h-.4V18.6h.821a.585.585,0,0,1,.587.592.53.53,0,0,1-.414.522l.479.866,0,0Zm-.634-1.146h.405a.238.238,0,0,0,.242-.243v0a.237.237,0,0,0-.242-.242h-.405Zm-128.389-3.1a1.653,1.653,0,0,1,1.649-1.65,1.63,1.63,0,0,1,1.622,1.65,1.6,1.6,0,0,1-1.622,1.593A1.641,1.641,0,0,1,52.462,16.343Z" transform="translate(3 1)"/></g></svg>