<svg xmlns="http://www.w3.org/2000/svg" xmlns:xlink="http://www.w3.org/1999/xlink" width="40" height="40" viewBox="0 0 40 40"><defs><style>.a{clip-path:url(#b);}</style><clipPath id="b"><rect width="40" height="40"/></clipPath></defs><g id="a" class="a"><path d="M0,28.5V27.015H8.889V23.889l-2.833-.708-.982-3.927,4.555-2.733,4.556,2.733L13.2,23.181l-2.833.708v3.126H22.222V21.622l-6.568-2.189-1.64-8.2L24.444,0,34.875,11.233l-1.64,8.2-6.568,2.189v5.392H40V28.5Zm25.185-1.481V21.829H23.7v5.185ZM6.777,19.96l.5,2,2.353.588,2.352-.588.5-2L9.629,18.249Zm19.029.388L31.951,18.3l1.323-6.615L24.444,2.177l-8.829,9.508L16.938,18.3l6.145,2.048Z" transform="translate(0 11.504)"/></g></svg>