<svg xmlns="http://www.w3.org/2000/svg" xmlns:xlink="http://www.w3.org/1999/xlink" width="32" height="32" viewBox="0 0 32 32"><defs><style>.a{clip-path:url(#b);}.b{fill:#FFFFFF;}</style><clipPath id="b"><rect width="32" height="32"/></clipPath></defs><g id="a" class="a"><path class="b" d="M21.038,39.316q-.407-.136-.815-.257c.045-.186.086-.372.126-.558.619-3,.211-5.408-1.162-6.2-1.323-.76-3.481.03-5.664,1.932-.216.186-.428.382-.629.579-.136-.131-.277-.262-.418-.387-2.289-2.032-4.583-2.888-5.956-2.088C5.2,33.1,4.809,35.367,5.363,38.2c.055.282.116.558.186.84-.322.091-.639.191-.936.3C1.927,40.272,0,41.741,0,43.26c0,1.57,2.052,3.144,4.844,4.1.226.075.453.151.684.216-.075.3-.141.6-.2.905-.528,2.792-.116,5.005,1.2,5.765,1.358.785,3.642-.02,5.866-1.967.176-.156.352-.317.528-.488.221.216.453.423.684.624,2.153,1.851,4.281,2.6,5.594,1.841,1.358-.785,1.8-3.164,1.227-6.062q-.068-.332-.151-.679c.161-.045.317-.1.473-.146,2.9-.961,5.005-2.515,5.005-4.11C25.756,41.736,23.774,40.257,21.038,39.316Zm-6.806-4.271c1.871-1.63,3.617-2.269,4.412-1.811.85.488,1.177,2.46.644,5.051-.035.171-.07.337-.116.5a25.752,25.752,0,0,0-3.386-.533,25.417,25.417,0,0,0-2.143-2.671C13.839,35.4,14.03,35.221,14.231,35.045ZM8.411,45.871c.257.438.518.875.795,1.3A22.779,22.779,0,0,1,6.872,46.8a23.5,23.5,0,0,1,.82-2.239c.231.443.468.88.719,1.313ZM6.887,39.819c.724-.161,1.494-.292,2.294-.392-.267.418-.528.845-.775,1.278s-.488.865-.714,1.308c-.317-.75-.584-1.484-.8-2.193Zm1.378,3.466c.332-.694.694-1.373,1.077-2.042s.795-1.318,1.227-1.957c.755-.055,1.524-.086,2.309-.086s1.559.03,2.309.086q.641.951,1.222,1.947T17.5,43.265Q17,44.306,16.415,45.318c-.382.669-.79,1.318-1.217,1.962-.75.055-1.529.08-2.319.08s-1.554-.025-2.294-.07q-.656-.958-1.238-1.962c-.387-.669-.745-1.348-1.082-2.042Zm9.085,2.576c.257-.443.5-.89.734-1.343a23.351,23.351,0,0,1,.85,2.229,22.1,22.1,0,0,1-2.364.4C16.842,46.726,17.1,46.294,17.35,45.861Zm.724-3.848c-.236-.443-.478-.885-.729-1.318s-.5-.85-.77-1.268a23.148,23.148,0,0,1,2.309.4A22.262,22.262,0,0,1,18.075,42.013Zm-5.186-5.659a22.089,22.089,0,0,1,1.489,1.8c-1-.045-2-.045-2.993,0C11.877,37.505,12.385,36.9,12.888,36.353ZM7.053,33.269c.845-.493,2.722.211,4.7,1.962.126.111.252.231.382.352a25.558,25.558,0,0,0-2.158,2.671,26.518,26.518,0,0,0-3.381.523c-.065-.257-.121-.518-.176-.78-.473-2.435-.161-4.271.634-4.729ZM5.82,46.53c-.211-.06-.418-.126-.624-.2a10.26,10.26,0,0,1-3.169-1.57,2.257,2.257,0,0,1-.946-1.5c0-.921,1.59-2.1,3.884-2.9.287-.1.579-.191.87-.277a26.749,26.749,0,0,0,1.232,3.2A27.5,27.5,0,0,0,5.82,46.53Zm5.866,4.93a9.207,9.207,0,0,1-2.837,1.776,2.227,2.227,0,0,1-1.776.065c-.8-.463-1.132-2.239-.679-4.628.055-.282.116-.563.186-.84A25.167,25.167,0,0,0,10,48.326a26.548,26.548,0,0,0,2.173,2.686c-.161.156-.322.307-.483.448Zm1.232-1.222c-.513-.553-1.026-1.167-1.524-1.826.483.02.981.03,1.484.03.518,0,1.026-.01,1.529-.035A21.7,21.7,0,0,1,12.918,50.237Zm6.575,1.509a2.236,2.236,0,0,1-.83,1.575c-.8.463-2.505-.141-4.346-1.72-.211-.181-.423-.377-.639-.579a24.885,24.885,0,0,0,2.123-2.7,24.8,24.8,0,0,0,3.431-.528c.05.206.1.413.136.614A9.17,9.17,0,0,1,19.493,51.747Zm.916-5.408c-.141.045-.282.091-.428.131A25.555,25.555,0,0,0,18.7,43.26,25.427,25.427,0,0,0,19.931,40.1c.262.075.513.156.755.236,2.344.8,3.989,2,3.989,2.918C24.675,44.236,22.919,45.509,20.409,46.339Zm-7.531-.755a2.3,2.3,0,1,0-2.3-2.3,2.3,2.3,0,0,0,2.3,2.3Z" transform="translate(3 -27.012)"/></g></svg>