<svg xmlns="http://www.w3.org/2000/svg" xmlns:xlink="http://www.w3.org/1999/xlink" width="26" height="26" viewBox="0 0 26 26"><defs><style>.a{clip-path:url(#b);}.b{fill:#17182b;}</style><clipPath id="b"><rect width="26" height="26"/></clipPath></defs><g id="a" class="a"><path class="b" d="M8.362,27.291c0,.1-.116.178-.262.178-.166.015-.282-.064-.282-.178s.116-.178.262-.178S8.362,27.177,8.362,27.291Zm-1.568-.223c-.035.1.066.213.217.243a.238.238,0,0,0,.313-.1c.03-.1-.066-.213-.217-.258A.261.261,0,0,0,6.794,27.068Zm2.228-.084c-.146.035-.247.129-.232.243s.146.163.3.129.247-.129.232-.228S9.168,26.969,9.022,26.984ZM12.339,8A11.985,11.985,0,0,0,0,20.088a12.438,12.438,0,0,0,8.543,11.85c.645.114.872-.277.872-.6s-.015-2-.015-3.042c0,0-3.528.743-4.269-1.476,0,0-.575-1.442-1.4-1.813,0,0-1.154-.778.081-.763a2.669,2.669,0,0,1,1.946,1.278A2.691,2.691,0,0,0,9.43,26.558a2.736,2.736,0,0,1,.806-1.67c-2.818-.307-5.66-.708-5.66-5.474A3.722,3.722,0,0,1,5.766,16.5,4.606,4.606,0,0,1,5.9,13.132c1.053-.322,3.478,1.338,3.478,1.338a12.107,12.107,0,0,1,6.331,0s2.424-1.665,3.478-1.338a4.6,4.6,0,0,1,.131,3.364,3.822,3.822,0,0,1,1.3,2.918c0,4.781-2.969,5.162-5.786,5.474a2.9,2.9,0,0,1,.857,2.3c0,1.67-.015,3.735-.015,4.142,0,.322.232.713.872.6A12.321,12.321,0,0,0,25,20.088C25,13.217,19.33,8,12.339,8ZM4.9,25.087c-.066.05-.05.163.035.258s.2.114.262.05.05-.163-.035-.258S4.965,25.022,4.9,25.087Zm-.544-.4c-.035.064.015.144.116.193a.152.152,0,0,0,.217-.035c.035-.064-.015-.144-.116-.193C4.471,24.621,4.39,24.636,4.355,24.685Zm1.633,1.764c-.081.064-.05.213.066.307.116.114.262.129.328.05s.035-.213-.066-.307C6.2,26.385,6.053,26.37,5.988,26.449Zm-.575-.728c-.081.05-.081.178,0,.292s.217.163.282.114a.223.223,0,0,0,0-.307C5.625,25.706,5.494,25.656,5.413,25.721Z" transform="translate(0.5 -6.979)"/></g></svg>