<svg xmlns="http://www.w3.org/2000/svg" xmlns:xlink="http://www.w3.org/1999/xlink" width="32" height="32" viewBox="0 0 32 32">
	<path d="M1161.176,1288.809a5.958,5.958,0,0,1,.674.488c-2.262.085-4.156.221-6.057-1.024a6.036,6.036,0,0,1,4.4-10.953c2.228.384,3.165,1.646,4.25,2.7.3.294.569.571.866.87.225.227.664.536.691,1.055a1.025,1.025,0,0,1-.71,1.029,1.141,1.141,0,0,1-1.22-.44c-.595-.594-1.149-1.153-1.733-1.738a4.371,4.371,0,0,0-2.092-1.381,4,4,0,1,0-.953,7.844c.364,0,.369.14.569.332.154.151.27.272.422.424Zm12.1-4.339a6.837,6.837,0,0,1-1.162,2.1,7.255,7.255,0,0,1-6.9,2.634c-2.753-.453-4.089-2.153-5.816-3.884-.346-.346-1.455-1.343-1.562-1.756a1.01,1.01,0,0,1,.979-1.314c.56.007.993.584,1.443,1.04l2.485,2.481a5.2,5.2,0,0,0,3.46,1.49,5.274,5.274,0,1,0-1.689-10.188c-.317.122-.585.3-.855.4-.157-.083-.29-.2-.44-.3a8.923,8.923,0,0,0-1.457-.763c.1-.315,1.577-1.062,1.822-1.169a7.4,7.4,0,0,1,7.056.769,7.288,7.288,0,0,1,3.081,5.891A7.2,7.2,0,0,1,1173.273,1284.471Zm-21.324-.054a7.3,7.3,0,0,0,3.045,4.859c2.151,1.461,3.629,1.3,6.6,1.3h3.957c3.235,0,4.924-.569,7.147-2.739l.807-1.01c.078-.087.027-.036.1-.087a3.652,3.652,0,0,1,.35-.638,8.434,8.434,0,0,0,.832-2.2,8.59,8.59,0,0,0-12.225-9.6,8.308,8.308,0,0,0-2.287,1.7c-.319.009-.705-.058-1.057-.06a7.306,7.306,0,0,0-6.911,4.776A7.423,7.423,0,0,0,1151.949,1284.416Z" transform="translate(-1147.351 -1266.387)" />
</svg>
