<svg xmlns="http://www.w3.org/2000/svg" xmlns:xlink="http://www.w3.org/1999/xlink" width="32" height="32" viewBox="0 0 32 32"><defs><style>.a{clip-path:url(#b);}</style><clipPath id="b"><rect width="32" height="32"/></clipPath></defs><g id="a" class="a"><path d="M17.207,10.638a1.611,1.611,0,0,1,.251.046l-.011,0v3.966a1.427,1.427,0,0,1-.315.058h0q-.189.015-.378.014h-.011a2.391,2.391,0,0,1-.755-.121L16,14.6a1.548,1.548,0,0,1-.61-.363h0a1.785,1.785,0,0,1-.4-.627l0-.012a2.513,2.513,0,0,1-.153-.871c0-.021,0-.042,0-.062v0c0-.038,0-.083,0-.129a1.871,1.871,0,0,1,1.054-1.684l.011-.005a2.217,2.217,0,0,1,1-.233h.021c.1,0,.2.007.3.016Zm2.217,5.246A6.964,6.964,0,0,1,18,16.313l-.045.007a7.545,7.545,0,0,1-1.395.131h-.068a4.5,4.5,0,0,1-1.9-.418l.028.012a3.108,3.108,0,0,1-1.351-1.214l-.008-.014a3.877,3.877,0,0,1-.5-1.912c0-.051,0-.1,0-.151v-.023a3.778,3.778,0,0,1,.5-1.892l-.01.018a3.655,3.655,0,0,1,1.421-1.385l.02-.009a4.579,4.579,0,0,1,2.148-.527c.113,0,.226,0,.337.012h-.015q.116.007.276.022V6.106c0-.068.029-.1.087-.1h1.841a.077.077,0,0,1,.077.066h0a.055.055,0,0,1,0,.011.062.062,0,0,1,0,.012h0v8.589c0,.165.007.344.022.538s.027.368.036.523v.009a.147.147,0,0,1-.086.134h0Zm-6.932.379H10.428c-.144,0-.247-.006-.3-.1q-.291-.567-.581-1.127-.3-.576-.618-1.141-.33-.585-.647-1.178H8.263q-.293.585-.6,1.163t-.618,1.156q-.3.574-.624,1.141c-.04.087-.108.1-.205.1H4.224c-.039,0-.061.015-.065-.023a.2.2,0,0,1,0-.022.148.148,0,0,1,.024-.081h0l2.8-4.607L4.253,6.92c-.03-.039-.035-.07-.014-.1a.1.1,0,0,1,.079-.036H6.388a.333.333,0,0,1,.12.022h0a.26.26,0,0,1,.086.079h0q.261.582.581,1.163T7.82,9.2q.326.568.6,1.148h.014q.288-.6.589-1.163t.61-1.141q.313-.576.6-1.141a.218.218,0,0,1,.058-.1h0a.211.211,0,0,1,.1-.022h1.923l.02,0a.083.083,0,0,1,.083.083.082.082,0,0,1-.03.064h0v0L9.687,11.4l2.892,4.737a.144.144,0,0,1,.019.073.131.131,0,0,1-.005.038h0c-.009.033-.043.011-.1.021ZM18,1.379H5.665A4.661,4.661,0,0,0,1,6.04H1v11.8A4.661,4.661,0,0,0,5.665,22.5H18a4.661,4.661,0,0,0,4.661-4.661h0V6.04h0A4.661,4.661,0,0,0,18,1.379h0Z" transform="translate(4.166 4.062)"/></g></svg>