<svg xmlns="http://www.w3.org/2000/svg" xmlns:xlink="http://www.w3.org/1999/xlink" width="32" height="32" viewBox="0 0 32 32"><defs><style>.a{clip-path:url(#b);}</style><clipPath id="b"><rect width="32" height="32"/></clipPath></defs><g id="a" class="a"><g transform="translate(4.5 4.5)"><path d="M8.111,9.661l.826,2.587h-2.7l.81-2.587c.187-.623.343-1.356.5-1.964h.031C7.737,8.305,7.908,9.022,8.111,9.661Zm8.462.561a1.876,1.876,0,0,0-1.761,1.854h3.335A1.631,1.631,0,0,0,16.572,10.222ZM22.5,4.167V18.833A3.677,3.677,0,0,1,18.833,22.5H4.167A3.678,3.678,0,0,1,.5,18.833V4.167A3.677,3.677,0,0,1,4.167.5H18.833A3.677,3.677,0,0,1,22.5,4.167ZM12.272,16.674,8.859,6.17H6.412l-3.366,10.5H5.025l.9-2.977H9.264l.951,2.977Zm7.682-4.068c0-1.667-.811-3.694-3.273-3.694-2.431,0-3.709,1.979-3.709,4.083a3.59,3.59,0,0,0,3.912,3.834,7.147,7.147,0,0,0,2.649-.468l-.281-1.325a5.708,5.708,0,0,1-2.1.343,2.062,2.062,0,0,1-2.338-1.964h5.081A4.717,4.717,0,0,0,19.954,12.606Z"/></g></g></svg>