<svg xmlns="http://www.w3.org/2000/svg" xmlns:xlink="http://www.w3.org/1999/xlink" width="40" height="40" viewBox="0 0 40 40"><defs><style>.a{clip-path:url(#b);}</style><clipPath id="b"><rect width="40" height="40"/></clipPath></defs><g id="a" class="a"><path d="M0,34.815V33.333H5.926V14.074H17.037V0H34.074V33.333H40v1.482Zm32.593-1.482V1.481H18.519V14.074h4.444V33.333h2.963V27.407h5.185v5.926Zm-2.963,0V28.889H27.407v4.444Zm-8.148,0V15.556H7.407V33.333H8.889V27.407h5.185v5.926Zm-8.889,0V28.889H10.371v4.444Zm-3.7-8.148V17.778h5.185v7.407ZM10.371,23.7h2.222V19.259H10.371Zm15.555,0V16.3h5.185V23.7Zm1.481-1.481h2.222V17.778H27.407Zm-1.481-9.63V5.185h5.185v7.407Zm1.481-1.481h2.222V6.667H27.407Z" transform="translate(0 5.185)"/></g></svg>