<svg xmlns="http://www.w3.org/2000/svg" xmlns:xlink="http://www.w3.org/1999/xlink" width="20" height="20" viewBox="0 0 20 20"><defs><style>.a{clip-path:url(#b);}</style><clipPath id="b"><rect width="20" height="20"/></clipPath></defs><g id="a" class="a"><path d="M1881.046,346.877l-1.152-1.151a.388.388,0,0,1-.106-.392l-2.105-.552a.435.435,0,0,1-.3-.287L1876,339.918a.167.167,0,0,1,.021-.148.162.162,0,0,1,.13-.064.2.2,0,0,1,.141.063l2.453,2.453a.865.865,0,0,0-.068.341.887.887,0,1,0,.544-.817l-2.452-2.454a.187.187,0,0,1-.05-.2.154.154,0,0,1,.144-.1.213.213,0,0,1,.056.009l4.575,1.384a.434.434,0,0,1,.287.3l.552,2.105a.335.335,0,0,1,.107-.018.408.408,0,0,1,.285.123l1.151,1.152a.414.414,0,0,1,.123.284.313.313,0,0,1-.089.224l-2.357,2.357a.314.314,0,0,1-.224.089A.4.4,0,0,1,1881.046,346.877Zm-6.429.012-.671-.671a.38.38,0,0,1,0-.538l.177-.177a6.042,6.042,0,0,1-.836-5.613l-1.659,1.659a.855.855,0,1,1-.4-.4l2.856-2.856-.134-.135a.379.379,0,0,1,0-.537l.671-.672a.38.38,0,0,1,.538,0l.134.135,2.856-2.857a.855.855,0,1,1,.4.4l-1.66,1.66a6.007,6.007,0,0,1,2.029-.349,5.947,5.947,0,0,1,3.585,1.185l.178-.178a.38.38,0,0,1,.538,0l.671.671a.382.382,0,0,1,0,.538l-.671.672a.382.382,0,0,1-.538,0l-.671-.672a.38.38,0,0,1,0-.538l.086-.086a5.449,5.449,0,0,0-6.354,0l.086.087a.379.379,0,0,1,0,.537l-.671.672a.382.382,0,0,1-.538,0l-.086-.087a5.449,5.449,0,0,0,0,6.354l.086-.086a.38.38,0,0,1,.538,0l.671.671a.38.38,0,0,1,0,.538l-.671.671a.38.38,0,0,1-.538,0Z" transform="translate(-1867.4 -330.4)"/></g></svg>