<svg xmlns="http://www.w3.org/2000/svg" xmlns:xlink="http://www.w3.org/1999/xlink" width="26" height="26" viewBox="0 0 26 26">

		<path d="M20,8A12,12,0,1,0,32,20,12.014,12.014,0,0,0,20,8Zm7.934,5.534a10.2,10.2,0,0,1,2.315,6.385,23.953,23.953,0,0,0-7.137-.33c-.278-.679-.541-1.277-.9-2.014a13.653,13.653,0,0,0,5.723-4.041Zm-1.139-1.185a11.573,11.573,0,0,1-5.372,3.7,54.711,54.711,0,0,0-3.825-6A10.223,10.223,0,0,1,26.795,12.349ZM15.642,10.74a65.4,65.4,0,0,1,3.8,5.928,38.232,38.232,0,0,1-9.476,1.249A10.287,10.287,0,0,1,15.642,10.74ZM9.75,20.016c0-.1,0-.209.005-.313A37.81,37.81,0,0,0,20.29,18.244c.293.574.574,1.157.831,1.739a15.876,15.876,0,0,0-8.735,6.886A10.209,10.209,0,0,1,9.75,20.016ZM13.709,28.1c1.071-2.189,3.976-5.014,8.109-6.424A42.606,42.606,0,0,1,24,29.451,10.229,10.229,0,0,1,13.709,28.1Zm12.018.411A44.24,44.24,0,0,0,23.736,21.2a15.044,15.044,0,0,1,6.385.438A10.268,10.268,0,0,1,25.727,28.512Z" transform="translate(-7 -7)" />
</svg>
