<svg xmlns="http://www.w3.org/2000/svg" width="50" height="50" viewBox="0 0 50 50"><defs><style>.a{fill:#c8414b;}.b{fill:#ffd250;}.c{fill:#f5f5f5;}.d{fill:#fab446;}.e{fill:#ffb441;}.f{fill:#5064aa;}.g{fill:#ffa0d2;}</style></defs><g transform="translate(3371 -1133)"><path class="a" d="M1.668,59.367H49.944c.476,0,.862-.589.862-1.316V10.683c0-.727-.386-1.316-.862-1.316H1.668c-.476,0-.862.589-.862,1.316V58.052C.806,58.778,1.192,59.367,1.668,59.367Z" transform="translate(-3371.806 1123.633)"/><path class="b" d="M50.806,16.264h-50V44.713h50Z" transform="translate(-3371.806 1127.512)"/><path class="a" d="M22.344,27.929l1.142-5.139a.758.758,0,0,0-.74-.922h-.8a.758.758,0,0,0-.74.922Z" transform="translate(-3364.165 1130.151)"/><path class="c" d="M23.759,24.022H21.065V35.471h2.694Z" transform="translate(-3364.232 1131.193)"/><path class="d" d="M24.674,23.161H20.633v1.347h4.041Z" transform="translate(-3364.471 1130.879)"/><path class="a" d="M25.647,25.747H18.911v1.347h6.735Z" transform="translate(-3365.4 1132.238)"/><path class="a" d="M24.676,30.165l-4.041-1.347V27.471l4.041,1.347Z" transform="translate(-3364.47 1133.125)"/><path class="a" d="M9.415,27.929l1.142-5.139a.758.758,0,0,0-.74-.922h-.8a.758.758,0,0,0-.74.922Z" transform="translate(-3370.678 1130.151)"/><path class="c" d="M12.5,23.16a1.347,1.347,0,0,0-1.347,1.347v8.755c0,1.637,1.527,4.715,6.735,4.715s6.735-3.078,6.735-4.715V24.508a1.347,1.347,0,0,0-1.347-1.347Z" transform="translate(-3369.501 1130.689)"/><path class="a" d="M17.887,29.9H11.153V24.508A1.347,1.347,0,0,1,12.5,23.16h5.388Z" transform="translate(-3369.458 1130.817)"/><path class="a" d="M15.463,27.471H22.2v3.367a3.367,3.367,0,0,1-6.735,0Z" transform="translate(-3367.204 1133.062)"/><path class="d" d="M11.151,27.471h6.735v3.367a3.367,3.367,0,1,1-6.735,0Z" transform="translate(-3369.458 1133.062)"/><path class="a" d="M15.083,33.517V27.471H13.736v6.667A3.334,3.334,0,0,0,15.083,33.517Z" transform="translate(-3368.071 1133.063)"/><path class="a" d="M13.359,34.138V27.471H12.012v6.046A3.337,3.337,0,0,0,13.359,34.138Z" transform="translate(-3368.977 1133.063)"/><path class="e" d="M16.054,25.747H12.013v1.347h4.041Z" transform="translate(-3368.991 1132.238)"/><path class="d" d="M16.054,24.022H12.013v1.347h4.041Z" transform="translate(-3368.991 1131.332)"/><path class="d" d="M15.137,24.535H12.443v2.44h2.694Z" transform="translate(-3368.758 1131.589)"/><path class="c" d="M10.827,24.022H8.133V35.471h2.694Z" transform="translate(-3370.746 1131.193)"/><path class="d" d="M11.742,30.92H7.7v1.347h4.041Z" transform="translate(-3370.99 1134.955)"/><path class="d" d="M11.742,23.161H7.7v1.347h4.041Z" transform="translate(-3370.99 1130.879)"/><path class="f" d="M12.66,31.781H7.272v1.347H12.66Z" transform="translate(-3371.23 1135.407)"/><path class="d" d="M25.106,30.92H21.065v1.347h4.041Z" transform="translate(-3364.245 1134.955)"/><path class="f" d="M25.59,31.781H20.2v1.347H25.59Z" transform="translate(-3364.711 1135.407)"/><path class="d" d="M20.957,22.3H12.875v1.347h8.082Z" transform="translate(-3368.566 1130.426)"/><path class="e" d="M16.378,19.713H15.031v4.041h1.347Z" transform="translate(-3367.39 1129.046)"/><path class="c" d="M15.327,22.46a2.02,2.02,0,1,1,2.02-2.02A2.023,2.023,0,0,1,15.327,22.46Zm0-2.694A.674.674,0,1,0,16,20.44.674.674,0,0,0,15.327,19.766Z" transform="translate(-3368.313 1128.369)"/><path class="c" d="M17.051,22.46a2.02,2.02,0,1,1,2.02-2.02A2.023,2.023,0,0,1,17.051,22.46Zm0-2.694a.674.674,0,1,0,.674.674A.674.674,0,0,0,17.051,19.766Z" transform="translate(-3367.41 1128.369)"/><path class="c" d="M18.775,23.322A2.02,2.02,0,1,1,20.8,21.3,2.023,2.023,0,0,1,18.775,23.322Zm0-2.694a.674.674,0,1,0,.674.673A.674.674,0,0,0,18.775,20.628Z" transform="translate(-3366.505 1128.82)"/><path class="c" d="M13.6,23.322a2.02,2.02,0,1,1,2.02-2.02A2.023,2.023,0,0,1,13.6,23.322Zm0-2.694a.674.674,0,1,0,.673.673A.674.674,0,0,0,13.6,20.628Z" transform="translate(-3369.218 1128.82)"/><path class="d" d="M19.017,29.68v.673a.674.674,0,1,1-1.347,0V29.68Zm1.347-1.347H16.323v2.02a2.02,2.02,0,1,0,4.041,0v-2.02Z" transform="translate(-3366.731 1133.556)"/><path class="g" d="M18.1,28.064a1.347,1.347,0,0,1-1.347-1.347V25.37a1.347,1.347,0,0,1,2.694,0v1.347A1.347,1.347,0,0,1,18.1,28.064Z" transform="translate(-3366.495 1131.3)"/><path class="f" d="M16.189,30.218a2.02,2.02,0,1,0-2.02-2.02A2.02,2.02,0,0,0,16.189,30.218Z" transform="translate(-3367.861 1132.428)"/><path class="d" d="M16.378,17.988H15.031v4.041h1.347Z" transform="translate(-3367.39 1128.143)"/><path class="a" d="M13.36,23.753l-1.347-1.347.789-.789a6.5,6.5,0,0,1,9.2,0l.789.789-1.347,1.347Z" transform="translate(-3369.034 1129.045)"/><path class="b" d="M15.7,22.352a.674.674,0,1,0-.674-.673A.673.673,0,0,0,15.7,22.352Z" transform="translate(-3367.391 1129.747)"/><path class="b" d="M13.978,22.352a.674.674,0,1,0-.673-.673A.673.673,0,0,0,13.978,22.352Z" transform="translate(-3368.297 1129.747)"/><path class="b" d="M17.426,22.352a.674.674,0,1,0-.674-.673A.673.673,0,0,0,17.426,22.352Z" transform="translate(-3366.485 1129.747)"/><path class="a" d="M14.436,25.747H7.7v1.347h6.735Z" transform="translate(-3370.99 1132.238)"/><path class="a" d="M7.7,30.165l4.041-1.347V27.471L7.7,28.818Z" transform="translate(-3370.99 1133.125)"/></g></svg>