<svg xmlns="http://www.w3.org/2000/svg" xmlns:xlink="http://www.w3.org/1999/xlink" width="32" height="32" viewBox="0 0 32 32"><defs><style>.a{clip-path:url(#b);}.b{fill:#FFFFFF;}</style><clipPath id="b"><rect width="32" height="32"/></clipPath></defs><g id="a" class="a"><path class="b" d="M14,4.584A4.584,4.584,0,0,1,18.584,0h7.865a4.584,4.584,0,0,1,2.515,8.417,4.584,4.584,0,0,1-2.515,8.417h-.1a4.567,4.567,0,0,1-3.082-1.191v4.224A4.655,4.655,0,0,1,18.609,24.5a4.584,4.584,0,0,1-2.539-8.417,4.585,4.585,0,0,1,0-7.666A4.58,4.58,0,0,1,14,4.584Zm7.766,4.584H18.584a3.082,3.082,0,0,0-.02,6.165h3.2Zm1.5,3.082a3.082,3.082,0,0,0,3.082,3.082h.1a3.082,3.082,0,0,0,0-6.165h-.1A3.082,3.082,0,0,0,23.267,12.25Zm-4.683,4.584h-.02A3.082,3.082,0,1,0,18.609,23a3.154,3.154,0,0,0,3.157-3.132V16.834Zm0-15.332a3.082,3.082,0,1,0,0,6.165h3.182V1.5Zm4.683,6.165h3.182a3.082,3.082,0,1,0,0-6.165H23.267Z" transform="translate(-6.517 3.75)"/></g></svg>