<svg xmlns="http://www.w3.org/2000/svg" xmlns:xlink="http://www.w3.org/1999/xlink" width="200" height="100" viewBox="0 0 200 100"><defs><style>.a{clip-path:url(#b);}</style><clipPath id="b"><rect width="200" height="100"/></clipPath></defs><g id="a" class="a"><path d="M-22.148-2.282h8.68V0h-11.4V-20.062h2.716ZM-.448,0H-1.554a1.32,1.32,0,0,1-.588-.112.619.619,0,0,1-.294-.476L-2.716-1.9q-.56.5-1.092.9a6.25,6.25,0,0,1-1.12.672A5.8,5.8,0,0,1-6.181.084a7.186,7.186,0,0,1-1.477.14A5.027,5.027,0,0,1-9.205-.008a3.523,3.523,0,0,1-1.253-.7,3.311,3.311,0,0,1-.847-1.173,4.111,4.111,0,0,1-.315-1.679,3.139,3.139,0,0,1,.462-1.623A4.065,4.065,0,0,1-9.667-6.561a9.692,9.692,0,0,1,2.7-.99A18.34,18.34,0,0,1-2.9-7.938V-9.051a3.859,3.859,0,0,0-.707-2.515A2.563,2.563,0,0,0-5.7-12.418a4.437,4.437,0,0,0-1.533.231,5.8,5.8,0,0,0-1.078.518q-.455.287-.784.518a1.131,1.131,0,0,1-.651.231.747.747,0,0,1-.441-.133,1.013,1.013,0,0,1-.3-.329l-.448-.8A8.1,8.1,0,0,1-8.4-13.874a7.824,7.824,0,0,1,3.01-.56,5.371,5.371,0,0,1,2.114.392A4.335,4.335,0,0,1-1.722-12.95,4.625,4.625,0,0,1-.77-11.256,7.055,7.055,0,0,1-.448-9.072ZM-6.916-1.526a5.087,5.087,0,0,0,1.2-.133,4.752,4.752,0,0,0,1.029-.378,5.453,5.453,0,0,0,.924-.6,8.005,8.005,0,0,0,.861-.8V-6.356a16.709,16.709,0,0,0-2.926.218,8.175,8.175,0,0,0-1.96.57,2.731,2.731,0,0,0-1.1.831,1.794,1.794,0,0,0-.343,1.07,2.374,2.374,0,0,0,.182.972,1.841,1.841,0,0,0,.49.669,1.93,1.93,0,0,0,.728.38A3.31,3.31,0,0,0-6.916-1.526ZM7.63.224A3.419,3.419,0,0,1,5.047-.714a3.743,3.743,0,0,1-.9-2.7V-12.1H2.436a.558.558,0,0,1-.378-.133.517.517,0,0,1-.154-.413v-.994l2.324-.294L4.8-18.312a.53.53,0,0,1,.182-.343.578.578,0,0,1,.392-.133h1.26V-13.9H10.7V-12.1H6.636v8.512a1.811,1.811,0,0,0,.434,1.33,1.516,1.516,0,0,0,1.12.434,1.977,1.977,0,0,0,.679-.1,2.914,2.914,0,0,0,.5-.231q.21-.126.357-.231a.467.467,0,0,1,.259-.105.429.429,0,0,1,.35.238l.728,1.19a4.643,4.643,0,0,1-1.554.945A5.277,5.277,0,0,1,7.63.224Zm11.886-14.63a7.284,7.284,0,0,1,2.807.518,5.919,5.919,0,0,1,2.128,1.47,6.508,6.508,0,0,1,1.344,2.3A9.157,9.157,0,0,1,26.264-7.1,9.141,9.141,0,0,1,25.8-4.074a6.518,6.518,0,0,1-1.344,2.3A5.845,5.845,0,0,1,22.323-.315,7.372,7.372,0,0,1,19.516.2a7.372,7.372,0,0,1-2.807-.511,5.911,5.911,0,0,1-2.135-1.463,6.545,6.545,0,0,1-1.358-2.3A9.018,9.018,0,0,1,12.74-7.1a9.034,9.034,0,0,1,.476-3.017,6.535,6.535,0,0,1,1.358-2.3,5.986,5.986,0,0,1,2.135-1.47A7.284,7.284,0,0,1,19.516-14.406Zm0,12.656a3.641,3.641,0,0,0,3.136-1.407,6.515,6.515,0,0,0,1.036-3.927,6.574,6.574,0,0,0-1.036-3.948,3.634,3.634,0,0,0-3.136-1.414,4.352,4.352,0,0,0-1.848.364,3.459,3.459,0,0,0-1.309,1.05,4.664,4.664,0,0,0-.784,1.687,9.043,9.043,0,0,0-.259,2.261,8.959,8.959,0,0,0,.259,2.254,4.594,4.594,0,0,0,.784,1.673,3.486,3.486,0,0,0,1.309,1.043A4.352,4.352,0,0,0,19.516-1.75ZM-42.2,19.628V28h-2.7V7.938h5.67a12.389,12.389,0,0,1,3.29.385,6.279,6.279,0,0,1,2.289,1.113,4.457,4.457,0,0,1,1.337,1.757,5.872,5.872,0,0,1,.434,2.3,5.773,5.773,0,0,1-.336,1.988,5.25,5.25,0,0,1-.973,1.659A5.821,5.821,0,0,1-34.741,18.4a7.693,7.693,0,0,1-2.079.784,2.868,2.868,0,0,1,.9.854L-30.072,28H-32.48a1.187,1.187,0,0,1-1.092-.574l-5.208-7.168a1.517,1.517,0,0,0-.518-.483,1.868,1.868,0,0,0-.84-.147Zm0-1.974h2.842a6.919,6.919,0,0,0,2.093-.287,4.259,4.259,0,0,0,1.512-.812,3.368,3.368,0,0,0,.917-1.253,4.092,4.092,0,0,0,.308-1.61,3.2,3.2,0,0,0-1.183-2.7,5.718,5.718,0,0,0-3.521-.91H-42.2Zm20.272-4.06a6.331,6.331,0,0,1,2.352.427,5.279,5.279,0,0,1,1.862,1.232,5.617,5.617,0,0,1,1.225,1.988,7.68,7.68,0,0,1,.441,2.7,1.625,1.625,0,0,1-.126.784.523.523,0,0,1-.476.2h-9.436a7.83,7.83,0,0,0,.364,2.338,4.781,4.781,0,0,0,.924,1.659,3.7,3.7,0,0,0,1.4.994,4.808,4.808,0,0,0,1.82.329,5.339,5.339,0,0,0,1.617-.217,7.693,7.693,0,0,0,1.169-.469,8.917,8.917,0,0,0,.819-.469,1.086,1.086,0,0,1,.567-.217.548.548,0,0,1,.476.238l.7.91a4.733,4.733,0,0,1-1.106.973,6.886,6.886,0,0,1-1.379.679,8.759,8.759,0,0,1-1.519.4,9.278,9.278,0,0,1-1.554.133,7.211,7.211,0,0,1-2.709-.5,5.946,5.946,0,0,1-2.142-1.456,6.679,6.679,0,0,1-1.407-2.373,9.649,9.649,0,0,1-.5-3.248,8.264,8.264,0,0,1,.455-2.772,6.534,6.534,0,0,1,1.309-2.233A6.026,6.026,0,0,1-24.7,14.133,6.848,6.848,0,0,1-21.924,13.594Zm.056,1.834a3.826,3.826,0,0,0-2.842,1.043A4.909,4.909,0,0,0-26,19.362h7.714a5.046,5.046,0,0,0-.238-1.589,3.541,3.541,0,0,0-.7-1.246,3.133,3.133,0,0,0-1.127-.812A3.8,3.8,0,0,0-21.868,15.428ZM-8.092,13.58a7.054,7.054,0,0,1,1.729.2,5.438,5.438,0,0,1,1.463.6h3.85V15.3q0,.462-.588.588l-1.61.224a4.313,4.313,0,0,1,.476,2.03,4.364,4.364,0,0,1-.4,1.883,4.272,4.272,0,0,1-1.106,1.449,4.964,4.964,0,0,1-1.68.924,6.762,6.762,0,0,1-2.135.322,7.174,7.174,0,0,1-1.876-.238,2.384,2.384,0,0,0-.679.622,1.144,1.144,0,0,0-.231.651.884.884,0,0,0,.406.789,2.826,2.826,0,0,0,1.078.384,9.046,9.046,0,0,0,1.526.116h1.743a9.689,9.689,0,0,1,1.743.156,5.287,5.287,0,0,1,1.526.51,2.849,2.849,0,0,1,1.078.978,2.913,2.913,0,0,1,.406,1.616,3.788,3.788,0,0,1-.455,1.786,4.816,4.816,0,0,1-1.309,1.538,6.716,6.716,0,0,1-2.086,1.077,8.922,8.922,0,0,1-2.786.4,10.739,10.739,0,0,1-2.723-.308,6.365,6.365,0,0,1-1.939-.827,3.6,3.6,0,0,1-1.155-1.2,2.846,2.846,0,0,1-.385-1.423,2.57,2.57,0,0,1,.665-1.787,4.561,4.561,0,0,1,1.827-1.17,2.5,2.5,0,0,1-.959-.748,2.012,2.012,0,0,1-.357-1.251,1.967,1.967,0,0,1,.112-.636,2.5,2.5,0,0,1,.343-.65,3.649,3.649,0,0,1,.567-.615,3.684,3.684,0,0,1,.784-.517,4.413,4.413,0,0,1-1.645-1.561,4.273,4.273,0,0,1-.6-2.275,4.364,4.364,0,0,1,.4-1.883,4.164,4.164,0,0,1,1.113-1.442,5.091,5.091,0,0,1,1.7-.917A6.941,6.941,0,0,1-8.092,13.58Zm4.424,15.14a1.257,1.257,0,0,0-.294-.871,1.894,1.894,0,0,0-.8-.507,5.693,5.693,0,0,0-1.162-.264,10.743,10.743,0,0,0-1.386-.086H-8.792a5.405,5.405,0,0,1-1.442-.189,4.093,4.093,0,0,0-1.3.925,1.873,1.873,0,0,0-.5,1.3,1.717,1.717,0,0,0,.245.89,2.089,2.089,0,0,0,.749.715,4.382,4.382,0,0,0,1.267.477,8.113,8.113,0,0,0,1.8.175A8,8,0,0,0-6.16,31.1a4.482,4.482,0,0,0,1.351-.528,2.565,2.565,0,0,0,.847-.814A1.93,1.93,0,0,0-3.668,28.72Zm-4.424-7.65a3.923,3.923,0,0,0,1.337-.21,2.7,2.7,0,0,0,.973-.588,2.4,2.4,0,0,0,.588-.9A3.279,3.279,0,0,0-5,18.214a2.759,2.759,0,0,0-.791-2.072,3.171,3.171,0,0,0-2.3-.77,3.15,3.15,0,0,0-2.289.77,2.759,2.759,0,0,0-.791,2.072,3.177,3.177,0,0,0,.2,1.155,2.479,2.479,0,0,0,.6.9,2.713,2.713,0,0,0,.966.588A3.817,3.817,0,0,0-8.092,21.07ZM3.6,13.818v9.044a3.763,3.763,0,0,0,.742,2.492,2.762,2.762,0,0,0,2.24.882,4.291,4.291,0,0,0,2.058-.518,6.4,6.4,0,0,0,1.778-1.442V13.818h2.492V28H11.424a.635.635,0,0,1-.672-.518l-.2-1.526A7.8,7.8,0,0,1,8.484,27.6a5.43,5.43,0,0,1-2.632.623A5.121,5.121,0,0,1,3.8,27.839,4.066,4.066,0,0,1,2.31,26.754a4.608,4.608,0,0,1-.9-1.694,7.563,7.563,0,0,1-.3-2.2V13.818Zm16.184-6.44V28H17.29V7.378ZM34.594,28H33.488a1.32,1.32,0,0,1-.588-.112.619.619,0,0,1-.294-.476l-.28-1.316q-.56.5-1.092.9a6.249,6.249,0,0,1-1.12.672,5.8,5.8,0,0,1-1.253.413,7.187,7.187,0,0,1-1.477.14,5.027,5.027,0,0,1-1.547-.232,3.523,3.523,0,0,1-1.253-.7,3.311,3.311,0,0,1-.847-1.173,4.111,4.111,0,0,1-.315-1.679,3.139,3.139,0,0,1,.462-1.623,4.065,4.065,0,0,1,1.491-1.384,9.692,9.692,0,0,1,2.695-.99,18.34,18.34,0,0,1,4.074-.386V18.949a3.859,3.859,0,0,0-.707-2.515,2.563,2.563,0,0,0-2.093-.852,4.437,4.437,0,0,0-1.533.231,5.8,5.8,0,0,0-1.078.518q-.455.287-.784.518a1.131,1.131,0,0,1-.651.231.747.747,0,0,1-.441-.133,1.013,1.013,0,0,1-.3-.329l-.448-.8a8.1,8.1,0,0,1,2.534-1.694,7.824,7.824,0,0,1,3.01-.56,5.371,5.371,0,0,1,2.114.392A4.335,4.335,0,0,1,33.32,15.05a4.625,4.625,0,0,1,.952,1.694,7.055,7.055,0,0,1,.322,2.184Zm-6.468-1.526a5.087,5.087,0,0,0,1.2-.133,4.752,4.752,0,0,0,1.029-.378,5.453,5.453,0,0,0,.924-.595,8.005,8.005,0,0,0,.861-.8V21.644a16.709,16.709,0,0,0-2.926.218,8.175,8.175,0,0,0-1.96.57,2.731,2.731,0,0,0-1.1.831,1.794,1.794,0,0,0-.343,1.07,2.374,2.374,0,0,0,.182.972,1.841,1.841,0,0,0,.49.669,1.93,1.93,0,0,0,.728.38A3.31,3.31,0,0,0,28.126,26.474ZM38.374,28V13.818H39.8a.788.788,0,0,1,.56.154.945.945,0,0,1,.21.532l.168,2.212a6.487,6.487,0,0,1,1.8-2.317,4.239,4.239,0,0,1,3.577-.7A3.709,3.709,0,0,1,47,14.07l-.322,1.862a.421.421,0,0,1-.434.35,2.178,2.178,0,0,1-.6-.133,3.8,3.8,0,0,0-1.134-.133,3.212,3.212,0,0,0-2.177.756,5.675,5.675,0,0,0-1.463,2.2V28Z" transform="translate(48.898 46.062)"/><path d="M-22.134-3.108h8.106V0H-25.9V-20.244h3.766ZM-.364,0H-1.918a1.674,1.674,0,0,1-.77-.147.946.946,0,0,1-.42-.6l-.308-1.022A11.86,11.86,0,0,1-4.487-.9,6.5,6.5,0,0,1-5.572-.28,5.534,5.534,0,0,1-6.762.1a7.159,7.159,0,0,1-1.4.126,5.5,5.5,0,0,1-1.68-.246,3.618,3.618,0,0,1-1.323-.737,3.349,3.349,0,0,1-.861-1.222,4.348,4.348,0,0,1-.308-1.7,3.362,3.362,0,0,1,.427-1.608,4.025,4.025,0,0,1,1.421-1.433A9.071,9.071,0,0,1-7.84-7.783a16.9,16.9,0,0,1,4.1-.421V-9.05A3.21,3.21,0,0,0-4.347-11.2a2.223,2.223,0,0,0-1.771-.7,4.286,4.286,0,0,0-1.4.2,5.416,5.416,0,0,0-.973.441q-.413.245-.763.441a1.549,1.549,0,0,1-.77.2,1,1,0,0,1-.6-.182,1.433,1.433,0,0,1-.406-.448l-.63-1.106A8.541,8.541,0,0,1-5.684-14.63a5.776,5.776,0,0,1,2.247.413,4.776,4.776,0,0,1,1.673,1.148A4.913,4.913,0,0,1-.721-11.312a6.752,6.752,0,0,1,.357,2.24Zm-6.72-2.156a4.658,4.658,0,0,0,.98-.1,3.752,3.752,0,0,0,.847-.289,4.514,4.514,0,0,0,.77-.475,6.954,6.954,0,0,0,.749-.668v-2.4a14.041,14.041,0,0,0-2.527.19A6.677,6.677,0,0,0-7.9-5.413a2.1,2.1,0,0,0-.875.691,1.537,1.537,0,0,0-.259.86,1.517,1.517,0,0,0,.539,1.311A2.324,2.324,0,0,0-7.084-2.156ZM7.756.224A3.778,3.778,0,0,1,4.886-.833,4.057,4.057,0,0,1,3.878-3.752v-8.022H2.422a.7.7,0,0,1-.483-.182.7.7,0,0,1-.2-.546v-1.372l2.31-.378.728-3.92a.693.693,0,0,1,.259-.434.821.821,0,0,1,.511-.154H7.336v4.522h3.78v2.464H7.336V-3.99a1.526,1.526,0,0,0,.336,1.05,1.14,1.14,0,0,0,.9.378,1.627,1.627,0,0,0,.539-.077A2.967,2.967,0,0,0,9.485-2.8q.161-.084.287-.161a.48.48,0,0,1,.252-.077.4.4,0,0,1,.252.077,1.168,1.168,0,0,1,.21.231l1.036,1.68A5.235,5.235,0,0,1,9.786-.1,6.462,6.462,0,0,1,7.756.224Zm12.25-14.812a7.872,7.872,0,0,1,2.919.518,6.294,6.294,0,0,1,2.233,1.47,6.507,6.507,0,0,1,1.428,2.324,8.84,8.84,0,0,1,.5,3.066,8.884,8.884,0,0,1-.5,3.08,6.651,6.651,0,0,1-1.428,2.338A6.2,6.2,0,0,1,22.925-.308,7.872,7.872,0,0,1,20.006.21,7.927,7.927,0,0,1,17.08-.308a6.259,6.259,0,0,1-2.247-1.484A6.68,6.68,0,0,1,13.391-4.13a8.773,8.773,0,0,1-.511-3.08,8.731,8.731,0,0,1,.511-3.066A6.536,6.536,0,0,1,14.833-12.6a6.351,6.351,0,0,1,2.247-1.47A7.927,7.927,0,0,1,20.006-14.588Zm0,12.138a3.041,3.041,0,0,0,2.653-1.2,6.037,6.037,0,0,0,.861-3.528,6.106,6.106,0,0,0-.861-3.542,3.028,3.028,0,0,0-2.653-1.218,3.07,3.07,0,0,0-2.688,1.225,6.073,6.073,0,0,0-.868,3.535,6,6,0,0,0,.868,3.521A3.083,3.083,0,0,0,20.006-2.45ZM-26.81,28V7.756h6.986a13.235,13.235,0,0,1,3.4.378,6.473,6.473,0,0,1,2.31,1.078A4.182,4.182,0,0,1-12.8,10.906a5.7,5.7,0,0,1,.42,2.24,4.419,4.419,0,0,1-.21,1.365,3.949,3.949,0,0,1-.651,1.218,4.877,4.877,0,0,1-1.12,1.029,6.771,6.771,0,0,1-1.617.784q4.172.938,4.172,4.508a5.746,5.746,0,0,1-.49,2.38,5.249,5.249,0,0,1-1.428,1.883,6.823,6.823,0,0,1-2.31,1.239A10.093,10.093,0,0,1-19.166,28Zm3.766-8.876V25.06h3.822a5.283,5.283,0,0,0,1.757-.252,3.05,3.05,0,0,0,1.134-.672,2.462,2.462,0,0,0,.616-.98,3.7,3.7,0,0,0,.189-1.19,3.162,3.162,0,0,0-.21-1.183,2.219,2.219,0,0,0-.658-.9,3.076,3.076,0,0,0-1.148-.567,6.353,6.353,0,0,0-1.694-.2Zm0-2.6h3.01a5.042,5.042,0,0,0,2.912-.7,2.533,2.533,0,0,0,.994-2.226,2.638,2.638,0,0,0-.9-2.254,4.685,4.685,0,0,0-2.8-.672h-3.22Zm20.412-3.108a7.872,7.872,0,0,1,2.919.518A6.294,6.294,0,0,1,2.52,15.4a6.507,6.507,0,0,1,1.428,2.324,8.84,8.84,0,0,1,.5,3.066,8.883,8.883,0,0,1-.5,3.08A6.651,6.651,0,0,1,2.52,26.208,6.2,6.2,0,0,1,.287,27.692a7.872,7.872,0,0,1-2.919.518,7.927,7.927,0,0,1-2.926-.518A6.259,6.259,0,0,1-7.8,26.208,6.68,6.68,0,0,1-9.247,23.87a8.773,8.773,0,0,1-.511-3.08,8.731,8.731,0,0,1,.511-3.066A6.536,6.536,0,0,1-7.8,15.4a6.351,6.351,0,0,1,2.247-1.47A7.927,7.927,0,0,1-2.632,13.412Zm0,12.138a3.041,3.041,0,0,0,2.653-1.2,6.037,6.037,0,0,0,.861-3.528,6.106,6.106,0,0,0-.861-3.542,3.028,3.028,0,0,0-2.653-1.218A3.07,3.07,0,0,0-5.32,17.283a6.073,6.073,0,0,0-.868,3.535,6,6,0,0,0,.868,3.521A3.083,3.083,0,0,0-2.632,25.55ZM10.836,7.2V28H7.378V7.2ZM24.85,28a.85.85,0,0,1-.882-.63l-.28-1.386a8.586,8.586,0,0,1-.938.91,5.931,5.931,0,0,1-1.057.7,5.508,5.508,0,0,1-1.218.455,5.85,5.85,0,0,1-1.407.161,4.753,4.753,0,0,1-2.156-.49A4.8,4.8,0,0,1,15.225,26.3,6.811,6.811,0,0,1,14.133,24a11.631,11.631,0,0,1-.385-3.136,9.792,9.792,0,0,1,.434-2.968,7.221,7.221,0,0,1,1.246-2.38,5.814,5.814,0,0,1,1.946-1.575,5.618,5.618,0,0,1,2.548-.567,4.985,4.985,0,0,1,2.058.385,5.391,5.391,0,0,1,1.526,1.029V7.2h3.458V28Zm-4.606-2.534a3.537,3.537,0,0,0,1.834-.448,5.447,5.447,0,0,0,1.428-1.274V17.3A3.4,3.4,0,0,0,22.225,16.3,3.778,3.778,0,0,0,20.734,16a3.351,3.351,0,0,0-1.421.294,2.779,2.779,0,0,0-1.078.889,4.354,4.354,0,0,0-.679,1.512,8.68,8.68,0,0,0-.238,2.163,9.6,9.6,0,0,0,.2,2.135,4.2,4.2,0,0,0,.581,1.428,2.214,2.214,0,0,0,.924.8A2.943,2.943,0,0,0,20.244,25.466Z" transform="translate(149.81 46.244)"/></g></svg>