<svg xmlns="http://www.w3.org/2000/svg" xmlns:xlink="http://www.w3.org/1999/xlink" width="200" height="100" viewBox="0 0 200 100"><defs><style>.a{clip-path:url(#b);}</style><clipPath id="b"><rect width="200" height="100"/></clipPath></defs><g id="a" class="a"><path d="M-35.546.27c5.724,0,9.882-4.644,9.882-10.4S-29.822-20.52-35.546-20.52c-5.751,0-9.882,4.644-9.882,10.395S-41.3.27-35.546.27Zm0-2.349c-4.482,0-7.56-3.537-7.56-8.046s3.078-8.046,7.56-8.046c4.509,0,7.533,3.537,7.533,8.046S-31.036-2.079-35.546-2.079ZM-15.97-13.77a4.987,4.987,0,0,0-4,2.322l-.108-2.052h-2.187V0h2.376V-7.56a3.962,3.962,0,0,1,3.807-4.1,3.893,3.893,0,0,1,1.89.432l1.161-1.728A4.355,4.355,0,0,0-15.97-13.77ZM-.148-1.566-6.818-7.56-.365-13.5H-3.388L-9.113-8.235V-20.25h-2.376V0h2.376V-6.7L-.148,1.35Zm9.018-12.2A5.61,5.61,0,0,0,4.5-11.718L4.387-13.5H2.2V0H4.576V-8.154a3.568,3.568,0,0,1,3.645-3.51,3.38,3.38,0,0,1,3.51,3.4V0h2.4V-8.532A5.085,5.085,0,0,0,8.869-13.77ZM29.686-6.75c0-4.1-2.268-7.02-6.129-7.02-3.969,0-6.426,3.024-6.426,7.047S19.561.27,23.557.27a5.909,5.909,0,0,0,5.481-3.159L27.364-4.05c-1.08,1.674-2.106,2.241-3.726,2.241-2.511,0-3.942-1.674-4.185-4.158H29.659C29.686-6.237,29.686-6.507,29.686-6.75Zm-6.075-4.968c2.3,0,3.672,1.512,3.915,3.888H19.507C19.858-10.152,21.262-11.718,23.611-11.718ZM44.779-13.5h-2.4v8.154a3.539,3.539,0,0,1-3.618,3.483,3.486,3.486,0,0,1-3.537-3.483V-13.5H32.845v8.4A5.307,5.307,0,0,0,38.164.27a5.356,5.356,0,0,0,4.212-2V.351c0,2.727-1.242,4.428-3.915,4.428a7.247,7.247,0,0,1-4.887-1.755V5.616a8.262,8.262,0,0,0,4.7,1.3c4.347,0,6.507-2.862,6.507-6.561ZM-37.868,18.82a5.43,5.43,0,0,0,4.59-5.346,5.7,5.7,0,0,0-5.7-5.724H-46.4V28h2.457V18.955h3.591L-35.519,28h2.754Zm-6.075-1.89V9.937h4.914a3.474,3.474,0,0,1,3.483,3.483,3.48,3.48,0,0,1-3.483,3.51Zm25.137,4.32c0-4.1-2.268-7.02-6.129-7.02-3.969,0-6.426,3.024-6.426,7.047s2.43,6.993,6.426,6.993a5.909,5.909,0,0,0,5.481-3.159l-1.674-1.161c-1.08,1.674-2.106,2.241-3.726,2.241-2.511,0-3.942-1.674-4.185-4.158h10.206C-18.806,21.763-18.806,21.493-18.806,21.25Zm-6.075-4.968c2.3,0,3.672,1.512,3.915,3.888h-8.019C-28.634,17.848-27.23,16.282-24.881,16.282ZM-5.819,14.5l-.108,1.971a5.639,5.639,0,0,0-4.509-2.241c-3.807,0-6.21,3.078-6.21,7.02,0,3.915,2.4,7.02,6.21,7.02a5.621,5.621,0,0,0,4.428-2.133v1.7c0,2.943-1.566,4.806-3.861,4.806a6.038,6.038,0,0,1-4.32-1.755v2.592a7.042,7.042,0,0,0,4.158,1.269c3.915,0,6.372-2.97,6.372-6.912V14.5Zm-4.239,11.637c-2.646,0-4.239-2.187-4.239-4.887,0-2.727,1.593-4.914,4.239-4.914a4.385,4.385,0,0,1,4.05,3.483v2.862A4.388,4.388,0,0,1-10.058,26.137ZM9.976,14.5v8.154a3.539,3.539,0,0,1-3.618,3.483,3.486,3.486,0,0,1-3.537-3.483V14.5H.445v8.4A5.307,5.307,0,0,0,5.764,28.27a5.428,5.428,0,0,0,4.293-2.079L10.192,28h2.187V14.5ZM20.668,28.27A3.81,3.81,0,0,0,23.5,27.217L22.181,25.6a1.864,1.864,0,0,1-1.458.621c-1.107,0-1.782-.675-1.782-2L18.913,7.75H16.537V24.22A3.848,3.848,0,0,0,20.668,28.27Zm9.477-14.04a6.154,6.154,0,0,0-5.373,2.43l1.647,1.458a4.1,4.1,0,0,1,3.618-1.863c1.836,0,3.348.891,3.348,2.943v1.593l-2.457-.405c-4.725-.783-6.561,1.35-6.561,3.753A3.985,3.985,0,0,0,28.5,28.27a7.824,7.824,0,0,0,4.995-2.187L33.629,28h2.106V19.36C35.735,15.877,33.25,14.23,30.146,14.23Zm-3.348,9.8c0-1.323.972-2.484,4.374-1.863l2.214.378v1.539a6.759,6.759,0,0,1-4.347,2.052A2.051,2.051,0,0,1,26.8,24.031Zm19.17-9.8a4.987,4.987,0,0,0-4,2.322L41.864,14.5H39.677V28h2.376V20.44a3.962,3.962,0,0,1,3.807-4.1,3.893,3.893,0,0,1,1.89.432L48.91,15.04A4.355,4.355,0,0,0,45.968,14.23Z" transform="translate(48.399 47)"/><path d="M-37.4.27c5.859,0,9.882-4.644,9.882-10.4S-31.536-20.52-37.4-20.52c-5.886,0-9.882,4.644-9.882,10.395S-43.281.27-37.4.27Zm0-3.942c-3.78,0-5.994-2.808-5.994-6.453,0-3.672,2.214-6.48,5.994-6.48s5.94,2.808,5.94,6.48C-31.455-6.48-33.615-3.672-37.4-3.672Zm20.115-10.1a4.655,4.655,0,0,0-3.861,2.349l-.216-2.079h-3.537V0h3.942V-6.75a3.335,3.335,0,0,1,3.186-3.591,3.329,3.329,0,0,1,2.106.621l1.647-2.889A4.2,4.2,0,0,0-17.28-13.77ZM.351-13.5H-4.428L-8.991-9.072V-20.25h-3.942V0h3.942V-6.021L.135,2.349V-2.538L-5.67-7.7Zm9.855-.27a5.469,5.469,0,0,0-4.1,1.836L5.886-13.5H2.349V0H6.291V-7.83a2.619,2.619,0,0,1,2.754-2.511,2.288,2.288,0,0,1,2.511,2.3V0H15.5V-8.532A4.96,4.96,0,0,0,10.206-13.77ZM31.05-6.777c0-4.266-2.4-7.02-6.318-7.02-4.32,0-6.831,3.051-6.831,7.047,0,4.023,2.241,7.02,6.966,7.02A6.166,6.166,0,0,0,30.7-3.24L27.918-4.617a3.407,3.407,0,0,1-3.132,1.863c-1.863,0-2.754-1.08-2.97-2.862h9.153A8.691,8.691,0,0,0,31.05-6.777Zm-6.372-3.942c1.566,0,2.376.891,2.646,2.457H21.9A2.7,2.7,0,0,1,24.678-10.719ZM46.656-13.5H42.741v7.8a2.635,2.635,0,0,1-2.754,2.511A2.5,2.5,0,0,1,37.449-5.7v-7.8H33.507v8.289A5.371,5.371,0,0,0,38.853.27a5.452,5.452,0,0,0,3.888-1.647V0c0,2.4-1.458,3.564-3.321,3.564a7.127,7.127,0,0,1-4.347-1.35V5.967a10.311,10.311,0,0,0,4.293.837c4.455,0,7.317-2.7,7.317-6.8Zm-63.45,31.051a4.535,4.535,0,0,0,2.268-4.212c0-3.51-2.646-5.589-5.994-5.589h-7.56V28h9.126c3.321,0,5.94-2.025,5.94-5.508A4.868,4.868,0,0,0-16.794,17.551Zm-1.782-3.807a2.484,2.484,0,0,1-2.43,2.484H-24.03V11.287h3.024A2.46,2.46,0,0,1-18.576,13.744Zm-.972,10.692H-24.03V19.522h4.482a2.466,2.466,0,0,1,2.457,2.457A2.466,2.466,0,0,1-19.548,24.436Zm15.39,3.834a6.9,6.9,0,0,0,7.047-7.02,6.879,6.879,0,0,0-7.047-7.02A6.863,6.863,0,0,0-11.2,21.25,6.879,6.879,0,0,0-4.158,28.27Zm0-3.456c-1.917,0-3.159-1.566-3.159-3.564s1.242-3.591,3.159-3.591A3.311,3.311,0,0,1-1,21.25,3.287,3.287,0,0,1-4.158,24.814ZM10.827,28.27a4.583,4.583,0,0,0,3.078-1l-1.89-2.808a1.515,1.515,0,0,1-1.215.486c-.837,0-1.4-.54-1.4-1.647V7.75H5.454V23.275C5.454,26.272,7.155,28.27,10.827,28.27ZM24.192,7.75v7.938A5.137,5.137,0,0,0,20.52,14.23c-3.7,0-6.264,3.078-6.264,7.02s2.565,7.02,6.264,7.02a5.209,5.209,0,0,0,3.861-1.647l.216,1.4L28.08,28V7.75ZM21.3,24.814c-1.917,0-3.159-1.566-3.159-3.564s1.242-3.591,3.159-3.591a3.169,3.169,0,0,1,2.889,2.16v2.862A3.143,3.143,0,0,1,21.3,24.814Z" transform="translate(150.277 47)"/></g></svg>