<svg xmlns="http://www.w3.org/2000/svg" xmlns:xlink="http://www.w3.org/1999/xlink" width="90" height="90" viewBox="0 0 90 90"><defs><style>.a{clip-path:url(#b);}.b{fill:#000;}</style><clipPath id="b"><rect width="90" height="90"/></clipPath></defs><g id="a" class="a"><path class="b" d="M-39.7-1.648c5.533,0,9.331-4.385,9.331-9.816s-3.8-9.816-9.331-9.816c-5.558,0-9.331,4.385-9.331,9.816S-45.255-1.648-39.7-1.648Zm0-3.722c-3.569,0-5.66-2.652-5.66-6.093,0-3.467,2.091-6.119,5.66-6.119s5.609,2.652,5.609,6.119C-34.087-8.022-36.127-5.371-39.7-5.371ZM-20.7-14.906a4.4,4.4,0,0,0-3.646,2.218l-.2-1.963h-3.34V-1.9h3.722V-8.277a3.149,3.149,0,0,1,3.008-3.391,3.144,3.144,0,0,1,1.989.586l1.555-2.728A3.961,3.961,0,0,0-20.7-14.906Zm16.649.255H-8.566l-4.309,4.181V-21.025H-16.6V-1.9h3.722V-7.589l8.618,7.9V-4.3L-9.739-9.17Zm9.306-.255a5.164,5.164,0,0,0-3.875,1.734l-.2-1.479h-3.34V-1.9H1.556V-9.3a2.473,2.473,0,0,1,2.6-2.371A2.16,2.16,0,0,1,6.527-9.5v7.6H10.25V-9.96A4.684,4.684,0,0,0,5.252-14.906ZM24.935-8.3c0-4.028-2.269-6.629-5.966-6.629-4.079,0-6.45,2.881-6.45,6.654,0,3.8,2.116,6.629,6.578,6.629A5.823,5.823,0,0,0,24.6-4.963l-2.626-1.3A3.217,3.217,0,0,1,19.02-4.5c-1.759,0-2.6-1.02-2.8-2.7h8.643A8.207,8.207,0,0,0,24.935-8.3Zm-6.017-3.722a2.381,2.381,0,0,1,2.5,2.32H16.292A2.548,2.548,0,0,1,18.918-12.025Zm20.754-2.626h-3.7v7.368a2.488,2.488,0,0,1-2.6,2.371,2.356,2.356,0,0,1-2.4-2.371v-7.368H27.255v7.827A5.072,5.072,0,0,0,32.3-1.648,5.148,5.148,0,0,0,35.975-3.2v1.3a3.011,3.011,0,0,1-3.136,3.365,6.73,6.73,0,0,1-4.1-1.275V3.731a9.737,9.737,0,0,0,4.054.79c4.207,0,6.909-2.55,6.909-6.425ZM-20.243,13.726A4.282,4.282,0,0,0-18.1,9.748c0-3.314-2.5-5.278-5.66-5.278H-30.9V23.592h8.618c3.136,0,5.609-1.912,5.609-5.2A4.6,4.6,0,0,0-20.243,13.726Zm-1.683-3.595a2.345,2.345,0,0,1-2.295,2.346h-2.856V7.811h2.856A2.323,2.323,0,0,1-21.926,10.131Zm-.918,10.1h-4.232v-4.64h4.232a2.328,2.328,0,0,1,2.32,2.32A2.328,2.328,0,0,1-22.844,20.227Zm14.533,3.62a6.511,6.511,0,0,0,6.654-6.629A6.5,6.5,0,0,0-8.311,10.59a6.481,6.481,0,0,0-6.654,6.629A6.5,6.5,0,0,0-8.311,23.847Zm0-3.263a3.073,3.073,0,0,1-2.983-3.365,3.1,3.1,0,0,1,2.983-3.391,3.127,3.127,0,0,1,2.983,3.391A3.1,3.1,0,0,1-8.311,20.584Zm14.15,3.263A4.327,4.327,0,0,0,8.745,22.9L6.961,20.253a1.43,1.43,0,0,1-1.147.459c-.79,0-1.326-.51-1.326-1.555V4.471H.765v14.66C.765,21.961,2.371,23.847,5.839,23.847ZM18.459,4.471v7.5a4.85,4.85,0,0,0-3.467-1.377c-3.493,0-5.915,2.907-5.915,6.629s2.422,6.629,5.915,6.629a4.918,4.918,0,0,0,3.646-1.555l.2,1.326,3.289-.025V4.471ZM15.731,20.584a3.073,3.073,0,0,1-2.983-3.365,3.1,3.1,0,0,1,2.983-3.391,2.993,2.993,0,0,1,2.728,2.04v2.7A2.967,2.967,0,0,1,15.731,20.584Z" transform="translate(50.028 43.28)"/></g></svg>