<svg xmlns="http://www.w3.org/2000/svg" xmlns:xlink="http://www.w3.org/1999/xlink" width="90" height="90" viewBox="0 0 90 90"><defs><style>.a{clip-path:url(#b);}.b{fill:#000;}</style><clipPath id="b"><rect width="90" height="90"/></clipPath></defs><g id="a" class="a"><path class="b" d="M-37.869-1.648c5.405,0,9.331-4.385,9.331-9.816s-3.926-9.816-9.331-9.816c-5.431,0-9.331,4.385-9.331,9.816S-43.3-1.648-37.869-1.648Zm0-2.218c-4.232,0-7.139-3.34-7.139-7.6s2.907-7.6,7.139-7.6c4.258,0,7.113,3.34,7.113,7.6S-33.611-3.866-37.869-3.866Zm18.484-11.04a4.709,4.709,0,0,0-3.773,2.193l-.1-1.938h-2.065V-1.9h2.244V-9.042a3.741,3.741,0,0,1,3.595-3.875,3.676,3.676,0,0,1,1.785.408l1.1-1.632A4.112,4.112,0,0,0-19.384-14.906ZM-4.444-3.382l-6.3-5.66,6.093-5.609H-7.5l-5.405,4.972V-21.025h-2.244V-1.9h2.244V-8.226l8.465,7.6ZM4.072-14.906a5.3,5.3,0,0,0-4.13,1.938l-.1-1.683H-2.226V-1.9H.018V-9.6A3.37,3.37,0,0,1,3.46-12.917,3.192,3.192,0,0,1,6.774-9.7v7.8H9.043V-9.96A4.8,4.8,0,0,0,4.072-14.906ZM23.729-8.277c0-3.875-2.142-6.629-5.788-6.629-3.748,0-6.068,2.856-6.068,6.654s2.295,6.6,6.068,6.6a5.58,5.58,0,0,0,5.176-2.983l-1.581-1.1a3.764,3.764,0,0,1-3.518,2.116c-2.371,0-3.722-1.581-3.952-3.926H23.7C23.729-7.793,23.729-8.048,23.729-8.277Zm-5.737-4.691c2.167,0,3.467,1.428,3.7,3.671H14.117C14.449-11.49,15.774-12.968,17.992-12.968Zm19.989-1.683H35.712v7.7A3.342,3.342,0,0,1,32.3-3.662a3.292,3.292,0,0,1-3.34-3.289v-7.7H26.712v7.929a5.011,5.011,0,0,0,5.023,5.074,5.058,5.058,0,0,0,3.977-1.887v1.963c0,2.575-1.173,4.181-3.7,4.181A6.843,6.843,0,0,1,27.4.952V3.4a7.8,7.8,0,0,0,4.436,1.224c4.1,0,6.144-2.7,6.144-6.2ZM-40.061,14.924a5.127,5.127,0,0,0,4.334-5.048,5.386,5.386,0,0,0-5.38-5.405h-7.011V23.592h2.32V15.051h3.391l4.564,8.541h2.6ZM-45.8,13.139v-6.6h4.64a3.281,3.281,0,0,1,3.289,3.289,3.286,3.286,0,0,1-3.289,3.314Zm23.737,4.079c0-3.875-2.142-6.629-5.788-6.629-3.748,0-6.068,2.856-6.068,6.654s2.295,6.6,6.068,6.6a5.58,5.58,0,0,0,5.176-2.983l-1.581-1.1a3.764,3.764,0,0,1-3.518,2.116c-2.371,0-3.722-1.581-3.952-3.926h9.637C-22.061,17.7-22.061,17.448-22.061,17.219ZM-27.8,12.527c2.167,0,3.467,1.428,3.7,3.671h-7.572C-31.342,14.006-30.016,12.527-27.8,12.527Zm18-1.683-.1,1.861a5.325,5.325,0,0,0-4.258-2.116c-3.595,0-5.864,2.907-5.864,6.629,0,3.7,2.269,6.629,5.864,6.629a5.308,5.308,0,0,0,4.181-2.014v1.606c0,2.779-1.479,4.538-3.646,4.538A5.7,5.7,0,0,1-17.7,26.32v2.448a6.649,6.649,0,0,0,3.926,1.2c3.7,0,6.017-2.8,6.017-6.527V10.845Zm-4,10.989c-2.5,0-4-2.065-4-4.615,0-2.575,1.5-4.64,4-4.64a4.141,4.141,0,0,1,3.824,3.289v2.7A4.144,4.144,0,0,1-13.8,21.833ZM5.117,10.845v7.7A3.342,3.342,0,0,1,1.7,21.833a3.292,3.292,0,0,1-3.34-3.289v-7.7H-3.883v7.929A5.011,5.011,0,0,0,1.14,23.847a5.125,5.125,0,0,0,4.054-1.963l.127,1.708H7.386V10.845Zm10.1,13a3.6,3.6,0,0,0,2.677-.994l-1.249-1.53a1.76,1.76,0,0,1-1.377.586c-1.045,0-1.683-.637-1.683-1.887L13.556,4.471H11.313V20.023A3.634,3.634,0,0,0,15.213,23.847ZM24.162,10.59a5.811,5.811,0,0,0-5.074,2.295l1.555,1.377A3.876,3.876,0,0,1,24.06,12.5c1.734,0,3.161.841,3.161,2.779v1.5L24.9,16.4c-4.462-.739-6.2,1.275-6.2,3.544a3.763,3.763,0,0,0,3.9,3.9,7.388,7.388,0,0,0,4.717-2.065l.127,1.81H29.44V15.434C29.44,12.145,27.094,10.59,24.162,10.59ZM21,19.845c0-1.249.918-2.346,4.13-1.759l2.091.357V19.9a6.382,6.382,0,0,1-4.1,1.938A1.936,1.936,0,0,1,21,19.845ZM39.1,10.59a4.709,4.709,0,0,0-3.773,2.193l-.1-1.938H33.162V23.592h2.244V16.454A3.741,3.741,0,0,1,39,12.578a3.676,3.676,0,0,1,1.785.408l1.1-1.632A4.112,4.112,0,0,0,39.1,10.59Z" transform="translate(48.118 40.28)"/></g></svg>