<svg xmlns="http://www.w3.org/2000/svg" xmlns:xlink="http://www.w3.org/1999/xlink" width="32" height="32" viewBox="0 0 32 32"><defs><style>.a{clip-path:url(#b);}.b{fill-rule:evenodd;}</style><clipPath id="b"><rect width="32" height="32"/></clipPath></defs><g id="a" class="a"><g transform="translate(5.091 5.091)"><path class="b" d="M94.909,7399a11.049,11.049,0,0,1,10.909,11.186,11.165,11.165,0,0,1-7.454,10.612c-.553.11-.749-.239-.749-.537,0-.369.013-1.573.013-3.07a2.708,2.708,0,0,0-.741-2.07c2.429-.277,4.982-1.223,4.982-5.519a4.378,4.378,0,0,0-1.124-3,4.1,4.1,0,0,0-.107-2.96s-.914-.3-3,1.147a10.1,10.1,0,0,0-5.463,0c-2.085-1.447-3-1.147-3-1.147a4.12,4.12,0,0,0-.106,2.96,4.393,4.393,0,0,0-1.124,3c0,4.285,2.547,5.245,4.97,5.528a2.406,2.406,0,0,0-.693,1.5,2.29,2.29,0,0,1-3.175-.929,2.3,2.3,0,0,0-1.672-1.153s-1.064-.014-.074.68a2.944,2.944,0,0,1,1.211,1.637s.64,2,3.675,1.32c.005.935.015,1.816.015,2.082,0,.3-.2.642-.745.538A11.164,11.164,0,0,1,84,7410.185,11.05,11.05,0,0,1,94.909,7399" transform="translate(-84 -7399)"/></g></g></svg>