<svg xmlns="http://www.w3.org/2000/svg" xmlns:xlink="http://www.w3.org/1999/xlink" width="160" height="160" viewBox="0 0 160 160"><defs><style>.a{clip-path:url(#b);}</style><clipPath id="b"><rect width="160" height="160"/></clipPath></defs><g id="a" class="a"><path d="M16.857,21.321v5.714l-15.393.036V5.357H15.321l1.464-1.464H0V28.5H18.321V19.857l-1.464,1.464Zm-8-.75,6.679-.643L29.429,6.036,23.393,0,9.464,13.893ZM23.393,2.036l3.964,4-12.5,12.5-3.214.286L24.071,6.393,23.036,5.357,10.571,17.786l.321-3.25Z" transform="translate(1 2)"/><path d="M25.25,28.679H2.286A2.2,2.2,0,0,1,.679,28a2.264,2.264,0,0,1,0-3.232,2.226,2.226,0,0,1,1.607-.661h.107l18.964-.929L24.25,12.821l-3.786.571-.214-1.464,6-.857L22.464,24.607l-20.036.964H2.393a.816.816,0,0,0-.571.232.769.769,0,0,0-.25.589h0a.787.787,0,0,0,.25.571.787.787,0,0,0,.571.25H25.25ZM7.929,22.964,6.75,22.071a19.41,19.41,0,0,0,1.268-1.893,14.335,14.335,0,0,0,1.018-2.107l.071-.107a17.767,17.767,0,0,0,.643-1.946,16.134,16.134,0,0,0,.429-2.161v-7l1.286-1,.429.75a8.056,8.056,0,0,0,1.089,1.5,8.888,8.888,0,0,0,1.375,1.214l.036.036a10.1,10.1,0,0,0,1.446.821,9.044,9.044,0,0,0,1.625.571l.071.036-.321,1.393a10.247,10.247,0,0,1-3.089-1.268,10.38,10.38,0,0,1-2.446-2.089l-.036-.036v5.143a16.213,16.213,0,0,1-.464,2.429,23.336,23.336,0,0,1-.75,2.286l.036-.143A15.915,15.915,0,0,1,9.3,20.893,24.044,24.044,0,0,1,7.893,23l.036-.036Zm7.214-.643-1.464-.25a4.964,4.964,0,0,0,.054-.5q.018-.286.018-.571,0-.357-.036-.714a5.78,5.78,0,0,0-.107-.679l.036.036a7.957,7.957,0,0,0-.518-1.661,7.63,7.63,0,0,0-.839-1.446h.036l1.143-.857a8.534,8.534,0,0,1,1.321,2.446,8.607,8.607,0,0,1,.464,2.839,6.65,6.65,0,0,1-.036.7q-.036.339-.071.7v-.036ZM10.821,5.143A2.48,2.48,0,0,1,9,4.393a2.48,2.48,0,0,1-.75-1.821A2.48,2.48,0,0,1,9,.75a2.587,2.587,0,0,1,3.643,0,2.48,2.48,0,0,1,.75,1.821h0a2.48,2.48,0,0,1-.75,1.821,2.48,2.48,0,0,1-1.821.75Zm0-3.643A1.1,1.1,0,0,0,9.714,2.607a1.107,1.107,0,1,0,2.214,0V2.571h0a1.028,1.028,0,0,0-.321-.75,1.069,1.069,0,0,0-.786-.321Zm-3.857,13-1.429-.286L5.571,14q.214-1.214.464-2.3t.571-2.125l-.071.214A17.872,17.872,0,0,1,7.321,7.8a11.3,11.3,0,0,0,.5-1.161l1.321.643L8.661,8.357,7.929,10.25l-.482,1.8a7.851,7.851,0,0,0-.411,2.054v.143Z" transform="translate(35 98)"/><path d="M19.393,2.071A11.772,11.772,0,0,0,16.179.536,12.5,12.5,0,0,0,12.5,0,12.367,12.367,0,0,0,7.643.964,12.72,12.72,0,0,0,.964,7.643,12.2,12.2,0,0,0,0,12.5a12.2,12.2,0,0,0,.964,4.857,12.72,12.72,0,0,0,6.679,6.679,12.735,12.735,0,0,0,8,.571A12.007,12.007,0,0,0,18.5,23.482a13.155,13.155,0,0,0,2.464-1.768,13.834,13.834,0,0,0,1.964-2.286v-.036a11.772,11.772,0,0,0,1.536-3.214A12.5,12.5,0,0,0,25,12.5a12.631,12.631,0,0,0-.393-3.143,12.5,12.5,0,0,0-1.125-2.839,12.9,12.9,0,0,0-1.768-2.482,13.834,13.834,0,0,0-2.286-1.964Zm3.286,6.214L20.5,11.429l-3.786.071-2.321-3,.964-3.393,3.821-1.393a10.791,10.791,0,0,1,2.036,2,11.224,11.224,0,0,1,1.464,2.464l.036.071Zm-7.143,4.036-1.964,2.964-3.429-.964L10,10.75l3.357-1.214Zm2.071-9.607L15,3.679,13.286,1.5a10.436,10.436,0,0,1,2.286.393,10.862,10.862,0,0,1,2.107.857l-.071-.036ZM11.393,1.5l2.571,3.214L13,8.107,9.357,9.464,6.429,7.536,6.25,3.393A10.426,10.426,0,0,1,8.625,2.161,12.212,12.212,0,0,1,11.393,1.5h0ZM3.286,6.429q.357-.536.732-1a7.86,7.86,0,0,1,.8-.857h0l.143,2.857L2.214,8.464a8.241,8.241,0,0,1,.5-1.089q.286-.518.571-.982v.036Zm1.786,14.25a11.629,11.629,0,0,1-1.536-1.714,10.358,10.358,0,0,1-1.143-2l-.036-.071,2.75.964ZM1.786,15.143a7.244,7.244,0,0,1-.25-1.268A12.8,12.8,0,0,1,1.464,12.5q0-.607.054-1.179a7.651,7.651,0,0,1,.2-1.143l-.036.071L5.607,8.786l2.929,1.929.179,3.75L5.786,16.5Zm9.893,8.393a10.727,10.727,0,0,1-2.786-.571A10.533,10.533,0,0,1,6.464,21.75l.036.036.107-4.036,2.964-2.071,3.5,1,1.107,3.536Zm1.821,0,1.714-2.286,2.679.929a12.156,12.156,0,0,1-2.036.857,10.525,10.525,0,0,1-2.286.464h-.036Zm8.214-4.964a9.234,9.234,0,0,1-1.036,1.375,9.786,9.786,0,0,1-1.214,1.125v.036l-3.893-1.321-1.036-3.357,2.357-3.464,3.643-.071,2.429,3.179a10.532,10.532,0,0,1-.571,1.339q-.321.625-.679,1.232v-.071Zm.071-6.464L23.25,10a9.191,9.191,0,0,1,.214,1.214,11.634,11.634,0,0,1,.071,1.286q0,.464-.036.911t-.107.911V14.25Z" transform="translate(4 100)"/><path d="M0,3.286H1.464V6.429H0ZM2.536,1.071H4V8.643H2.536ZM5.071,0H6.536V9.714H5.071V0Zm22.75,3.286h1.464V6.429H27.821ZM25.286,1.071H26.75V8.643H25.286ZM22.75,0h1.464V9.714H22.75ZM7.643,4.143h14V5.571h-14V4.143Z" transform="translate(34 75)"/><path d="M21.429,17.929Q21.214,17,21,16.179a15.162,15.162,0,0,0-.5-1.571l.071.179q-.286-.857-.571-1.554t-.571-1.375l.071.179-.071-.143V8.25l.393-.214A4.733,4.733,0,0,0,21.357,6.5h0A4.831,4.831,0,0,0,21.8,5.446a4.142,4.142,0,0,0,.161-1.161q0-.143-.018-.321a2.258,2.258,0,0,0-.054-.321h0l1.464-.214q.036.214.054.429t.018.429a5.693,5.693,0,0,1-.214,1.571,6.577,6.577,0,0,1-.571,1.393V7.214a4.664,4.664,0,0,1-.768,1.018,7.514,7.514,0,0,1-.946.8h-.036v2.536q.321.643.589,1.339t.482,1.411a13.861,13.861,0,0,1,.464,1.446q.214.8.393,1.625l.036.214ZM2,17.929.571,17.643q.214-1,.446-1.857t.518-1.679l-.071.214q.25-.679.518-1.375t.554-1.375v-2.5a5.759,5.759,0,0,1-.964-.8,5.5,5.5,0,0,1-.75-.982V7.25A5.689,5.689,0,0,1,.214,5.875,5.5,5.5,0,0,1,0,4.321q0-.214.018-.446t.054-.446v.036l1.464.214a1.248,1.248,0,0,0-.036.3v.339a4.628,4.628,0,0,0,.143,1.161,4.26,4.26,0,0,0,.429,1.054V6.5a3.821,3.821,0,0,0,.679.875,5.137,5.137,0,0,0,.857.661h.036L4,8.25v3.679l-.071.143q-.25.536-.5,1.2t-.5,1.339l-.071.214q-.214.607-.429,1.375T2.036,17.75L2,17.929ZM18.964,3.75a9.979,9.979,0,0,1-.714,1.786,9.446,9.446,0,0,1-1,1.536V7.036a1.969,1.969,0,0,0,.7.554,2,2,0,0,0,.875.2A1.925,1.925,0,0,0,20.232,7.2a1.967,1.967,0,0,0,.589-1.446,1.917,1.917,0,0,0-.536-1.357,2,2,0,0,0-1.321-.643Zm-.143,2.571a.55.55,0,0,1-.571-.571.514.514,0,0,1,.161-.375.556.556,0,0,1,.411-.161.549.549,0,0,1,.536.536h0a.556.556,0,0,1-.161.411.514.514,0,0,1-.375.161ZM15.893,8.429q.214.179.411.339t.411.3h0v2.5q-.179.393-.321.786t-.321.786l.429,1.071.393,1.071q.036-.107.071-.232t.071-.268q.25-.679.518-1.375t.554-1.375l.071-.143V8.25l-.357-.214a4.464,4.464,0,0,1-.464-.3,3.659,3.659,0,0,1-.393-.339h0q-.25.286-.5.536a4.994,4.994,0,0,1-.536.464l-.036.036ZM5.25,8.25v3.643l.071.143q.286.679.554,1.375t.518,1.411q.036.107.071.232t.071.232q.179-.536.393-1.071l.429-1.071q-.179-.393-.321-.786a7.1,7.1,0,0,0-.321-.75V9.071q.214-.143.411-.3t.411-.339h0a6.127,6.127,0,0,1-.571-.5q-.25-.25-.5-.536h0a3.659,3.659,0,0,1-.393.339A2.815,2.815,0,0,1,5.643,8l-.036.036Zm.929-1.214a8.226,8.226,0,0,1-1-1.5A8.861,8.861,0,0,1,4.5,3.821L4.464,3.75a2,2,0,0,0-1.321.643A1.917,1.917,0,0,0,2.607,5.75,1.967,1.967,0,0,0,3.2,7.2a1.925,1.925,0,0,0,1.411.589,2,2,0,0,0,.875-.2,1.669,1.669,0,0,0,.661-.554ZM4.607,6.321H4.571A.55.55,0,0,1,4,5.75a.514.514,0,0,1,.161-.375.556.556,0,0,1,.411-.161h.036a.6.6,0,0,1,.357.2.5.5,0,0,1,.143.339.547.547,0,0,1-.143.375.6.6,0,0,1-.357.2Zm7.107-.286A2.539,2.539,0,0,1,9.857,5.25a2.539,2.539,0,0,1-.786-1.857,2.522,2.522,0,0,1,.786-1.875,2.63,2.63,0,0,1,3.714,0,2.522,2.522,0,0,1,.786,1.875h0a2.539,2.539,0,0,1-.786,1.857,2.539,2.539,0,0,1-1.857.786Zm0-3.821a1.159,1.159,0,0,0-1.179,1.179,1.158,1.158,0,0,0,.339.821,1.165,1.165,0,0,0,1.679,0,1.158,1.158,0,0,0,.339-.821h0a1.159,1.159,0,0,0-1.179-1.179Zm4.214,19.143q-.286-1.393-.625-2.607t-.732-2.357l.107.286q-.429-1.286-.857-2.339t-.857-2.054l.107.25L13,12.393V7.286l.357-.214a6.829,6.829,0,0,0,1.375-1.036,6.11,6.11,0,0,0,1.054-1.357h.036a6.745,6.745,0,0,0,.661-1.625,7,7,0,0,0,.232-1.8q0-.286-.018-.536t-.054-.5V.25L18.107.036q.036.286.071.589a5.347,5.347,0,0,1,.036.625,7.894,7.894,0,0,1-.3,2.2,8.857,8.857,0,0,1-.839,1.982l.036-.036a7.883,7.883,0,0,1-1.161,1.536A8.034,8.034,0,0,1,14.5,8.107h-.036v4q.357.786.75,1.768t.75,2.018l.071.321q.357.964.679,2.143t.571,2.429l.071.286Zm-8.429,0-1.429-.286a43.988,43.988,0,0,1,1.286-4.839,45.727,45.727,0,0,1,1.714-4.411l-.107.286v-4A8.034,8.034,0,0,1,7.518,6.929a8.411,8.411,0,0,1-1.161-1.5V5.393a7.657,7.657,0,0,1-.821-1.946,8.355,8.355,0,0,1-.286-2.2q0-.321.018-.643T5.321,0V.036L6.786.25Q6.75.464,6.732.732t-.018.518a6.533,6.533,0,0,0,.25,1.8,7.307,7.307,0,0,0,.679,1.625V4.643A5.8,5.8,0,0,0,8.7,6.036a7.34,7.34,0,0,0,1.339,1.036h.036l.357.214v5.107l-.036.143a38.213,38.213,0,0,0-2.821,8.536l-.071.286Z" transform="translate(132 69)"/><path d="M15.393,2a11.3,11.3,0,0,1,2.214,3.393A10.832,10.832,0,0,1,18.464,9.5h0A10.621,10.621,0,0,1,15.393,17h0a10.621,10.621,0,0,1-3.071-7.5h0a10.832,10.832,0,0,1,.857-4.107A11.3,11.3,0,0,1,15.393,2Zm0-2q-.214.179-.929.857a10.92,10.92,0,0,0-1.536,1.911A15.04,15.04,0,0,0,11.5,5.643,10.922,10.922,0,0,0,10.857,9.5a10.628,10.628,0,0,0,.643,3.821,13,13,0,0,0,1.411,2.911,11.5,11.5,0,0,0,1.554,1.911q.75.714.929.857.179-.143.929-.857a11.5,11.5,0,0,0,1.554-1.911,13,13,0,0,0,1.411-2.911A10.628,10.628,0,0,0,19.929,9.5a10.922,10.922,0,0,0-.643-3.857,15.04,15.04,0,0,0-1.429-2.875A10.92,10.92,0,0,0,16.321.857Q15.607.179,15.393,0ZM11.607,18.286a12.075,12.075,0,0,1-3.143-2.429,11.5,11.5,0,0,1-2.143-3.286L6.286,12.5a12.968,12.968,0,0,1-.625-2.125,11.648,11.648,0,0,1,.018-4.714,11.9,11.9,0,0,1,.714-2.232L6.357,3.5l.286-.643,4.036,1.536L10.143,5.75,7.464,4.714A10.706,10.706,0,0,0,7.679,12l-.036-.071a10.755,10.755,0,0,0,1.893,2.946A10.193,10.193,0,0,0,12.214,17h.071Zm.25,2.429a11.467,11.467,0,0,1-4.429-.857,12.1,12.1,0,0,1-3.661-2.339,11.841,11.841,0,0,1-3.732-7.8V9.679L0,9l4.143-.679.25,1.429-2.821.464a10.139,10.139,0,0,0,1.143,3.571A11.187,11.187,0,0,0,5,16.643a10.533,10.533,0,0,0,3.143,1.929,10.183,10.183,0,0,0,3.714.679h0Zm7.321-2.429L18.5,17a10.016,10.016,0,0,0,4.607-5l.036-.071a8.913,8.913,0,0,0,.536-1.839,11.258,11.258,0,0,0,.179-2.018,10.627,10.627,0,0,0-.143-1.75,10.21,10.21,0,0,0-.429-1.679l.036.071L20.643,5.75l-.5-1.357,4.036-1.536.286.643a10.894,10.894,0,0,1,.661,2.161,12.266,12.266,0,0,1,.232,2.411,12.569,12.569,0,0,1-.214,2.321,10.967,10.967,0,0,1-.643,2.179V12.5a11.6,11.6,0,0,1-2.143,3.339A11.487,11.487,0,0,1,19.25,18.25l-.071.036Zm-.25,2.429V19.25a10.282,10.282,0,0,0,3.75-.679,10.867,10.867,0,0,0,3.107-1.911,10.314,10.314,0,0,0,2.25-2.839,9.7,9.7,0,0,0,1.179-3.536v-.071L26.393,9.75l.25-1.429L30.786,9l-.036.679A11.972,11.972,0,0,1,29.607,14a12.386,12.386,0,0,1-2.589,3.5,11.925,11.925,0,0,1-3.661,2.357,11.375,11.375,0,0,1-4.393.857Z" transform="translate(97 70)"/><path d="M13.071,15.071,7.143,9.143H17.429l-4,3.964,1.036,1.036,6.5-6.464H3.607l8,8v9.357H7.536V26.5h9.536V25.036h-4V15.071ZM5.429,11.5A4.7,4.7,0,0,1,2.607,9.911,4.486,4.486,0,0,1,1.464,6.857a4.5,4.5,0,0,1,1.375-3.3,4.5,4.5,0,0,1,3.3-1.375,4.559,4.559,0,0,1,3.2,1.232,4.453,4.453,0,0,1,1.482,3.018v.036h1.464a5.892,5.892,0,0,0-1.911-4.089A5.965,5.965,0,0,0,6.143.714,5.916,5.916,0,0,0,1.8,2.518,5.916,5.916,0,0,0,0,6.857,5.916,5.916,0,0,0,1.8,11.2,5.916,5.916,0,0,0,6.143,13h.411l.375-.036H6.893ZM16.964,6.464,20.429.75,19.179,0,15.25,6.464Z" transform="translate(134 35)"/><path d="M0,10.571V24.357H2.5V22.893H1.464V12.036h6.5V22.893H6.929v1.464h3.536V22.893H9.429V12.036h6.5V22.893H14.893v1.464h3.536V22.893H17.393V12.036h6.214V22.893H22.571v1.464h2.5V10.571ZM11.25,0H9.75V8.679h1.464V6.643h.036a4.438,4.438,0,0,0,2.875-.964,2.9,2.9,0,0,0,0-4.7A4.386,4.386,0,0,0,11.25,0Zm0,5.179h-.036V1.464h.036a3.061,3.061,0,0,1,1.839.554,1.591,1.591,0,0,1,.768,1.3,1.591,1.591,0,0,1-.768,1.3,3.061,3.061,0,0,1-1.839.554Z" transform="translate(99 36)"/><path d="M11.5,6.036H0V28H18.786V6.036ZM1.464,26.536V7.5H5.643V26.536Zm5.643,0V7.5H11.5V26.536Zm10.25,0H12.964V7.5h4.393ZM8.821,1.143,7.893,0,5.75,1.786,3.607,0,2.679,1.143,5.75,3.679,8.821,1.143Zm4.214.786,2.143,1.786.929-1.143L13.036.036,9.964,2.571l.929,1.143,2.143-1.786Z" transform="translate(71 2)"/><path d="M21.857,20.536H17.5l-1.036-6.321H8.107L5.643,1.464H2.071V0H6.857L9.321,12.75h8.393l1.036,6.321h3.107ZM13.893,15.5a6.179,6.179,0,0,1-2.179,3.554A6.056,6.056,0,0,1,7.75,20.464,6.058,6.058,0,0,1,3.3,18.625a6.058,6.058,0,0,1-1.839-4.446,6.143,6.143,0,0,1,1.125-3.607A6.184,6.184,0,0,1,5.464,8.286h.071L5.25,6.821a7.87,7.87,0,0,0-3.786,2.8A7.407,7.407,0,0,0,0,14.143a7.68,7.68,0,0,0,.607,3.036,7.877,7.877,0,0,0,1.661,2.446A7.766,7.766,0,0,0,4.75,21.286a7.425,7.425,0,0,0,3,.607,7.483,7.483,0,0,0,5-1.821,7.606,7.606,0,0,0,2.643-4.536V15.5Zm-.036-3.964H12.393V7.5h3.964V8.964h-2.5Z" transform="translate(5 69)"/><path d="M7.464,18.75a9.265,9.265,0,0,0,2.786-.393q1.25-.393,2.5-.893a18.857,18.857,0,0,1,2.321-.893,22.548,22.548,0,0,1,2.571-.643h.143a15.468,15.468,0,0,1,1.607-.214q.857-.071,1.75-.071a19.132,19.132,0,0,1,2.339.143q1.161.143,2.3.393l-.143-.036.286-1.429a22.447,22.447,0,0,0-2.321-.393,21.387,21.387,0,0,0-2.5-.143q-.964,0-1.875.071t-1.8.214h.107a24.728,24.728,0,0,0-5.5,1.714l.143-.071q-1.357.536-2.554.911a7.25,7.25,0,0,1-2.7.268,10.075,10.075,0,0,1-3.054-.714,12.269,12.269,0,0,1-2.982-1.75L0,16a14.681,14.681,0,0,0,3.357,1.946,10.934,10.934,0,0,0,3.464.8h.643Zm10.071.179a25.047,25.047,0,0,0-2.857.714q-1.357.429-2.643.964l.143-.036q-1.357.536-2.554.893a8.063,8.063,0,0,1-2.7.286,10.075,10.075,0,0,1-3.054-.714,12.269,12.269,0,0,1-2.982-1.75L0,20.464a14.681,14.681,0,0,0,3.357,1.946,10.934,10.934,0,0,0,3.464.8h.643A8.892,8.892,0,0,0,10.25,22.8q1.25-.411,2.5-.911a17.113,17.113,0,0,1,2.321-.875,25.328,25.328,0,0,1,2.571-.625l.143-.036a15.466,15.466,0,0,1,1.607-.214q.857-.071,1.75-.071a18.993,18.993,0,0,1,2.357.143q1.143.143,2.286.393l-.143-.036.286-1.429a18.319,18.319,0,0,0-2.286-.375,24.051,24.051,0,0,0-2.464-.125q-.964,0-1.911.071t-1.839.214ZM13.786,2.607A1.274,1.274,0,0,1,14.2,1.75a1.229,1.229,0,0,1,.875-.357,1.169,1.169,0,0,1,.857.357,1.454,1.454,0,0,1,.429.821V6.357H12.321V7.821h4.036V9.429H12.321v1.464h4.036v1.821h1.429V2.607A2.558,2.558,0,0,0,16.946.75a2.741,2.741,0,0,0-3.768,0,2.685,2.685,0,0,0-.857,1.821V3.643h1.464Zm-6.821,0a1.274,1.274,0,0,1,.411-.857,1.229,1.229,0,0,1,.875-.357,1.169,1.169,0,0,1,.857.357,1.454,1.454,0,0,1,.429.821V15.286h1.429V2.607A2.587,2.587,0,0,0,10.143.75,2.643,2.643,0,0,0,8.25,0,2.643,2.643,0,0,0,6.357.75,2.685,2.685,0,0,0,5.5,2.571V3.643H6.964Z" transform="translate(3 36)"/><path d="M8.464,16.25H7V0L20.107,5.036,8.464,9.464Zm0-14.107v5.75L16,5.036ZM13.75,18.071q0,.321-.679.536a5.5,5.5,0,0,1-1.643.214,5.5,5.5,0,0,1-1.643-.214q-.679-.214-.679-.536,0-.286.679-.5a5.5,5.5,0,0,1,1.643-.214,5.5,5.5,0,0,1,1.643.214Q13.75,17.786,13.75,18.071Zm-2.321-5.143h-.75l-.714.036v1.464q.357,0,.732-.018t.732-.018a21.031,21.031,0,0,1,4.036.357,15.777,15.777,0,0,1,3.161.911,7.312,7.312,0,0,1,2.054,1.232,2.032,2.032,0,0,1,.714,1.393,1.946,1.946,0,0,1-.714,1.393,6.822,6.822,0,0,1-2.054,1.268,15.777,15.777,0,0,1-3.161.911,23.3,23.3,0,0,1-4.036.321,21.031,21.031,0,0,1-4.036-.357,13.772,13.772,0,0,1-3.161-.893,7.609,7.609,0,0,1-2.054-1.25,1.946,1.946,0,0,1-.714-1.393,2.27,2.27,0,0,1,1.089-1.7,9.285,9.285,0,0,1,2.982-1.411V13.643A10.62,10.62,0,0,0,1.5,15.554,3.526,3.526,0,0,0,0,18.286a3.239,3.239,0,0,0,.857,2.143A7.226,7.226,0,0,0,3.25,22.107,16.424,16.424,0,0,0,6.893,23.25a24.384,24.384,0,0,0,4.536.393,24.384,24.384,0,0,0,4.536-.393,16.424,16.424,0,0,0,3.643-1.143A7.226,7.226,0,0,0,22,20.429a3.239,3.239,0,0,0,.857-2.143A3.108,3.108,0,0,0,22,16.179a6.954,6.954,0,0,0-2.393-1.714,15.306,15.306,0,0,0-3.643-1.107A22.41,22.41,0,0,0,11.429,12.929Z" transform="translate(69 68)"/><path d="M6.893,5.607a4.192,4.192,0,0,0-3.054,1.25A4.1,4.1,0,0,0,2.571,9.893a4.145,4.145,0,0,0,1.268,3.071,4.192,4.192,0,0,0,3.054,1.25,4.192,4.192,0,0,0,3.054-1.25,4.145,4.145,0,0,0,1.268-3.071h0A4.261,4.261,0,0,0,9.929,6.857a4.133,4.133,0,0,0-3.036-1.25Zm0,7.143a2.734,2.734,0,0,1-2.036-.839,2.889,2.889,0,0,1,0-4.036,2.734,2.734,0,0,1,2.036-.839A2.866,2.866,0,0,1,9.75,9.893h0A2.866,2.866,0,0,1,6.893,12.75ZM2.571,14.643H4.036V25.929H2.571V14.643ZM9.75,16.571H5.714v1.464H9.75v1.607H5.714v1.464H9.75v1.429H5.714V24H9.75v1.929h1.464V14.643H9.75Zm3-9.179,1-1.071L6.893,0,0,6.321,1,7.393,6.893,1.964,12.75,7.393Zm8.393,16.25a4.066,4.066,0,0,1-1-1.571Q19.714,21,18.679,17.75l-.179-.536q-.821-2.571-1.179-3.518a4.7,4.7,0,0,0-.964-1.589,5.222,5.222,0,0,0-1.679-1.179,5.042,5.042,0,0,0-2.071-.429h-.25v1.464h.286a3.544,3.544,0,0,1,1.464.3,3.613,3.613,0,0,1,1.179.839h0A3.268,3.268,0,0,1,16,14.339q.286.8,1.107,3.339l.179.536q1.036,3.286,1.554,4.554a5.148,5.148,0,0,0,1.339,1.982,4.249,4.249,0,0,0,1.25.8,4.3,4.3,0,0,0,1.5.339h0l.143-1.464a3.324,3.324,0,0,1-1.054-.232,2.943,2.943,0,0,1-.875-.554Z" transform="translate(68 35)"/><path d="M23.679,0H8.321L0,12.357H32ZM9.071,1.464h5.071l-.321.929h4.357l-.321-.929h5.071l2.179,3.25H18.464a2.127,2.127,0,0,0-.946-.875,3.565,3.565,0,0,0-3.036,0,2.365,2.365,0,0,0-.982.875H6.893Zm8.143,3.821q0,.107-.321.3a1.712,1.712,0,0,1-.893.2,1.712,1.712,0,0,1-.893-.2q-.321-.2-.321-.3,0-.071.321-.268a1.712,1.712,0,0,1,.893-.2,1.712,1.712,0,0,1,.893.2Q17.214,5.214,17.214,5.286ZM5.929,6.179h7.607a2.127,2.127,0,0,0,.946.875,3.565,3.565,0,0,0,3.036,0,2.365,2.365,0,0,0,.982-.875h7.571l3.179,4.714H20.321l-.857-2.679H12.536l-.857,2.679H2.75Zm12.857,4.714H13.214l.393-1.214h4.786Z" transform="translate(32 42)"/><path d="M29.357,1.464V0H11.75V1.464h7.679L18.071,3.679H8.821V5.143h5.607L12.857,7.679H5.893V9.143H9.786L8,12.071H2.929v1.464H5.143L3.107,16.821H0v1.464H29.357V16.821H4.857l2-3.286h22.5V12.071H9.714L11.5,9.143H29.357V7.679H14.571l1.571-2.536H29.357V3.679H19.786l1.357-2.214Z" transform="translate(129 7)"/><path d="M0,23.75l2.643-2.643,1.036,1.036L1.036,24.786,0,23.75Zm22.036-9.107a2.055,2.055,0,0,1-.607,1.482,1.967,1.967,0,0,1-1.464.625,2.008,2.008,0,0,1-1.5-.625,2.113,2.113,0,0,1,0-2.964,2.008,2.008,0,0,1,1.5-.625,1.967,1.967,0,0,1,1.464.625A2.055,2.055,0,0,1,22.036,14.643Zm-5.179,1.429q-.25.107-.554.214a5.388,5.388,0,0,1-.625.179h-.036v-.071a1.313,1.313,0,0,1-.3.107,1.561,1.561,0,0,1-.339.036,1.248,1.248,0,0,1-.3.036h-.339a5.946,5.946,0,0,1-4.339-1.786,5.9,5.9,0,0,1-1.8-4.357h0q0-.286.018-.536a2.452,2.452,0,0,1,.089-.5l-.036.036a.7.7,0,0,0,.054-.143.587.587,0,0,0,.018-.143h0a5.9,5.9,0,0,1,.607-1.679A6.06,6.06,0,0,1,10,6.071l2.857-2.857a6.176,6.176,0,0,1,2-1.393,6.08,6.08,0,0,1,2.464-.5,5.916,5.916,0,0,1,4.339,1.8,5.916,5.916,0,0,1,1.8,4.339,6.243,6.243,0,0,1-.446,2.357A5.722,5.722,0,0,1,21.75,11.75h0a4.6,4.6,0,0,1,.589.464,2.314,2.314,0,0,1,.446.571h0a8.314,8.314,0,0,0,1.482-2.357,7.137,7.137,0,0,0,.554-2.786,7.425,7.425,0,0,0-.607-3,7.812,7.812,0,0,0-1.643-2.429A7.808,7.808,0,0,0,17.179,0a7.4,7.4,0,0,0-2.946.589,7.936,7.936,0,0,0-2.411,1.589h0L8.964,5.036A7.571,7.571,0,0,0,7.589,6.929a7.238,7.238,0,0,0-.732,2.286l-.036.036q-.107.643-.214,1.411t-.143,1.554v.071a16.041,16.041,0,0,1-.161,1.7q-.125.839-.3,1.625l.036-.107a9.978,9.978,0,0,1-1.071,2.268q-.821,1.375-1.25,1.946l-.321.5,1.143,1.179.536-.357q.536-.393,1.875-1.214A9.4,9.4,0,0,1,9.179,18.75a13.582,13.582,0,0,1,1.536-.286q.821-.107,1.679-.143h.071q.786-.071,1.518-.143a12.949,12.949,0,0,0,1.411-.214L15.25,18a7.026,7.026,0,0,0,1.357-.268,7.818,7.818,0,0,0,1.214-.482h-.036a2.667,2.667,0,0,1-.518-.518,4.111,4.111,0,0,1-.411-.661ZM8.786,17.357a11.624,11.624,0,0,0-1.411.571q-.661.321-1.268.679h.071q.357-.607.679-1.268T7.429,16v-.107q.107-.357.2-.768a6.448,6.448,0,0,0,.125-.875v-.036a9.805,9.805,0,0,0,.589.857q.3.393.625.75h0a6.306,6.306,0,0,0,.75.643,9.735,9.735,0,0,0,.821.536l.036.036a8.2,8.2,0,0,0-.964.125,8.82,8.82,0,0,0-.929.232l.107-.036Z" transform="translate(36 4)"/><path d="M14.716,15.7H0V2.62L10.914,0,21.829,2.62V15.7Zm5.77-1.342V3.677l-9.572-2.3-9.573,2.3V14.36h5.77V10.334h7.6V14.36Zm-7.112,0V11.676H8.454V14.36Z" transform="translate(101 8)"/></g></svg>