<svg xmlns="http://www.w3.org/2000/svg" xmlns:xlink="http://www.w3.org/1999/xlink" width="20" height="20" viewBox="0 0 20 20"><defs><style>.a{clip-path:url(#b);}</style><clipPath id="b"><rect width="20" height="20"/></clipPath></defs><g id="a" class="a"><path d="M2095.01,263a2.165,2.165,0,0,1-1.16-.592q-.159-.122-.327-.247c-1.1-.822-2.336-1.754-2.336-3.4a2.128,2.128,0,0,1,2.065-2.182,2.284,2.284,0,0,0,3.516,0,2.128,2.128,0,0,1,2.065,2.182c0,1.642-1.24,2.573-2.334,3.395l-.036.027c-.1.075-.2.148-.292.221A2.178,2.178,0,0,1,2095.01,263Zm-5.266-.017a.66.66,0,0,1-.135-.015,4.136,4.136,0,0,1-2.687-2.3,4.5,4.5,0,0,1-.6-3.258.7.7,0,0,1,.385-.428l.658-.324a.663.663,0,0,1,.3-.069.7.7,0,0,1,.661.469l.226.648a.647.647,0,0,1-.322.8l-.121.059a.3.3,0,0,0-.127.177c-.062.186-.06.555.307,1.252.457.868.818,1,.993,1a.233.233,0,0,0,.094-.016l.192-.094a.674.674,0,0,1,.3-.069.7.7,0,0,1,.5.214l.5.512a.674.674,0,0,1,.186.6.639.639,0,0,1-.351.464l-.6.294A.8.8,0,0,1,2089.745,262.983Zm1.764-7.566h-3.7a6.865,6.865,0,0,1-.827-.029,1.094,1.094,0,0,1-.656-.285,1.028,1.028,0,0,1-.291-.638,6.36,6.36,0,0,1-.03-.806v-2.339a1.833,1.833,0,0,1,.031-.432,1.08,1.08,0,0,1,.808-.787,1.973,1.973,0,0,1,.442-.03h.038a1.436,1.436,0,0,0,.174,0,.368.368,0,0,0,.217-.112.916.916,0,0,0,.068-.094l0-.007.026-.037.083-.122.017-.025.008-.012a1.738,1.738,0,0,1,.375-.441,1.136,1.136,0,0,1,.3-.155,1.557,1.557,0,0,1,.51-.06h1.114a1.561,1.561,0,0,1,.51.06,1.116,1.116,0,0,1,.3.155,1.708,1.708,0,0,1,.373.438l.008.012.02.028.083.122.013.019a.958.958,0,0,0,.086.119.36.36,0,0,0,.216.112,1.391,1.391,0,0,0,.173,0h.038a1.98,1.98,0,0,1,.442.03,1.076,1.076,0,0,1,.807.788,1.805,1.805,0,0,1,.032.432v2.339a6.309,6.309,0,0,1-.031.806,1.043,1.043,0,0,1-.291.638,1.1,1.1,0,0,1-.656.285A6.876,6.876,0,0,1,2091.509,255.417Zm-1.773-4.278a1.426,1.426,0,1,0,1.463,1.426A1.446,1.446,0,0,0,2089.736,251.139Zm6.935,4.161a2.59,2.59,0,0,1-1.928-.609.989.989,0,0,1-.215-.853,3.134,3.134,0,0,1,.726-1.322.171.171,0,0,1,.125-.048.256.256,0,0,1,.122.03,2.275,2.275,0,0,0,2.342,0,.249.249,0,0,1,.121-.03.174.174,0,0,1,.126.048,3.13,3.13,0,0,1,.725,1.322.988.988,0,0,1-.216.854A2.589,2.589,0,0,1,2096.671,255.3Zm0-3.036a1.632,1.632,0,1,1,1.674-1.632A1.654,1.654,0,0,1,2096.671,252.265Z" transform="translate(-2082.5 -246)"/></g></svg>