<svg xmlns="http://www.w3.org/2000/svg" xmlns:xlink="http://www.w3.org/1999/xlink" width="32" height="32" viewBox="0 0 32 32"><defs><style>.a{clip-path:url(#b);}</style><clipPath id="b"><rect width="32" height="32"/></clipPath></defs><g id="a" class="a"><g transform="translate(4.5 4.5)"><path d="M10.277,9.864l.826,2.587h-2.7l.81-2.587c.187-.623.343-1.356.5-1.964h.031C9.9,8.508,10.074,9.225,10.277,9.864ZM22.5,4.167V18.833A3.677,3.677,0,0,1,18.833,22.5H4.167A3.678,3.678,0,0,1,.5,18.833V4.167A3.677,3.677,0,0,1,4.167.5H18.833A3.677,3.677,0,0,1,22.5,4.167Zm-8.062,12.71-3.413-10.5H8.578l-3.366,10.5H7.191L8.1,13.9H11.43l.951,2.977Zm3.241-7.59H15.746v7.59h1.933Zm.109-2.119a1.076,1.076,0,0,0-2.151,0,1.076,1.076,0,0,0,2.151,0Z"/></g></g></svg>