<svg xmlns="http://www.w3.org/2000/svg" xmlns:xlink="http://www.w3.org/1999/xlink" width="32" height="32" viewBox="0 0 32 32"><defs><style>.a{clip-path:url(#b);}.b{fill:#FFFFFF;}</style><clipPath id="b"><rect width="32" height="32"/></clipPath></defs><g id="a" class="a"><path class="b" d="M0,32V54.405H22.405V32ZM12.193,49.474A2.863,2.863,0,0,1,9.047,52.65a3.271,3.271,0,0,1-3.161-1.925L7.6,49.689c.33.585.63,1.08,1.355,1.08.69,0,1.13-.27,1.13-1.325V42.287h2.105v7.187Zm4.981,3.176a4.041,4.041,0,0,1-3.836-2.15l1.715-.99a2.3,2.3,0,0,0,2.075,1.28c.87,0,1.43-.435,1.43-1.04,0-.72-.57-.975-1.535-1.4l-.525-.225c-1.52-.645-2.526-1.46-2.526-3.176a2.813,2.813,0,0,1,3.081-2.781,3.1,3.1,0,0,1,2.991,1.685L18.4,44.9a1.432,1.432,0,0,0-1.355-.9.914.914,0,0,0-1.005.9c0,.63.39.885,1.3,1.28l.525.225c1.79.765,2.8,1.55,2.8,3.311,0,1.89-1.49,2.931-3.486,2.931Z" transform="translate(4.8 -27.2)"/></g></svg>