<svg xmlns="http://www.w3.org/2000/svg" xmlns:xlink="http://www.w3.org/1999/xlink" width="32" height="32" viewBox="0 0 32 32"><defs><style>.a{clip-path:url(#b);}</style><clipPath id="b"><rect width="32" height="32"/></clipPath></defs><g id="a" class="a"><g transform="translate(-60.321 2.792)"><path d="M73.345,10.463a2.269,2.269,0,0,1-.155-1.617,3.734,3.734,0,0,1,.949-1.384c1.08-1.08,2.41-1.873,3.466-2.971A4.414,4.414,0,0,0,78.84,2.337,4.339,4.339,0,0,0,78.786.5a2.815,2.815,0,0,1,.585,2.375A5.366,5.366,0,0,1,78.082,5.32a11.912,11.912,0,0,1-1.617,1.533,6.725,6.725,0,0,0-1.76,1.891,2.468,2.468,0,0,0-.2,2.058c.4,1.157,1.33,2.016,1.838,3.108-.561-.5-1.11-1.008-1.623-1.551A7.434,7.434,0,0,1,73.345,10.463Zm3.043-.907a3.526,3.526,0,0,0,.984,2.548,1.832,1.832,0,0,1,.543,1.145,2.078,2.078,0,0,1-.752,1.527c.1-.012.173-.1.257-.149A3.987,3.987,0,0,0,79,12.987a1.655,1.655,0,0,0-.113-1.5,13.31,13.31,0,0,1-1-1.563,1.482,1.482,0,0,1-.072-1.038,2.939,2.939,0,0,1,.811-1.163,20.1,20.1,0,0,1,3.156-2.213A12.113,12.113,0,0,0,77.9,7.3,3.442,3.442,0,0,0,76.388,9.556Zm6.521,4.486a1.521,1.521,0,0,1,1.408,1.169,1.938,1.938,0,0,1-.513,1.557,7.133,7.133,0,0,1-2.148,1.611.931.931,0,0,0-.2.173,7.6,7.6,0,0,0,2.917-1.33,2.538,2.538,0,0,0,.966-1.516,1.62,1.62,0,0,0-.531-1.432,2.221,2.221,0,0,0-1.784-.513,1.494,1.494,0,0,0-1.014.43A3.1,3.1,0,0,1,82.909,14.043ZM69.957,15.749a12.409,12.409,0,0,0,2.386.322c.716.048,1.432.06,2.154.054a27.634,27.634,0,0,0,5.56-.561,1.5,1.5,0,0,0,.519-.179,8.234,8.234,0,0,1,.966-.507c-1.486.239-2.977.442-4.48.537a35.589,35.589,0,0,1-4.582.054,4.464,4.464,0,0,1-1.289-.233c-.1-.042-.227-.125-.179-.251a.95.95,0,0,1,.424-.322,13.8,13.8,0,0,1,2.07-.686,8.6,8.6,0,0,0-3.49.758,2.4,2.4,0,0,0-.716.418.209.209,0,0,0,.012.3A1.593,1.593,0,0,0,69.957,15.749Zm9.665,1.641a25.542,25.542,0,0,1-3.15.412,20.306,20.306,0,0,1-3.46-.107,1.943,1.943,0,0,1-.638-.167.335.335,0,0,1-.2-.281c.012-.2.179-.334.3-.477a3.575,3.575,0,0,0-1.05.513.48.48,0,0,0-.227.441.772.772,0,0,0,.436.429,5.112,5.112,0,0,0,1.42.418,16.31,16.31,0,0,0,3.7.119A18.844,18.844,0,0,0,80.606,18,3.5,3.5,0,0,1,79.622,17.39Zm-6.557,2.064a2.633,2.633,0,0,0-.949.429.429.429,0,0,0-.179.466,1,1,0,0,0,.489.465,5.413,5.413,0,0,0,1.659.513,11.758,11.758,0,0,0,3.878-.054,9.916,9.916,0,0,0,2.219-.662,11.1,11.1,0,0,1-1.336-.656,20.408,20.408,0,0,1-2.261.316,15.238,15.238,0,0,1-3.037-.131c-.239-.054-.537-.078-.7-.286C72.767,19.681,72.958,19.555,73.065,19.454Zm8.161,3.836a9.652,9.652,0,0,0,2.44-.758c.238-.137.531-.287.609-.573.042-.274-.245-.418-.448-.531a.414.414,0,0,1,.083.519,1.716,1.716,0,0,1-.883.5,18.658,18.658,0,0,1-3.037.507,46.8,46.8,0,0,1-8.126.078,10.957,10.957,0,0,1-2.7-.519c-.137-.06-.346-.119-.346-.3a.665.665,0,0,1,.346-.328,5.108,5.108,0,0,1,2-.531,1.241,1.241,0,0,0-.674-.125,5.906,5.906,0,0,0-1.694.352,3.869,3.869,0,0,0-1.331.71c-.149.131-.286.382-.131.561a1.768,1.768,0,0,0,.937.4,41.4,41.4,0,0,0,5.56.561A33.278,33.278,0,0,0,81.227,23.29Zm2.446.322a20.645,20.645,0,0,1-3.442.716A39.14,39.14,0,0,1,74.2,24.6a28.7,28.7,0,0,1-3.651-.334,3.111,3.111,0,0,0,.949.34,23.282,23.282,0,0,0,4.122.382,34.585,34.585,0,0,0,6.037-.358,9.409,9.409,0,0,0,2.738-.811,1.646,1.646,0,0,0,.966-1.11A4.03,4.03,0,0,1,83.673,23.612Z" transform="translate(0 0)"/></g></g></svg>