<svg xmlns="http://www.w3.org/2000/svg" xmlns:xlink="http://www.w3.org/1999/xlink" width="32" height="32" viewBox="0 0 32 32"><defs><style>.a{clip-path:url(#b);}</style><clipPath id="b"><rect width="32" height="32"/></clipPath></defs><g id="a" class="a"><path d="M11.52,0a5.729,5.729,0,0,0,.127,8.227l3.27,3.271-3.064,3.065a6.23,6.23,0,0,1,1.353,6.747l9.167-9.167a.91.91,0,0,0,0-1.288ZM9.845,1.668.658,10.855a.91.91,0,0,0,0,1.288C4.281,15.755,7.894,19.4,11.516,23a5.734,5.734,0,0,0-.077-8.177L8.114,11.5l3.067-3.067A6.21,6.21,0,0,1,9.845,1.668Z" transform="translate(4.508 4.5)"/></g></svg>