<svg xmlns="http://www.w3.org/2000/svg" xmlns:xlink="http://www.w3.org/1999/xlink" width="32" height="32" viewBox="0 0 32 32"><defs><style>.a{clip-path:url(#b);}</style><clipPath id="b"><rect width="32" height="32"/></clipPath></defs><g id="a" class="a"><path d="M24.39,11.013a5.375,5.375,0,0,1-6.912-8.234l.548-.408a5.374,5.374,0,0,0,6.858,8.169l-.494.473m-1.913,4.4A8.065,8.065,0,0,1,12.115,3.048L13.1,2.36A8.06,8.06,0,0,0,23.347,14.571l-.871.838m-1.215,5.246A11.288,11.288,0,1,1,6.751,3.36L7.944,2.51A11.278,11.278,0,0,0,22.326,19.634Z" transform="translate(2.198 3.172)"/></g></svg>