<svg xmlns="http://www.w3.org/2000/svg" xmlns:xlink="http://www.w3.org/1999/xlink" width="120" height="211.2" viewBox="0 0 120 211.2"><defs><style>.a{clip-path:url(#b);}.b{fill:#17182b;}.c{fill:#04050d;}.d{fill:#090a16;}</style><clipPath id="b"><rect width="120" height="211.2"/></clipPath></defs><g id="a" class="a"><path class="b" d="M60,211.2a60.424,60.424,0,0,1-12.092-1.219,59.654,59.654,0,0,1-21.454-9.028,60.18,60.18,0,0,1-21.739-26.4,59.676,59.676,0,0,1-3.5-11.263A60.423,60.423,0,0,1,0,151.2H28.8A31.235,31.235,0,0,0,60,182.4h.308A31.359,31.359,0,0,0,91.2,151.508V151.5c0-.014,0-.027,0-.041s0-.027,0-.041,0-.014,0-.021v-.079s0-.007,0-.01,0-.007,0-.01v-.1A31.262,31.262,0,0,0,60.143,120c4.023-.01,6.885-2.747,10.79-3.546,3.854-.789,7.855-3.288,11.474-4.819,3.556-1.5,7.044-2.194,10.25-4.36,1.882-1.271,4.6-.19,6.338-1.675,1.182,1.012,2.336,2.08,3.43,3.174a60.087,60.087,0,0,1,12.858,19.072,59.688,59.688,0,0,1,3.5,11.263A60.423,60.423,0,0,1,120,151.2q0,.207,0,.416a60.452,60.452,0,0,1-1.218,11.676,59.674,59.674,0,0,1-9.028,21.454A60.337,60.337,0,0,1,93.621,200.9l-.035.024-.039.026A59.768,59.768,0,0,1,60,211.2ZM60,120h-.007a60.4,60.4,0,0,1-12.085-1.219,59.674,59.674,0,0,1-21.454-9.028,60.173,60.173,0,0,1-21.738-26.4,59.687,59.687,0,0,1-3.5-11.263,60.579,60.579,0,0,1,0-24.184,59.675,59.675,0,0,1,9.028-21.454,60.173,60.173,0,0,1,26.4-21.738,59.688,59.688,0,0,1,11.263-3.5A60.424,60.424,0,0,1,60,0a43.09,43.09,0,0,1,2.919,14.291A45.175,45.175,0,0,1,60,28.8a31.2,31.2,0,1,0,0,62.4s3.361,7.2,3.361,14.4S60,120,60,120Z"/><path class="c" d="M39,105.6h0c-1.733-1.484-5.008.581-6.891-.691C28.9,102.741,22.551,101.2,19,99.7c-3.619-1.531-5.725-1.228-9.579-2.017C5.51,96.882,4.165,91.21.142,91.2a31,31,0,0,0,21.909-9.149A30.99,30.99,0,0,0,31.2,60,31.235,31.235,0,0,0,0,28.8V0H60V28.8H51.26a60.048,60.048,0,0,1,4.025,7.845,59.654,59.654,0,0,1,3.5,11.263A60.423,60.423,0,0,1,60,60a60.423,60.423,0,0,1-1.219,12.092,59.653,59.653,0,0,1-3.5,11.263,60,60,0,0,1-5.532,10.192,60.452,60.452,0,0,1-7.327,8.88c-1.095,1.095-2.249,2.162-3.43,3.174Z" transform="translate(60)"/><path class="d" d="M125,190a60.439,60.439,0,0,1,12.092,1.219,59.675,59.675,0,0,1,21.454,9.028A60.325,60.325,0,0,1,164,204.4a59.993,59.993,0,0,1-15.641,9.685,59.692,59.692,0,0,1-11.263,3.5A60.423,60.423,0,0,1,125,218.8Z" transform="translate(-65 -98.8)"/></g></svg>