<svg xmlns="http://www.w3.org/2000/svg" xmlns:xlink="http://www.w3.org/1999/xlink" width="190" height="50" viewBox="0 0 190 50"><defs><style>.a{clip-path:url(#b);}.b{fill:#fbb77d;}.c{fill:#f68925;}.d{fill:#f9a04e;}.e{fill:#fff4ec;}.f{fill:#fad8bd;}.g{fill:#fde5d3;}.h{fill:#2f3543;}</style><clipPath id="b"><rect width="190" height="50"/></clipPath></defs><g id="a" class="a"><g transform="translate(4 1.883)"><path class="b" d="M143.7,188.571,123.678,177.01,103.66,188.571l20.018,11.556Z" transform="translate(-103.66 -177.01)"/><path class="c" d="M146.62,236.493l20.018-11.561V201.82L146.62,213.376Z" transform="translate(-126.602 -190.259)"/><path class="d" d="M123.678,236.493,103.66,224.932V201.82l20.018,11.556Z" transform="translate(-103.66 -190.259)"/><path class="e" d="M144.86,203.717l-12.05-6.957-12.05,6.957,12.05,6.957Z" transform="translate(-112.792 -187.557)"/><path class="f" d="M146.62,232.561l12.05-6.957V211.69l-12.05,6.957Z" transform="translate(-126.602 -195.53)"/><path class="g" d="M132.81,232.561,120.76,225.6V211.69l12.05,6.957Z" transform="translate(-112.792 -195.53)"/><g transform="translate(51.537 12.479)"><path class="c" d="M214.26,207.9a1.653,1.653,0,0,1,1.65-1.65,1.629,1.629,0,0,1,1.622,1.65,1.6,1.6,0,0,1-1.622,1.594A1.641,1.641,0,0,1,214.26,207.9Zm.391,4.194h2.46v13.979h-2.46Z" transform="translate(-214.26 -205.104)"/><path class="c" d="M251.569,223.446v9H249.08v-8.723a3.272,3.272,0,0,0-3.327-3.355,3.514,3.514,0,0,0-3.495,3.495v8.583H239.77v-8.723a3.272,3.272,0,0,0-3.327-3.355,3.538,3.538,0,0,0-3.523,3.495v8.583h-2.46V218.47h2.265l.112,1.705a5.382,5.382,0,0,1,4.25-1.985,4.968,4.968,0,0,1,4.473,2.544,5.732,5.732,0,0,1,4.809-2.544,5.052,5.052,0,0,1,5.2,5.256Z" transform="translate(-222.911 -211.48)"/><path class="c" d="M282.42,225.459c0-4.054,2.74-7.269,6.822-7.269s6.822,3.215,6.822,7.269-2.768,7.269-6.822,7.269S282.42,229.485,282.42,225.459Zm11.211,0c0-2.824-1.705-5.088-4.389-5.088s-4.389,2.265-4.389,5.088,1.65,5.06,4.389,5.06S293.631,228.283,293.631,225.459Z" transform="translate(-250.659 -211.48)"/><path class="h" d="M331.018,218.79v13.979h-2.265l-.14-1.873a5.62,5.62,0,0,1-4.445,2.153,5.5,5.5,0,0,1-5.508-5.564v-8.7h2.46v8.443a3.61,3.61,0,0,0,3.663,3.607,3.683,3.683,0,0,0,3.746-3.607V218.79Z" transform="translate(-270.012 -211.8)"/><path class="h" d="M365.922,226.157l-9.282-8.332v6.934h-2.46V203.79h2.46v12.441l5.927-5.452H365.7l-6.682,6.151,6.906,6.207Z" transform="translate(-288.981 -203.79)"/><path class="h" d="M397.068,218.79v13.979H394.8l-.14-1.873a5.62,5.62,0,0,1-4.445,2.153,5.5,5.5,0,0,1-5.508-5.564v-8.7h2.46v8.443a3.61,3.61,0,0,0,3.663,3.607,3.683,3.683,0,0,0,3.746-3.607V218.79Z" transform="translate(-305.285 -211.8)"/><path class="h" d="M433.65,217.769c0,4.054-2.488,7.269-6.43,7.269a5.736,5.736,0,0,1-4.669-2.293l-.112,2.013H420.23V203.79h2.432v8.863a5.8,5.8,0,0,1,4.557-2.153C431.162,210.5,433.65,213.715,433.65,217.769Zm-2.4,0c0-2.824-1.677-5.088-4.417-5.088a4.438,4.438,0,0,0-4.166,3.579v3.02a4.411,4.411,0,0,0,4.166,3.551c2.74,0,4.417-2.237,4.417-5.06Z" transform="translate(-324.254 -203.79)"/><path class="h" d="M453.83,225.459c0-4.054,2.74-7.269,6.822-7.269s6.822,3.215,6.822,7.269-2.768,7.269-6.822,7.269S453.83,229.485,453.83,225.459Zm11.211,0c0-2.824-1.705-5.088-4.389-5.088s-4.389,2.265-4.389,5.088,1.65,5.06,4.389,5.06S465.041,228.283,465.041,225.459Z" transform="translate(-342.197 -211.48)"/></g><g transform="translate(177.904 16.16)"><path class="h" d="M487.817,212.175a1.883,1.883,0,1,1-1.883,1.883,1.883,1.883,0,0,1,1.883-1.883m0-.485a2.367,2.367,0,1,0,2.367,2.367,2.37,2.37,0,0,0-2.367-2.367Z" transform="translate(-485.45 -211.69)"/><path class="h" d="M490.417,216.625h-.447l-.433-.843h-.2v.843h-.4V214.64h.82a.586.586,0,0,1,.587.592.53.53,0,0,1-.415.522l.48.867Zm-.433-1.393a.238.238,0,0,0-.242-.242h-.405v.489h.405a.238.238,0,0,0,.242-.242Z" transform="translate(-487.314 -213.265)"/></g></g></g></svg>