<svg xmlns="http://www.w3.org/2000/svg" xmlns:xlink="http://www.w3.org/1999/xlink" width="40" height="40" viewBox="0 0 40 40"><defs><style>.a{clip-path:url(#b);}</style><clipPath id="b"><rect width="40" height="40"/></clipPath></defs><g id="a" class="a"><path d="M0,30.371V28.889H5.926V15.555H0L20,0l7.776,6.048-.019-2.681H34.4L34.4,11.2,40,15.555H34.074V28.889H40v1.482Zm32.593-1.482V15.555H7.407V28.889h2.963V17.778h6.667V28.889Zm-17.037,0V19.259h-3.7v9.629ZM35.682,14.074,20,1.877,4.318,14.074ZM29.265,7.187l3.653,2.835,0-5.173H29.249ZM20,24.445V17.778h9.629v6.667Zm1.481-1.482h6.667v-3.7H21.481Z" transform="translate(0 9.629)"/></g></svg>