<svg xmlns="http://www.w3.org/2000/svg" xmlns:xlink="http://www.w3.org/1999/xlink" width="32" height="32" viewBox="0 0 32 32"><defs><style>.a{clip-path:url(#b);}</style><clipPath id="b"><rect width="32" height="32"/></clipPath></defs><g id="a" class="a"><path d="M22.2,21.536l-.467-.445a6.126,6.126,0,0,0-.744-.82l0,0q-.412-.374-.856-.712-.356-.245-.979-.59a1.472,1.472,0,0,1-.752-.758l0-.009-.044-.022a2.914,2.914,0,0,0,.545-.106l-.021.006.524-.144a2.838,2.838,0,0,1,.729-.122h.006a3.194,3.194,0,0,0,.779-.128l-.023.006q.178-.044.367-.1t.323-.1v-.155q-.133-.2-.323-.456a2.356,2.356,0,0,0-.408-.43l0,0q-.579-.511-1.2-.99a14.518,14.518,0,0,0-1.206-.843l-.063-.037a4.584,4.584,0,0,0-.759-.4l-.031-.011q-.412-.167-.812-.367a1.507,1.507,0,0,0-.3-.109l-.01,0a.474.474,0,0,1-.267-.155h0a2.758,2.758,0,0,1-.327-.56l-.007-.018q-.133-.312-.289-.6-.334-.646-.646-1.313t-.6-1.336q-.2-.445-.367-.89a4.963,4.963,0,0,0-.424-.867l.012.021a15.974,15.974,0,0,0-1.224-1.8l.026.035A13.4,13.4,0,0,0,11,4.734l-.007-.006a16.207,16.207,0,0,0-1.5-1.247l-.045-.032q-.824-.6-1.8-1.179a3.4,3.4,0,0,0-.888-.362L6.733,1.9,5.709,1.646,5.131,1.6q-.289-.022-.579-.022A1.545,1.545,0,0,1,4.2,1.323a3.294,3.294,0,0,0-.325-.271l-.009-.006A10.75,10.75,0,0,0,1.983.19L1.9.166A1.225,1.225,0,0,0,1.287,0,1.246,1.246,0,0,0,.828.088l.008,0A1.252,1.252,0,0,0,.1.858L.1.868A1.374,1.374,0,0,0,0,1.4a1.394,1.394,0,0,0,.319.89l0,0q.5.667.767,1.049.2.268.412.557a3.016,3.016,0,0,1,.338.58l.007.019a2.054,2.054,0,0,1,.13.374l0,.015q.044.189.111.412.2.511.378,1.049A6.69,6.69,0,0,0,2.9,7.381l-.017-.037q.133.245.268.478t.289.456A.8.8,0,0,0,3.66,8.5l0,0a.374.374,0,0,1,.155.288h0a1.22,1.22,0,0,0-.2.539v.006a3.889,3.889,0,0,1-.141.639l.007-.028A6.691,6.691,0,0,0,3.2,12.7l0-.029a5.209,5.209,0,0,0,.747,2.392l-.013-.023a4.811,4.811,0,0,0,.59.724.843.843,0,0,0,1.017.187l0,0a.852.852,0,0,0,.568-.761v0a9.017,9.017,0,0,1,.2-1.207l-.012.062a.548.548,0,0,0,.035-.194c0-.014,0-.028,0-.041v0q-.011-.1.122-.189v.044q.133.312.278.623t.3.623A7.761,7.761,0,0,0,7.9,16.02l0,0a7.12,7.12,0,0,0,1.037.921l.02.014a3.6,3.6,0,0,1,.521.486l0,0a1.79,1.79,0,0,0,.515.418l.009,0v-.022h.044a.424.424,0,0,0-.166-.189h0a1.682,1.682,0,0,1-.194-.125l0,0q-.2-.2-.412-.445t-.389-.467Q8.419,15.971,8,15.267t-.8-1.43q-.178-.356-.345-.734l-.323-.734a.917.917,0,0,1-.088-.307v0a.293.293,0,0,0-.155-.244h0a2.711,2.711,0,0,1-.375.5h0a1.816,1.816,0,0,0-.351.534l0,.012a3.93,3.93,0,0,0-.266,1.062l0,.017q-.066.59-.133,1.212l-.044.022-.022.022a.786.786,0,0,1-.543-.408l0,0q-.167-.323-.3-.635a5.932,5.932,0,0,1-.389-1.972v-.008c-.008-.112-.012-.244-.012-.375a5.719,5.719,0,0,1,.275-1.757l-.011.04q.066-.245.289-.824t.089-.8a.806.806,0,0,0-.244-.377h0a3.045,3.045,0,0,1-.308-.308l0,0q-.155-.224-.3-.478t-.256-.5a10.494,10.494,0,0,1-.436-1.245l-.02-.082a9.359,9.359,0,0,0-.5-1.383l.024.059a3.053,3.053,0,0,0-.359-.615l.006.007q-.224-.3-.4-.568-.224-.289-.445-.557a3.14,3.14,0,0,1-.392-.6L.835,1.775a1.507,1.507,0,0,1-.109-.3l0-.01a.367.367,0,0,1-.016-.108.373.373,0,0,1,.061-.205v0A.279.279,0,0,1,.835,1.02.284.284,0,0,1,.966.954h0A.509.509,0,0,1,1.461.922h0a4.727,4.727,0,0,1,.523.179l-.033-.012q.422.178.779.345a5.07,5.07,0,0,1,.729.422L3.44,1.844q.178.111.356.245t.378.268h.312q.356,0,.756.034A3.15,3.15,0,0,1,6,2.542l-.022-.006a6.636,6.636,0,0,1,1.183.474l-.038-.017q.545.278,1.035.59A11.665,11.665,0,0,1,9.607,4.643L9.591,4.63a14.6,14.6,0,0,1,1.269,1.224l.009.011a13.4,13.4,0,0,1,1.082,1.347l.029.043a14.02,14.02,0,0,1,.9,1.457l.039.078a4.232,4.232,0,0,1,.215.493l.01.03q.089.256.2.524.245.557.524,1.123t.524,1.1l.489,1.068a5.341,5.341,0,0,0,.588.993l-.01-.014a1.282,1.282,0,0,0,.716.388h.007a6.416,6.416,0,0,1,.9.293l-.043-.016a4.653,4.653,0,0,0,.475.179l.037.01a2.086,2.086,0,0,1,.52.238l-.008,0a7.256,7.256,0,0,1,.8.514l-.019-.014q.378.278.756.524.178.133.6.389t.445.478c-.1,0-.229-.006-.353-.006a10.281,10.281,0,0,0-1.334.086L19,17.167a5.482,5.482,0,0,0-1.36.359l.037-.013a2.351,2.351,0,0,1-.357.119l-.017,0a.287.287,0,0,0-.245.255h0a.8.8,0,0,1,.132.239l0,.006a1.2,1.2,0,0,0,.115.25l0-.006a3.185,3.185,0,0,0,.36.516l0,0a2.349,2.349,0,0,0,.438.418l.006,0q.224.178.467.367a4.649,4.649,0,0,0,.489.333l.022.012a6.056,6.056,0,0,0,.881.441l.042.015a4.527,4.527,0,0,1,.913.488l-.015-.01q.268.155.534.345l.511.367a1.19,1.19,0,0,1,.176.22l0,0a.527.527,0,0,0,.331.178h0v-.044a.475.475,0,0,1-.169-.246v0a.874.874,0,0,0-.1-.251l0,0ZM5.108,3.87q-.178,0-.334.011a1.182,1.182,0,0,0-.3.058l.008,0v.022h.044q.089.133.224.3T5,4.581l.356.734L5.4,5.293A.676.676,0,0,0,5.63,5l0,0a1.245,1.245,0,0,0,.075-.431c0-.017,0-.033,0-.05v0a.464.464,0,0,1-.1-.142v0L5.532,4.2a.479.479,0,0,0-.2-.177h0a.856.856,0,0,1-.224-.155Z" transform="translate(4.982 4.96)"/></g></svg>