<svg xmlns="http://www.w3.org/2000/svg" xmlns:xlink="http://www.w3.org/1999/xlink" width="32" height="32" viewBox="0 0 32 32"><defs><style>.a{clip-path:url(#b);}</style><clipPath id="b"><rect width="32" height="32"/></clipPath></defs><g id="a" class="a"><path d="M11.427,28.259a1.882,1.882,0,0,1-.932-.25L7.531,26.256c-.442-.25-.226-.336-.082-.384a5.839,5.839,0,0,0,1.34-.61.217.217,0,0,1,.221.019l2.277,1.35a.278.278,0,0,0,.274,0l8.873-5.121a.284.284,0,0,0,.135-.24V11.028a.286.286,0,0,0-.139-.245L11.562,5.667a.278.278,0,0,0-.274,0L2.425,10.788a.28.28,0,0,0-.139.245V21.27a.265.265,0,0,0,.139.235l2.431,1.4c1.321.658,2.128-.115,2.128-.9V11.9a.254.254,0,0,1,.259-.255H8.367a.257.257,0,0,1,.259.255V22.014A2.459,2.459,0,0,1,6,24.781a3.773,3.773,0,0,1-2.042-.557l-2.325-1.34A1.868,1.868,0,0,1,.7,21.265V11.028a1.874,1.874,0,0,1,.932-1.619L10.5,4.288a1.945,1.945,0,0,1,1.864,0l8.873,5.126a1.868,1.868,0,0,1,.932,1.619V21.27a1.88,1.88,0,0,1-.932,1.619L12.359,28.01A1.868,1.868,0,0,1,11.427,28.259ZM18.59,18.166c0-1.917-1.3-2.426-4.021-2.786-2.757-.365-3.036-.552-3.036-1.2,0-.533.235-1.244,2.277-1.244,1.821,0,2.493.394,2.772,1.624a.257.257,0,0,0,.25.2h1.153a.251.251,0,0,0,.187-.082.267.267,0,0,0,.067-.2c-.178-2.119-1.585-3.1-4.429-3.1-2.532,0-4.04,1.066-4.04,2.858,0,1.941,1.5,2.479,3.93,2.719,2.906.283,3.132.711,3.132,1.283,0,.99-.8,1.412-2.666,1.412-2.349,0-2.863-.591-3.036-1.758a.254.254,0,0,0-.255-.216H9.727a.253.253,0,0,0-.255.255c0,1.494.812,3.276,4.7,3.276,2.805,0,4.42-1.115,4.42-3.046Z" transform="translate(4.434 -0.155)"/></g></svg>