<svg xmlns="http://www.w3.org/2000/svg" xmlns:xlink="http://www.w3.org/1999/xlink" width="32" height="32" viewBox="0 0 32 32"><defs><style>.a{clip-path:url(#b);}</style><clipPath id="b"><rect width="32" height="32"/></clipPath></defs><g id="a" class="a"><path d="M4.16,3.716c.656.535.9.5,2.143.414l11.675-.7c.248,0,.042-.248-.042-.29L16,1.738A2.333,2.333,0,0,0,14.181,1.2l-11.3.828c-.414.038-.5.245-.331.411Zm.7,2.723V18.721c0,.659.328.908,1.07.866l12.831-.742c.742-.042.828-.494.828-1.032V5.614c0-.539-.207-.825-.663-.783L5.521,5.614c-.5.042-.659.286-.659.822Zm12.665.655c.083.373,0,.742-.373.787l-.618.125v9.065a3.214,3.214,0,0,1-1.442.456c-.663,0-.828-.207-1.322-.825L9.727,10.353V16.5l1.28.29s0,.742-1.032.742l-2.847.166a.528.528,0,0,1,.29-.659l.742-.207V8.707L7.129,8.625a.771.771,0,0,1,.7-.949l3.054-.207,4.21,6.432V8.21l-1.073-.125a.693.693,0,0,1,.659-.822ZM1.931.914,13.688.048a3.085,3.085,0,0,1,2.723.618l3.755,2.64c.618.452.825.576.825,1.07v14.47c0,.908-.331,1.442-1.484,1.525L5.847,21.2a1.715,1.715,0,0,1-1.733-.659L1.35,16.947a2.772,2.772,0,0,1-.7-1.729V2.357A1.294,1.294,0,0,1,1.93.915Z" transform="translate(5.529 5.4)"/></g></svg>