<svg xmlns="http://www.w3.org/2000/svg" width="68" height="68" viewBox="0 0 68 68">
	<path style="fill: #080915;" d="M1397.462,858q-.662-.567-1.279-1.183T1395,855.537q-.567.662-1.183,1.279T1392.538,858h-29.076q-.662-.567-1.279-1.183T1361,855.537V826.461a22.365,22.365,0,0,1,3.611,5.831,22.26,22.26,0,0,1,1.3,4.2,22.538,22.538,0,0,1,.454,4.508A11.626,11.626,0,1,0,1378,829.368h0a22.52,22.52,0,0,1-4.505-.454,22.249,22.249,0,0,1-8-3.366,22.529,22.529,0,0,1-3.311-2.732q-.615-.616-1.183-1.279h0V792.461q.567-.662,1.183-1.279t1.279-1.183h29.076q.662.567,1.279,1.183a22.4,22.4,0,0,1,4.794,7.11,22.251,22.251,0,0,1,1.3,4.2,22.529,22.529,0,0,1,.455,4.508A11.626,11.626,0,1,0,1412,795.368h0a22.522,22.522,0,0,1-4.505-.454,22.318,22.318,0,0,1-10.03-4.914h29.076q.662.567,1.279,1.183t1.183,1.279v29.076q-.567.662-1.183,1.279T1426.538,824q.662.567,1.279,1.183t1.183,1.279v29.076a22.365,22.365,0,0,1-3.61-5.831,22.271,22.271,0,0,1-1.3-4.2,22.528,22.528,0,0,1-.454-4.508A11.626,11.626,0,1,0,1412,852.631h0a22.525,22.525,0,0,1,4.505.454,22.318,22.318,0,0,1,10.03,4.914Zm-27.683-59.221A11.632,11.632,0,0,0,1378,818.631h0a22.52,22.52,0,0,1,4.505.454,22.245,22.245,0,0,1,8,3.366,22.535,22.535,0,0,1,3.31,2.731q.616.616,1.183,1.279.567-.662,1.183-1.279t1.279-1.183q-.662-.567-1.279-1.183a22.4,22.4,0,0,1-4.794-7.11,22.273,22.273,0,0,1-1.3-4.2,22.529,22.529,0,0,1-.454-4.508,11.626,11.626,0,0,0-19.853-8.221Z" transform="translate(-1361 -789.999)" />
</svg>
