<svg xmlns="http://www.w3.org/2000/svg" xmlns:xlink="http://www.w3.org/1999/xlink" width="32" height="32" viewBox="0 0 32 32"><defs><style>.a{clip-path:url(#b);}</style><clipPath id="b"><rect width="32" height="32"/></clipPath></defs><g id="a" class="a"><g transform="translate(4.5 4.5)"><path d="M18.833.5H4.167A3.677,3.677,0,0,0,.5,4.167V18.833A3.677,3.677,0,0,0,4.167,22.5H18.833A3.677,3.677,0,0,0,22.5,18.833V4.167A3.678,3.678,0,0,0,18.833.5ZM11.041,11.695a4.635,4.635,0,0,1-3.319,1.122,5.4,5.4,0,0,1-.935-.062v3.958h-1.9V6.349a16.62,16.62,0,0,1,2.93-.218,4.753,4.753,0,0,1,3.1.857A2.967,2.967,0,0,1,11.945,9.31,3.183,3.183,0,0,1,11.041,11.695Zm3.989,5.174a4.9,4.9,0,0,1-2.307-.53l.374-1.387a4.276,4.276,0,0,0,1.948.546c.841,0,1.216-.343,1.216-.842,0-.514-.312-.779-1.247-1.106-1.481-.514-2.1-1.325-2.088-2.213,0-1.34,1.106-2.384,2.867-2.384A4.458,4.458,0,0,1,17.8,9.4l-.374,1.356a3.41,3.41,0,0,0-1.605-.436c-.686,0-1.06.327-1.06.795,0,.483.358.717,1.325,1.06,1.371.5,2.01,1.2,2.026,2.322C18.115,15.872,17.04,16.869,15.029,16.869Zm-5-7.481c0,1.231-.873,1.933-2.307,1.933a3.871,3.871,0,0,1-.935-.078V7.69A5.3,5.3,0,0,1,7.893,7.6C9.217,7.6,10.028,8.219,10.028,9.388Z"/></g></g></svg>