<svg xmlns="http://www.w3.org/2000/svg" xmlns:xlink="http://www.w3.org/1999/xlink" width="32" height="32" viewBox="0 0 32 32"><defs><style>.a{clip-path:url(#b);}</style><clipPath id="b"><rect width="32" height="32"/></clipPath></defs><g id="a" class="a"><g transform="translate(4.363 -123.553)"><path d="M7.969,137.077a2.923,2.923,0,0,0-2.317-.834H2.133L.5,144.645H2.33l.434-2.234H4.332a5.61,5.61,0,0,0,1.708-.218,3.232,3.232,0,0,0,1.218-.731A3.65,3.65,0,0,0,8.407,139.4,2.616,2.616,0,0,0,7.969,137.077Zm-1.454,2.2a2.215,2.215,0,0,1-.731,1.392,2.688,2.688,0,0,1-1.649.417H3.022l.683-3.516H4.959a1.872,1.872,0,0,1,1.39.385A1.525,1.525,0,0,1,6.515,139.276ZM15.2,138.5l-.76,3.91H12.6l.722-3.717q.123-.634-.091-.865a1.275,1.275,0,0,0-.911-.231H10.869l-.935,4.813H8.118l1.633-8.4h1.816l-.434,2.234H12.75a3.15,3.15,0,0,1,2.106.533A1.762,1.762,0,0,1,15.2,138.5Zm7.049-1.425a2.923,2.923,0,0,0-2.316-.834H16.418l-1.633,8.4h1.83l.434-2.234h1.568a5.609,5.609,0,0,0,1.707-.218,3.232,3.232,0,0,0,1.218-.731,3.65,3.65,0,0,0,1.149-2.058A2.616,2.616,0,0,0,22.253,137.077Zm-1.454,2.2a2.213,2.213,0,0,1-.731,1.392,2.687,2.687,0,0,1-1.649.417H17.306l.683-3.516h1.254a1.873,1.873,0,0,1,1.39.385A1.526,1.526,0,0,1,20.8,139.276Z"/></g></g></svg>