<svg xmlns="http://www.w3.org/2000/svg" xmlns:xlink="http://www.w3.org/1999/xlink" width="32" height="32" viewBox="0 0 32 32"><defs><style>.a{clip-path:url(#b);}.b{fill:#121212;}</style><clipPath id="b"><rect width="32" height="32"/></clipPath></defs><g id="a" class="a"><g transform="translate(4.117 7.254)"><path class="b" d="M46.922,5.317a7.439,7.439,0,0,0-1.744-.22,1.673,1.673,0,0,1-1.728-1.66A8.808,8.808,0,0,0,43.2,1.351a2.5,2.5,0,0,0-2.9-1.276,2.569,2.569,0,0,0-1.9,2.278,2.457,2.457,0,0,0,1.779,2.542,7.981,7.981,0,0,0,1.709.292c1.054.077,1.134.662,1.42,1.145a2.454,2.454,0,0,1,.354,1.51,2.462,2.462,0,0,1-.354,1.51c-.285.481-.637.8-1.69.874a7.969,7.969,0,0,0-1.709.292,2.457,2.457,0,0,0-1.779,2.542,2.569,2.569,0,0,0,1.9,2.278,2.5,2.5,0,0,0,2.9-1.276,6.916,6.916,0,0,0,.518-1.816,1.674,1.674,0,0,1,1.728-1.66A5.125,5.125,0,0,0,47.3,10.2a2.928,2.928,0,0,0,1.337-2.363A2.671,2.671,0,0,0,46.922,5.317Z" transform="translate(-28.449 0)"/><path class="b" d="M20.789,25.924A2.528,2.528,0,1,1,23.312,23.4,2.53,2.53,0,0,1,20.789,25.924Z" transform="translate(-13.627 -15.569)"/><path class="b" d="M2.514,46.15a2.528,2.528,0,1,1,2.532-2.519A2.531,2.531,0,0,1,2.514,46.15Z" transform="translate(0 -30.658)"/><path class="b" d="M76.247,46.15a2.528,2.528,0,1,1,2.5-2.547A2.531,2.531,0,0,1,76.247,46.15Z" transform="translate(-54.986 -30.658)"/></g></g></svg>