<svg xmlns="http://www.w3.org/2000/svg" xmlns:xlink="http://www.w3.org/1999/xlink" width="32" height="32" viewBox="0 0 32 32"><defs><style>.a{clip-path:url(#b);}</style><clipPath id="b"><rect width="32" height="32"/></clipPath></defs><g id="a" class="a"><g transform="translate(-6.208 -7.774)"><path d="M26.878,53.026a1.622,1.622,0,0,0-.173-3.235h-.058a1.616,1.616,0,0,0-1.56,1.675,1.659,1.659,0,0,0,.462,1.069,10.332,10.332,0,0,1-4.737,4.535,7.811,7.811,0,0,1-4.708.9,4.015,4.015,0,0,1-2.946-1.7,4.243,4.243,0,0,1-.231-4.477,6.8,6.8,0,0,1,1.964-2.311c-.116-.375-.289-1.011-.375-1.473-4.188,3.033-3.755,7.134-2.484,9.07a5.982,5.982,0,0,0,5.026,2.34,7.1,7.1,0,0,0,1.733-.2A11.084,11.084,0,0,0,26.878,53.026Z" transform="translate(0 -24.677)"/><path d="M52.12,41.053a11.73,11.73,0,0,0-9.127-3.986h-.462a1.587,1.587,0,0,0-1.415-.867h-.058a1.618,1.618,0,0,0,.058,3.235h.058a1.627,1.627,0,0,0,1.415-.982h.52a11.009,11.009,0,0,1,6.152,1.877,7.737,7.737,0,0,1,3.062,3.7,4,4,0,0,1-.058,3.408A4.24,4.24,0,0,1,48.308,49.8a7.387,7.387,0,0,1-2.831-.607c-.318.289-.9.751-1.3,1.04a8.916,8.916,0,0,0,3.726.9,6.27,6.27,0,0,0,5.6-3.062A6.525,6.525,0,0,0,52.12,41.053Z" transform="translate(-20.159 -16.286)"/><path d="M28.451,28.84a1.622,1.622,0,0,0,1.618,1.56h.058a1.618,1.618,0,0,0-.058-3.235h-.058a.492.492,0,0,0-.2.029,10.583,10.583,0,0,1-1.5-6.412,7.749,7.749,0,0,1,1.7-4.477,5.01,5.01,0,0,1,3.553-1.618c3.062-.058,4.362,3.755,4.448,5.286.375.087,1.011.289,1.444.433-.347-4.679-3.235-7.106-6.008-7.106a6.535,6.535,0,0,0-5.95,4.65A11.816,11.816,0,0,0,28.653,28a1.3,1.3,0,0,0-.2.838Z" transform="translate(-11.163)"/></g></g></svg>