<svg xmlns="http://www.w3.org/2000/svg" xmlns:xlink="http://www.w3.org/1999/xlink" width="32" height="32" viewBox="0 0 32 32"><defs><style>.a{clip-path:url(#b);}</style><clipPath id="b"><rect width="32" height="32"/></clipPath></defs><g id="a" class="a"><g transform="translate(4.158 4.198)"><path d="M19.684,17.92c0,2.165-3.511,3.921-7.842,3.921S4,20.086,4,17.92V13.974a5.974,5.974,0,0,0,1.968,1.5A13.441,13.441,0,0,0,11.842,16.7a13.441,13.441,0,0,0,5.874-1.226,5.974,5.974,0,0,0,1.968-1.5Z" transform="translate(0 -0.237)"/><path d="M11.842,10.7a13.442,13.442,0,0,0,5.874-1.226,5.975,5.975,0,0,0,1.968-1.5V11.92c0,.49-1.75,1.56-2.626,2.115a11.991,11.991,0,0,1-5.216,1.071,11.991,11.991,0,0,1-5.216-1.071C5.47,13.458,4,12.41,4,11.92V7.974a5.975,5.975,0,0,0,1.968,1.5A13.442,13.442,0,0,0,11.842,10.7Z" transform="translate(0 -0.118)"/><path d="M17.059,8.036a11.991,11.991,0,0,1-5.216,1.071A11.992,11.992,0,0,1,6.626,8.036,6.347,6.347,0,0,1,4.2,6.195a.8.8,0,0,1-.158-.609A1.789,1.789,0,0,1,4.134,5.2C4.812,3.378,8.006,2,11.842,2s7.03,1.378,7.709,3.2a1.785,1.785,0,0,1,.094.388.8.8,0,0,1-.158.609A6.347,6.347,0,0,1,17.059,8.036Z" transform="translate(-0.001)"/></g></g></svg>