<svg xmlns="http://www.w3.org/2000/svg" xmlns:xlink="http://www.w3.org/1999/xlink" width="32" height="32" viewBox="0 0 32 32"><defs><style>.a{clip-path:url(#b);}</style><clipPath id="b"><rect width="32" height="32"/></clipPath></defs><g id="a" class="a"><path d="M13.6.094a1.163,1.163,0,0,0-.8.3l-.039.037L6.6,7.244,3,4.3l-.314-.272A.775.775,0,0,0,1.9,3.906s-.006,0-.009,0l-1.4.58-.057.027a.385.385,0,0,1-.039.021l-.027.018L.32,4.583.3,4.6a.276.276,0,0,0-.033.027.283.283,0,0,0-.03.027.264.264,0,0,0-.024.027.206.206,0,0,0-.024.027L.16,4.746a.148.148,0,0,0-.018.024C.133,4.783.124,4.8.115,4.81A.128.128,0,0,1,.1,4.837c-.006.012-.012.024-.018.039L.066,4.91c0,.012-.009.024-.012.037a.18.18,0,0,0-.012.037.181.181,0,0,0-.012.042l-.009.03A.245.245,0,0,1,.015,5.1c0,.012,0,.024,0,.039a.461.461,0,0,0,0,.063v8.24a.767.767,0,0,0,.474.71l1.4.592a.779.779,0,0,0,.8-.127L3,14.343,6.6,11.4l6.159,6.811c.018.018.039.037.057.052l.045.039c.012.012.027.021.042.033s.033.021.048.033.037.021.052.03l.052.027.052.024a.35.35,0,0,0,.055.021.381.381,0,0,0,.057.021c.015.006.033.009.052.015a.382.382,0,0,0,.06.015c.018,0,.037.009.055.012a.35.35,0,0,0,.057.006.385.385,0,0,0,.057.006c.018,0,.037,0,.057,0h.057c.021,0,.042,0,.06,0a.351.351,0,0,1,.052-.006.486.486,0,0,0,.07-.012l.045-.009A.517.517,0,0,0,13.9,18.5a.532.532,0,0,0,.052-.015.39.39,0,0,0,.055-.021l.07-.027,3.821-1.84a1.1,1.1,0,0,0,.365-.278,1.056,1.056,0,0,0,.072-.088.009.009,0,0,1,0-.006,1.009,1.009,0,0,0,.06-.1c.018-.03.033-.06.048-.09,0-.006,0-.009.006-.015a.8.8,0,0,0,.033-.082l.009-.03c.009-.027.018-.055.024-.082a.092.092,0,0,0,.006-.027c.006-.027.009-.055.015-.078a.185.185,0,0,1,.006-.039c0-.024,0-.045,0-.07a.441.441,0,0,0,0-.06V3.064c0-.037,0-.075-.006-.115a1.153,1.153,0,0,0-.65-.9L14.079.21A1.155,1.155,0,0,0,13.6.1Zm.323,5.3v7.853L9.129,9.318ZM2.326,6.669l2.4,2.649-2.4,2.649Z" transform="translate(6.718 6.52)"/></g></svg>