<svg xmlns="http://www.w3.org/2000/svg" xmlns:xlink="http://www.w3.org/1999/xlink" width="32" height="32" viewBox="0 0 32 32"><defs><style>.a{clip-path:url(#b);}</style><clipPath id="b"><rect width="32" height="32"/></clipPath></defs><g id="a" class="a"><path d="M17.893,2.033,14.076.2a1.154,1.154,0,0,0-1.319.223L5.448,7.09,2.262,4.674a.771.771,0,0,0-.987.042l-1.02.93a.771.771,0,0,0,0,1.141L3.015,9.309.252,11.83a.771.771,0,0,0,0,1.141l1.02.93a.771.771,0,0,0,.987.042l3.185-2.418L12.761,18.2a1.149,1.149,0,0,0,1.316.223l3.82-1.839a1.155,1.155,0,0,0,.655-1.045V3.077a1.162,1.162,0,0,0-.658-1.045ZM13.916,13.522,8.367,9.31,13.916,5.1Z" transform="translate(6.583 6.494)"/></g></svg>