<svg xmlns="http://www.w3.org/2000/svg" xmlns:xlink="http://www.w3.org/1999/xlink" width="32" height="32" viewBox="0 0 32 32"><defs><style>.a{clip-path:url(#b);}</style><clipPath id="b"><rect width="32" height="32"/></clipPath></defs><g id="a" class="a"><path d="M17.49,11.7a1.6,1.6,0,0,1,.255.047l-.011,0v4.132a1.417,1.417,0,0,1-.32.06h0q-.191.016-.384.015h-.011a2.373,2.373,0,0,1-.767-.126l.017.005a1.565,1.565,0,0,1-.62-.378h0a1.865,1.865,0,0,1-.409-.653l0-.013a2.678,2.678,0,0,1-.156-.907c0-.022,0-.044,0-.065v0c0-.04,0-.087,0-.134a1.953,1.953,0,0,1,1.07-1.754l.011-.005a2.205,2.205,0,0,1,1.012-.243h.021c.1,0,.2.007.3.017Zm2.252,5.464a6.942,6.942,0,0,1-1.444.447l-.046.008a7.478,7.478,0,0,1-1.416.136h-.069a4.472,4.472,0,0,1-1.931-.436l.029.012a3.186,3.186,0,0,1-1.372-1.265l-.008-.014a4.12,4.12,0,0,1-.5-1.992c0-.053,0-.105,0-.157v-.024a4.013,4.013,0,0,1,.512-1.97l-.01.019a3.758,3.758,0,0,1,1.443-1.443l.02-.01a4.558,4.558,0,0,1,2.182-.549c.115,0,.23,0,.343.013h-.015q.118.007.28.023V6.977c0-.071.029-.106.089-.106h1.87a.079.079,0,0,1,.078.069h0a.058.058,0,0,1,0,.011.066.066,0,0,1,0,.012h0v8.948c0,.172.007.358.022.561s.027.383.037.545v.01a.154.154,0,0,1-.087.139h0Zm-7.041.395H10.6c-.147,0-.251-.006-.31-.106q-.3-.591-.591-1.174-.3-.6-.627-1.189-.335-.609-.657-1.227H8.405q-.3.609-.613,1.211t-.627,1.2q-.309.6-.634,1.189c-.04.091-.109.1-.208.1H4.3c-.04,0-.062.016-.066-.024a.218.218,0,0,1,0-.023.157.157,0,0,1,.024-.084h0l2.848-4.8L4.333,7.825c-.03-.041-.035-.073-.015-.1a.1.1,0,0,1,.08-.038H6.5a.331.331,0,0,1,.122.023h0a.267.267,0,0,1,.087.083h0Q6.974,8.4,7.3,9t.657,1.2q.332.591.613,1.2h.015q.293-.621.6-1.211T9.8,9q.318-.6.613-1.189a.228.228,0,0,1,.059-.1h0a.21.21,0,0,1,.1-.023h1.953l.021,0a.087.087,0,0,1,.054.153h0v0L9.852,12.489l2.937,4.935a.153.153,0,0,1,.019.076.14.14,0,0,1-.005.039h0c-.009.034-.043.011-.1.022ZM18.27,1.379H5.738A4.8,4.8,0,0,0,1,6.235H1V18.523a4.8,4.8,0,0,0,4.734,4.856H18.27A4.8,4.8,0,0,0,23,18.523h0V6.235h0A4.8,4.8,0,0,0,18.27,1.379h0Z" transform="translate(3.996 3.621)"/></g></svg>